<?xml version="1.0" encoding="UTF-8" standalone="no"?>
<svg
   width="250"
   height="250"
   viewBox="0 0 250 250"
   fill="none"
   version="1.1"
   id="svg4"
   sodipodi:docname="logo.svg?raw"
   inkscape:version="1.2.2 (1:1.2.2+202212051550+b0a8486541)"
   xmlns:inkscape="http://www.inkscape.org/namespaces/inkscape"
   xmlns:sodipodi="http://sodipodi.sourceforge.net/DTD/sodipodi-0.dtd"
   xmlns="http://www.w3.org/2000/svg"
   xmlns:svg="http://www.w3.org/2000/svg">

  <path
     d="m 32.111808,200.553 3.887244,-46.008 V 46.8193 c 0,-20.2085 19.40834,-36.49007 43.09804,-36.70493 C 119.19359,9.75065 172.89789,8.28841 201.23189,3.958789 l 3.002,-0.458789 0.459,2.56343 c 0.14,0.78113 0.547,2.34255 1.229,4.95453 0.666,2.55504 1.562,5.99554 2.63,10.39664 2.137,8.8041 4.958,21.4377 8.025,38.5686 3.854,21.525 -0.499,32.6891 -8.49,37.7113 -7.851,4.9342 -17.707,2.9539 -22.085,1.4198 -5.89,-2.0635 -9.576,-5.7749 -12.974,-9.9335 -0.979,-1.1984 -1.931,-2.4269 -2.907,-3.6863 -2.49,-3.2138 -5.137,-6.6297 -8.794,-10.2641 -7.019,-6.9757 -13.662,-9.3046 -19.082,-9.8809 -4.929,-0.5241 -9.063,0.3535 -12.2479,1.0297 h -1e-4 l -0.007,0.0015 c -0.4101,0.0871 -0.8046,0.1708 -1.1829,0.2477 l -0.0252,0.0051 -0.0253,0.0048 c -9.6125,1.8044 -25.8895,9.1911 -34.522398,25.7866 -3.0674,7.3916 -5.071,16.8981 -5.755,26.9571 0.0321,1.263 -0.1899,3.894 -0.1899,3.894 -0.2073,7.03 0.3142,14.252 1.7419,21.181 3.7681,18.288 13.630098,33.709 31.917098,38.941 0.3409,0.07 0.6944,0.145 1.0606,0.223 h 7e-4 c 3.1849,0.676 7.3185,1.553 12.2474,1.029 5.42,-0.576 12.063,-2.905 19.082,-9.881 3.657,-3.634 6.304,-7.05 8.794,-10.264 0.976,-1.259 1.928,-2.488 2.907,-3.686 3.398,-4.158 7.084,-7.87 12.974,-9.933 4.378,-1.534 14.234,-3.515 22.085,1.419 7.991,5.023 12.344,16.187 8.49,37.712 -3.067,17.131 -5.888,29.764 -8.025,38.568 -1.068,4.401 -1.964,7.842 -2.631,10.397 -0.681,2.612 -1.088,4.173 -1.228,4.955 l -0.459,2.563 -3.002,-0.459 c -27.626,-4.221 -79.3794,-5.717 -119.128598,-6.126 -24.8872,-0.256 -44.79308,-18.182 -43.003484,-39.362 z"
     fill="#fdfdfd"
     id="path2" />
</svg>
