<?xml version="1.0" encoding="UTF-8" standalone="no"?>
<svg
   width="124"
   height="124"
   viewBox="0 0 124 124"
   fill="none"
   version="1.1"
   id="svg1"
   sodipodi:docname="logo-extension.svg"
   inkscape:version="1.3.2 (1:1.3.2+202311252150+091e20ef0f)"
   xmlns:inkscape="http://www.inkscape.org/namespaces/inkscape"
   xmlns:sodipodi="http://sodipodi.sourceforge.net/DTD/sodipodi-0.dtd"
   xmlns="http://www.w3.org/2000/svg"
   xmlns:svg="http://www.w3.org/2000/svg">
  <defs
     id="defs1" />
  <sodipodi:namedview
     id="namedview1"
     pagecolor="#ffffff"
     bordercolor="#666666"
     borderopacity="1.0"
     inkscape:showpageshadow="2"
     inkscape:pageopacity="0.0"
     inkscape:pagecheckerboard="0"
     inkscape:deskcolor="#d1d1d1"
     inkscape:zoom="6.9112903"
     inkscape:cx="62"
     inkscape:cy="62"
     inkscape:window-width="1920"
     inkscape:window-height="1043"
     inkscape:window-x="0"
     inkscape:window-y="0"
     inkscape:window-maximized="1"
     inkscape:current-layer="svg1" />
  <path
     d="m 36.882095,124 h -24.16419 c -3.49742,0 -6.4914,-1.24465 -8.98194,-3.73597 C 1.24527,117.7735 0,114.77951 0,111.28209 V 87.11791 c 5.087255,0 9.53839,-1.61619 13.35387,-4.84872 3.815325,-3.23237 5.723065,-7.339245 5.723065,-12.32048 0,-4.981235 -1.90774,-9.08796 -5.723065,-12.320485 C 9.53839,54.3957 5.087255,52.779515 0,52.779515 v -24.16419 c 0,-3.49742 1.24527,-6.4914 3.735965,-8.98194 2.49054,-2.490695 5.48452,-3.735965 8.98194,-3.735965 H 38.15387 c 0,-4.45129 1.53667,-8.213605 4.610165,-11.2871 C 45.83753,1.536825 49.6,0 54.05129,0 c 4.45129,0 8.213605,1.536825 11.2871,4.61032 3.07365,3.073495 4.61032,6.83581 4.61032,11.2871 h 25.43597 c 3.49742,0 6.4914,1.24527 8.98193,3.735965 2.4907,2.49054 3.73597,5.48452 3.73597,8.98194 V 54.05129 c 4.45129,0 8.21361,1.53667 11.2871,4.61032 3.07427,3.073495 4.61032,6.83581 4.61032,11.2871 0,4.45129 -1.53605,8.21376 -4.61032,11.28726 -3.07349,3.07349 -6.83581,4.61016 -11.2871,4.61016 v 25.43596 c 0,3.49742 -1.24527,6.49141 -3.73597,8.98194 C 101.87608,122.75535 98.8821,124 95.38468,124 H 71.220485 c 0,-5.29914 -1.669195,-9.80344 -5.007585,-13.51275 -3.338545,-3.70945 -7.392415,-5.56418 -12.16161,-5.56418 -4.769195,0 -8.823065,1.85473 -12.16161,5.56418 -3.33839,3.70931 -5.007585,8.21361 -5.007585,13.51275 z"
     fill="#ffffff"
     id="path1"
     style="stroke-width:1.55" />
</svg>
