<?xml version="1.0" encoding="UTF-8" standalone="no"?>
<svg
   width="96"
   height="96"
   viewBox="0 0 96 96"
   fill="none"
   version="1.1"
   id="svg6"
   sodipodi:docname="logo.svg?raw"
   inkscape:version="1.3 (1:1.3+202307231459+0e150ed6c4)"
   inkscape:export-filename="logo_128.png"
   inkscape:export-xdpi="128"
   inkscape:export-ydpi="128"
   xmlns:inkscape="http://www.inkscape.org/namespaces/inkscape"
   xmlns:sodipodi="http://sodipodi.sourceforge.net/DTD/sodipodi-0.dtd"
   xmlns="http://www.w3.org/2000/svg"
   xmlns:svg="http://www.w3.org/2000/svg">
  <sodipodi:namedview
     id="namedview6"
     pagecolor="#ffffff"
     bordercolor="#666666"
     borderopacity="1.0"
     inkscape:showpageshadow="2"
     inkscape:pageopacity="0.0"
     inkscape:pagecheckerboard="0"
     inkscape:deskcolor="#d1d1d1"
     inkscape:zoom="4.5149156"
     inkscape:cx="24.695921"
     inkscape:cy="56.811693"
     inkscape:window-width="1920"
     inkscape:window-height="1043"
     inkscape:window-x="0"
     inkscape:window-y="0"
     inkscape:window-maximized="1"
     inkscape:current-layer="svg6" />
  <path
     d="M88.4212 0H7.57896C3.39322 0 0 3.39321 0 7.57895V88.4211C0 92.6068 3.39322 96 7.57896 96H88.4212C92.6069 96 96.0002 92.6068 96.0002 88.4211V7.57895C96.0002 3.39321 92.6069 0 88.4212 0Z"
     fill="url(#paint0_linear_2157_9893)"
     id="path1" />
  <path
     d="m 101.98302,48.212218 c 3.23899,3.485121 5.03929,8.066695 5.03929,12.824562 v 35.274722 c 0,2.445612 -0.97151,4.790958 -2.70074,6.520328 -1.72937,1.72923 -4.07472,2.70074 -6.520318,2.70074 H 67.070867 c -4.74704,0 -9.319001,-1.79214 -12.801688,-5.018 L 25.118388,73.513256 c 4.277531,3.790866 16.98286,4.356248 23.750041,4.356248 4.379364,0.08079 8.721378,-0.817108 12.709587,-2.627983 3.529893,-1.596623 6.529444,-4.169492 8.644729,-7.415173 1.108498,-1.754788 0.639841,-3.571382 -0.02653,-5.474237 -0.812485,-2.320048 -3.948425,-3.91302 -6.141939,-2.803305 -0.02226,0.01119 -0.04088,0.0208 -0.06278,0.03261 -0.446757,0.240169 -5.844344,3.15419 -7.523456,4.656398 -1.751989,1.567665 -4.285195,2.335985 -7.599618,2.305326 -3.908639,0 -6.667293,-1.367768 -8.275839,-4.103427 -1.608544,-2.735536 -2.407768,-7.294845 -2.397426,-13.677804 v -4.22631 c 0.07677,-5.885953 0.952766,-10.171271 2.627984,-12.855586 1.675096,-2.684316 4.30308,-4.013637 7.883952,-3.988088 3.529529,0 6.157512,0.794115 7.883952,2.382098 0.527421,0.485082 1.675705,0.672934 3.01476,0.700066 2.884455,0.0584 3.891728,-3.477943 1.728994,-5.387124 -1.588957,-1.402687 -1.559758,-3.889904 0.0618,-5.254873 l 5.425212,-4.566851 c 1.514741,-1.275059 3.763371,-1.137332 5.111308,0.312925 z"
     fill="url(#paint1_linear_2157_9893)"
     id="path2"
     style="fill:url(#paint1_linear_2157_9893);stroke-width:1.21666" />
  <path
     d="M 23.323695,67.782183 24.377321,55.343302 V 26.217453 c 0,-5.463773 5.260713,-9.865769 11.681753,-9.923804 10.868297,-0.09843 25.424772,-0.493719 33.10469,-1.664267 l 0.117652,-0.01801 c 0.387384,-0.05901 0.751286,0.201235 0.820514,0.587038 0.03783,0.211091 0.14819,0.633271 0.333,1.339542 0.180675,0.690697 0.423519,1.620955 0.713084,2.810847 0.579008,2.380395 1.343678,5.796165 2.175022,10.427744 1.044624,5.819767 -0.135171,8.838178 -2.30119,10.19597 -2.127936,1.334066 -4.799477,0.798614 -5.986207,0.383855 -1.596378,-0.557839 -2.595498,-1.561339 -3.51651,-2.685654 -0.265353,-0.323996 -0.523407,-0.656144 -0.787908,-0.996687 -0.674881,-0.868938 -1.392345,-1.792504 -2.383557,-2.775078 -1.90249,-1.886065 -3.703268,-2.515686 -5.172383,-2.67154 -1.336014,-0.141619 -2.456435,0.09563 -3.319776,0.278493 l -0.0025,4.86e-4 c -0.11096,0.02349 -0.217661,0.04612 -0.319982,0.06679 l -0.0069,0.0015 -0.0069,0.0012 c -2.605476,0.487881 -7.017325,2.485027 -9.357326,6.971945 -0.831464,1.998484 -1.374459,4.568799 -1.559879,7.288275 0.0036,0.141376 -0.0047,0.346139 -0.01545,0.53752 -0.01947,0.343827 -0.04283,0.687535 -0.04636,1.03197 -0.01837,1.736295 0.130426,3.505926 0.482405,5.2101 1.021386,4.944504 3.694507,9.113873 8.651177,10.528361 0.09247,0.01898 0.188218,0.0393 0.287498,0.06023 l 1.22e-4,1.22e-4 c 0.863341,0.182742 1.983762,0.41999 3.319654,0.27825 1.469115,-0.155733 3.269893,-0.785354 5.172383,-2.671419 0.991212,-0.982574 1.708677,-1.906262 2.383557,-2.775078 0.264502,-0.340543 0.522555,-0.672691 0.787908,-0.996687 0.921012,-1.124315 1.920132,-2.127815 3.516512,-2.685654 1.186728,-0.414759 3.858147,-0.950211 5.986206,0.383855 2.165896,1.357792 3.345813,4.376203 2.30119,10.19597 -0.831345,4.631579 -1.596013,8.04735 -2.175144,10.427744 -0.289444,1.189892 -0.532288,2.12015 -0.712962,2.810847 -0.184811,0.706271 -0.295162,1.128452 -0.333121,1.339664 -0.06924,0.385681 -0.433131,0.645925 -0.820516,0.586917 l -0.11765,-0.01789 C 59.781619,78.939557 45.753902,78.535017 34.979898,78.424422 28.23413,78.355194 22.838613,73.508754 23.323695,67.782183 Z"
     fill="#fdfdfd"
     id="path3"
     style="stroke-width:1.21666" />
  <defs
     id="defs6">
    <linearGradient
       id="paint0_linear_2157_9893"
       x1="-3.3186"
       y1="0.181643"
       x2="162.722"
       y2="44.9672"
       gradientUnits="userSpaceOnUse">
      <stop
         stop-color="#043A07"
         id="stop3" />
      <stop
         offset="0.817708"
         stop-color="#010F0C"
         id="stop4" />
    </linearGradient>
    <linearGradient
       id="paint1_linear_2157_9893"
       x1="38.7257"
       y1="38.2773"
       x2="128.343"
       y2="129.505"
       gradientUnits="userSpaceOnUse"
       gradientTransform="matrix(1.2166592,0,0,1.2166592,-9.7771033,-11.265629)">
      <stop
         stop-opacity="0.63"
         id="stop5" />
      <stop
         offset="0.598958"
         stop-color="#01190B"
         stop-opacity="0"
         id="stop6" />
    </linearGradient>
  </defs>
</svg>
