<?xml version="1.0" encoding="UTF-8" standalone="no"?>
<svg
   viewBox="0 0 370 50"
   version="1.1"
   id="svg3"
   sodipodi:docname="logo-wide.svg?raw"
   inkscape:version="1.3.2 (1:1.3.2+202311252150+091e20ef0f)"
   xmlns:inkscape="http://www.inkscape.org/namespaces/inkscape"
   xmlns:sodipodi="http://sodipodi.sourceforge.net/DTD/sodipodi-0.dtd"
   xmlns="http://www.w3.org/2000/svg"
   xmlns:svg="http://www.w3.org/2000/svg">
  <defs
     id="defs3" />
  <sodipodi:namedview
     id="namedview3"
     pagecolor="#ffffff"
     bordercolor="#666666"
     borderopacity="1.0"
     inkscape:showpageshadow="2"
     inkscape:pageopacity="0.0"
     inkscape:pagecheckerboard="0"
     inkscape:deskcolor="#d1d1d1"
     inkscape:zoom="2.9675676"
     inkscape:cx="185"
     inkscape:cy="25.104736"
     inkscape:window-width="1920"
     inkscape:window-height="1043"
     inkscape:window-x="0"
     inkscape:window-y="0"
     inkscape:window-maximized="1"
     inkscape:current-layer="svg3" />
  <path
     d="M.02 41.27l.664-7.87V14.97c0-3.458 3.32-6.243 7.37-6.28 6.858-.062 16.042-.312 20.888-1.053l.513-.078.079.438c.023.134.093.4.21.848.114.437.267 1.025.45 1.778.365 1.507.847 3.668 1.372 6.599.659 3.682-.085 5.592-1.452 6.451-1.343.845-3.028.506-3.777.243-1.007-.353-1.638-.988-2.219-1.7-.167-.204-.33-.414-.497-.63-.426-.55-.878-1.134-1.504-1.756-1.2-1.193-2.336-1.592-3.263-1.69-.843-.09-1.55.06-2.095.176l-.203.043h-.005l-.004.001c-1.644.309-4.428 1.573-5.904 4.412-.524 1.264-.867 2.89-.984 4.612.005.216-.033.666-.033.666a15.785 15.785 0 00.298 3.623c.645 3.13 2.331 5.768 5.459 6.663.058.011.119.024.181.038.545.115 1.252.265 2.095.176.927-.099 2.063-.497 3.263-1.69.625-.622 1.078-1.207 1.504-1.757.167-.215.33-.425.497-.63.581-.712 1.212-1.347 2.219-1.7.749-.262 2.434-.6 3.777.243 1.366.86 2.11 2.77 1.452 6.452a109.972 109.972 0 01-1.373 6.598 87.97 87.97 0 01-.45 1.779c-.116.447-.186.714-.21.848l-.078.438-.514-.078c-4.724-.723-13.575-.979-20.373-1.049-4.256-.043-7.66-3.11-7.354-6.734zM311.072 7.903c-3.166-.185-6.433.124-8.499 1.682-1.156.871-1.816 1.636-2.526 2.578-.639-2.782-3.276-4.604-6.13-4.604h-8.529v15.42l.026 18.402c-.424 3.555 2.668 6.656 6.675 6.805l5.102-.001v-20.62c0-1.099.314-2.1.943-3.008.629-.954 1.516-1.718 2.66-2.291 1.2-.573 2.516-.86 3.945-.86 1.487 0 2.774.287 3.861.86 1.143.573 2.03 1.337 2.659 2.291a5.16 5.16 0 01.943 3.007v20.589l.759-.006c6.725.006 4.729-.154 8.827-.033h.002l1.112.033h1.526l-.368-1.006s-.594-1.383-.648-1.656c-.136-.696-.227-.96-.304-1.507-.206-1.469-.206-4.957-.206-7.16 0-3.15.529-14.96 0-18.342-.912-5.821-5.947-10.228-11.83-10.573zM65.82 8.524c-3.205-.198-6.53.095-8.624 1.649-1.156.857-1.816 1.61-2.526 2.538C53.07 5.847 48.003.314 40.966.701l-3.173.175 1.814 6.201s.09.419.202.885l.001.008c.11.46.259 1.081.436 1.874.353 1.588.82 3.865 1.326 6.953.508 3.088-.63 23.402-.63 23.402s-.35 3.17-.703 4.758a111.417 111.417 0 01-.434 1.874c-.113.47-.18.752-.204.893l-.076.462 12.289-.001V27.878c0-1.081.314-2.068.943-2.961.63-.94 1.516-1.693 2.66-2.257 1.2-.564 2.516-.846 3.945-.846 1.487 0 2.774.282 3.86.846 1.144.564 2.03 1.317 2.66 2.257.629.893.943 1.88.943 2.961v20.275l.759-.006c6.725.006 4.728-.151 8.827-.032h.002l1.111.032h1.527l-.368-.99s-.595-1.362-.648-1.63c-.136-.686-.227-.947-.304-1.485-.207-1.447-.207-4.882-.207-7.051 0-3.103.53-14.732 0-18.063C76.612 13.19 71.62 8.882 65.82 8.524z"
     fill="#FDFDFD"
     id="path1"
     style="fill:#000000;fill-opacity:1" />
  <path
     fill-rule="evenodd"
     clip-rule="evenodd"
     d="M101.747 8.659c3.206.153 6.107.224 8.072-.23l.947-.218.206 1.011c.021.105.084.338.209.796l.101.354c.113.391.262.904.378 1.44.331 1.533.355 3.506.303 5.056a43.889 43.889 0 01-.162 2.554l-.016.16-.001.008c.013.503-.134.957-.435 1.332-.312.389-.718.6-1.186.623l-.041.002-8.731-1.051.032 2.51c.1 8.274.205 16.919 1.045 22.594l.187 1.267-1.063.197c-.141.027-.445.11-1.015.265-.132.036-.285.081-.455.131-.491.144-1.123.329-1.787.463l-.09-.529.067.533h-.002l-.007.002-.025.003a20.766 20.766 0 01-.46.061c-.312.039-.757.09-1.29.14-1.065.1-2.49.196-3.917.176-1.416-.02-2.88-.153-3.999-.534-.559-.19-1.077-.457-1.46-.843-.4-.402-.65-.935-.636-1.587l.117-11.277-.903-18.407c-.189-3.852 2.787-6.988 6.456-7.207 2.522-.15 5.407-.004 8.176.136l1.385.069zm57.808 6.323c0-4.1-3.409-7.423-7.614-7.423h-26.344c-4.205 0-7.614 3.323-7.614 7.423v26.725c0 4.1 3.409 7.424 7.614 7.424h26.344c4.205 0 7.614-3.324 7.614-7.424V14.982zM130.073 28.28a8.646 8.646 0 1017.291-.1l-.012-1.021a8.64 8.64 0 00-17.279.1v1.021z"
     fill="#FDFDFD"
     id="path2"
     style="fill:#000000;fill-opacity:1" />
  <path
     d="M168.248 8.724a1.95 1.95 0 01.85-.441c.315-.063.609-.095.882-.095h4.755c.378 0 .704.074.977.22.273.127.504.305.693.536.189.231.336.494.441.788.126.294.241.598.346.913l.661 2.771c.315-.65.767-1.322 1.355-2.015.588-.693 1.333-1.323 2.236-1.89.903-.567 1.973-1.029 3.212-1.386 1.26-.377 2.73-.566 4.409-.566 1.323 0 2.52.136 3.591.409a10.25 10.25 0 012.96 1.165 10.655 10.655 0 012.457 1.89 17.126 17.126 0 012.078 2.551c.399-.65.987-1.333 1.764-2.047.798-.714 1.743-1.365 2.835-1.953 1.091-.588 2.309-1.07 3.653-1.449a15.752 15.752 0 014.283-.566c2.394 0 4.483.462 6.267 1.385a12.675 12.675 0 014.441 3.78c1.197 1.595 2.089 3.464 2.677 5.606.588 2.12.882 4.388.882 6.802v20.63c0 .797-.178 1.406-.535 1.826-.336.399-.882.598-1.638.598h-7.275c-.903 0-1.523-.147-1.858-.44-.336-.316-.504-.914-.504-1.796V25.132a7.06 7.06 0 00-.441-2.52 5.979 5.979 0 00-1.166-2.015 4.999 4.999 0 00-1.858-1.354c-.714-.336-1.511-.504-2.393-.504-.798 0-1.554.157-2.268.473a5.915 5.915 0 00-1.89 1.322c-.545.546-.986 1.218-1.322 2.016-.315.777-.473 1.638-.473 2.582v20.63c0 .797-.178 1.406-.535 1.826-.336.399-.882.598-1.638.598h-7.275c-.903 0-1.522-.147-1.858-.44-.336-.316-.504-.914-.504-1.796V25.132a7.56 7.56 0 00-.41-2.52 5.569 5.569 0 00-1.133-2.015 4.795 4.795 0 00-1.795-1.354c-.693-.336-1.481-.504-2.363-.504-.755 0-1.501.157-2.236.473a6.2 6.2 0 00-1.952 1.29 7.446 7.446 0 00-1.449 1.985c-.378.777-.598 1.638-.661 2.582v20.787c0 .357-.074.713-.221 1.07-.126.357-.325.63-.598.82a2.823 2.823 0 01-.788.346 3.133 3.133 0 01-.818.094h-7.118c-.903 0-1.554-.22-1.953-.661-.399-.441-.598-1.029-.598-1.764V10.52c0-.399.084-.766.252-1.102.189-.336.441-.599.756-.788l-.189.095zm107.364 37.132c0 .357-.063.703-.189 1.039a1.578 1.578 0 01-.63.756 1.57 1.57 0 01-.819.44 4.26 4.26 0 01-.819.095h-6.204c-.441 0-.798-.052-1.071-.157a1.792 1.792 0 01-.662-.504 3.29 3.29 0 01-.44-.756c-.105-.315-.221-.65-.347-1.008l-.409-1.417a17.589 17.589 0 01-1.953 1.67 14.897 14.897 0 01-2.394 1.48c-.86.42-1.795.755-2.803 1.007-.986.273-2.015.41-3.086.41-1.911 0-3.748-.242-5.511-.725a21.122 21.122 0 01-4.914-2.047 21.132 21.132 0 01-4.125-3.212 21.548 21.548 0 01-3.213-4.19 20.973 20.973 0 01-2.047-4.944 21.245 21.245 0 01-.724-5.574c0-2.919.535-5.627 1.606-8.126 1.071-2.52 2.53-4.703 4.378-6.55 1.847-1.87 4.02-3.328 6.519-4.378 2.499-1.071 5.176-1.606 8.031-1.606 1.302 0 2.509.147 3.622.44 1.134.294 2.163.693 3.086 1.197a11.715 11.715 0 012.551 1.827 13.48 13.48 0 011.985 2.268l.913-2.866.504-1.26c.147-.336.294-.578.441-.725.168-.168.367-.273.598-.315.231-.063.556-.094.976-.094h4.693c.231 0 .504.031.819.094.315.063.588.21.819.441.294.231.504.494.63.788.126.294.189.63.189 1.008v35.494zM244.59 28.219c0 1.386.21 2.687.63 3.905.441 1.197 1.06 2.236 1.858 3.118a8.993 8.993 0 002.866 2.11c1.134.504 2.383.756 3.748.756 1.406 0 2.708-.252 3.905-.756a9.994 9.994 0 003.149-2.11 9.415 9.415 0 002.11-3.118 10.11 10.11 0 00.756-3.905 9.95 9.95 0 00-.756-3.843 10.044 10.044 0 00-2.11-3.212 9.495 9.495 0 00-3.149-2.173c-1.197-.546-2.499-.819-3.905-.819-1.365 0-2.614.273-3.748.819a8.58 8.58 0 00-2.866 2.173 10.147 10.147 0 00-1.858 3.212 11.702 11.702 0 00-.63 3.843zm120.906 15.81a21.229 21.229 0 01-6.236 4c-2.309.945-4.755 1.417-7.338 1.417-2.876 0-5.595-.525-8.157-1.575-2.561-1.05-4.808-2.498-6.74-4.346-1.931-1.869-3.464-4.063-4.598-6.582-1.133-2.52-1.7-5.26-1.7-8.22 0-1.848.22-3.633.661-5.354a22.085 22.085 0 011.921-4.882 21.055 21.055 0 013.024-4.157 19.224 19.224 0 013.999-3.275 19.638 19.638 0 014.788-2.11c1.721-.505 3.537-.757 5.448-.757 1.743 0 3.433.231 5.071.693a19.444 19.444 0 014.598 1.953 19.83 19.83 0 013.968 3.024 20.183 20.183 0 013.087 3.873 17.857 17.857 0 011.984 4.472c.483 1.575.724 3.202.724 4.882 0 1.092-.021 1.984-.063 2.677-.021.693-.178 1.25-.472 1.67-.294.398-.788.682-1.481.85-.672.147-1.669.22-2.992.22h-22.675c.209 1.344.629 2.467 1.259 3.37.651.903 1.397 1.627 2.236 2.173a9.11 9.11 0 002.677 1.134c.945.23 1.838.346 2.677.346.756 0 1.533-.073 2.331-.22a19.41 19.41 0 002.299-.63 14.265 14.265 0 002.047-.913c.63-.357 1.134-.725 1.512-1.103a5.94 5.94 0 01.85-.598c.252-.147.515-.22.788-.22s.546.094.818.283c.294.189.62.462.977.819l3.338 3.78c.231.272.378.524.441.755.063.21.095.43.095.661 0 .42-.116.788-.347 1.103a4.17 4.17 0 01-.819.787zm-15.148-26.235c-.819 0-1.617.168-2.394.504a8.692 8.692 0 00-2.142 1.291 11.807 11.807 0 00-1.826 1.859 11.875 11.875 0 00-1.292 2.11h16.094a17.434 17.434 0 00-1.449-2.268 9.116 9.116 0 00-1.763-1.827 7.369 7.369 0 00-2.268-1.228c-.84-.294-1.827-.44-2.96-.44z"
     fill="#FFFFFF"
     id="path3"
     style="fill:#000000;fill-opacity:1" />
</svg>
