<svg
   width="124"
   height="124"
   viewBox="0 0 124 124"
   version="1.1"
   >
  <g
     transform="matrix(1.5231711,0,0,1.5231711,-34.551485,-37.825308)"
     style="stroke-width:1.00015;stroke-dasharray:none">
    <circle
       cx="62.839207"
       cy="70.678497"
       fill="url(#paint1_linear_2421_3125)"
       fill-opacity="0.4"
       style="fill:url(#paint1_linear_2421_3125);stroke-width:1.00015;stroke-dasharray:none"
       r="14.1818" />
    <circle
       cx="62.791618"
       cy="70.885124"
       r="4.90908"
       fill="#ffffff"
       style="stroke-width:1.00015;stroke-dasharray:none" />
    <path
       fill-rule="evenodd"
       clip-rule="evenodd"
       d="m 86.1304,87.6579 15.2306,3.0176 c 0,0 -29.7637,5.971 -37.4037,5.7997 -7.64,-0.1713 -14.0921,-3.0046 -19.3564,-8.4997 -5.2643,-5.4952 -7.811,-12.0505 -7.6402,-19.6661 0.1286,-5.7341 1.8104,-10.836 4.9833,-15.2464 l 9.274,4.2935 c -3.7496,3.2014 -6.1268,7.963 -6.1268,13.2798 0,9.6398 7.8146,17.4545 17.4545,17.4545 4.2335,0 8.1149,-1.5072 11.137,-4.0142 z"
       fill="url(#paint2_linear_2421_3125)"
       style="fill:url(#paint2_linear_2421_3125);stroke-width:1.00015;stroke-dasharray:none" />
    <path
       fill-rule="evenodd"
       clip-rule="evenodd"
       d="M 55.7628,54.5485 45.474,49.016 c 0,0 -12.5466,-6.933 -15.4662,-22.016 6.9935,4.8954 12.8115,6.7259 19.4042,8.8 1.4555,0.4579 2.9489,0.9277 4.5009,1.445 2.2063,0.7354 4.4673,1.4195 6.7223,2.1019 9.0893,2.7503 18.0829,5.4717 23.014,11.4002 8.0969,9.7349 11.6128,19.8394 4.469,32.0962 l -10.713,-3.0457 c 1.6452,-2.6629 2.5947,-5.8013 2.5947,-9.1614 0,-9.6398 -7.8147,-17.4545 -17.4545,-17.4545 -2.4055,0 -4.6974,0.4867 -6.7826,1.3668 z"
       fill="url(#paint3_linear_2421_3125)"
       style="fill:url(#paint3_linear_2421_3125);stroke-width:1.00015;stroke-dasharray:none" />
  </g>
  <defs
     id="defs17">
    <linearGradient
       id="paint0_linear_2421_3125"
       x1="124"
       y1="124"
       x2="3.98572"
       y2="-1.01937e-06"
       gradientUnits="userSpaceOnUse">
      <stop
         stop-color="#000B1D"
         id="stop4" />
      <stop
         offset="0.510717"
         stop-color="#081D3E"
         id="stop5" />
      <stop
         offset="1"
         stop-color="#083275"
         id="stop6" />
    </linearGradient>
    <linearGradient
       id="paint1_linear_2421_3125"
       x1="66.4035"
       y1="88.6761"
       x2="66.7494"
       y2="57.8913"
       gradientUnits="userSpaceOnUse"
       gradientTransform="translate(-0.79719179,-1.0487023)">
      <stop
         stop-color="white"
         stop-opacity="0.8"
         id="stop7" />
      <stop
         offset="1"
         stop-color="white"
         stop-opacity="0.7"
         id="stop8" />
    </linearGradient>
    <linearGradient
       id="paint2_linear_2421_3125"
       x1="96.3163"
       y1="104.444"
       x2="35.1307"
       y2="16.2225"
       gradientUnits="userSpaceOnUse">
      <stop
         offset="0.00543968"
         stop-color="white"
         stop-opacity="0"
         id="stop9" />
      <stop
         offset="0.19899"
         stop-color="white"
         stop-opacity="0.811475"
         id="stop10" />
      <stop
         offset="0.677407"
         stop-color="white"
         id="stop11" />
      <stop
         offset="0.982975"
         stop-color="white"
         stop-opacity="0"
         id="stop12" />
    </linearGradient>
    <linearGradient
       id="paint3_linear_2421_3125"
       x1="96.3159"
       y1="104.444"
       x2="35.1303"
       y2="16.2225"
       gradientUnits="userSpaceOnUse">
      <stop
         offset="0.00543968"
         stop-color="white"
         stop-opacity="0"
         id="stop13" />
      <stop
         offset="0.19899"
         stop-color="white"
         stop-opacity="0.811475"
         id="stop14" />
      <stop
         offset="0.677407"
         stop-color="white"
         id="stop15" />
      <stop
         offset="0.982975"
         stop-color="white"
         stop-opacity="0"
         id="stop16" />
    </linearGradient>
  </defs>
</svg>
