<?xml version="1.0" encoding="UTF-8" standalone="no"?>
<svg
   width="1920"
   height="1080"
   viewBox="0 0 1920 1080"
   fill="none"
   version="1.1"
   id="svg21"
   sodipodi:docname="upgrade-bg.svg"
   inkscape:version="1.3.2 (1:1.3.2+202311252150+091e20ef0f)"
   xmlns:inkscape="http://www.inkscape.org/namespaces/inkscape"
   xmlns:sodipodi="http://sodipodi.sourceforge.net/DTD/sodipodi-0.dtd"
   xmlns="http://www.w3.org/2000/svg"
   xmlns:svg="http://www.w3.org/2000/svg">
  <sodipodi:namedview
     id="namedview1"
     pagecolor="#ffffff"
     bordercolor="#666666"
     borderopacity="1.0"
     inkscape:showpageshadow="2"
     inkscape:pageopacity="0.0"
     inkscape:pagecheckerboard="0"
     inkscape:deskcolor="#d1d1d1"
     inkscape:zoom="0.36666667"
     inkscape:cx="960"
     inkscape:cy="538.63636"
     inkscape:window-width="1920"
     inkscape:window-height="1043"
     inkscape:window-x="0"
     inkscape:window-y="0"
     inkscape:window-maximized="1"
     inkscape:current-layer="g14" />
  <g
     clip-path="url(#clip0_833_18662)"
     id="g14">
    <rect
       width="1920"
       height="1080"
       fill="#02A6ED"
       id="rect2"
       style="fill:none;fill-opacity:1" />
    <path
       fill-rule="evenodd"
       clip-rule="evenodd"
       d="m 1808.5565,1276.7685 c 0,0 -189.5299,69.053 -256.898,72.9668 -161.0504,9.3266 -293.4826,-113.6124 -314.2454,-268.0427 l -2.6925,-34.3613 -7.2725,-309.66258 309.6654,-7.26698 34.4473,1.08255 c 155.2214,13.48194 275.0793,140.18773 282.4906,301.31031 4.247,92.7692 -45.4949,243.9739 -45.4949,243.9739 z"
       fill="#ffffff"
       fill-opacity="0.3"
       id="path4"
       style="stroke-width:2.77577" />
    <path
       fill-rule="evenodd"
       clip-rule="evenodd"
       d="m 245.83895,705.34668 -9.30179,44.92069 c -15.56072,75.14664 41.84098,145.62384 118.60529,145.62384 76.1583,0 133.41921,-69.42834 118.89968,-144.16456 l -24.92407,-128.29376 69.37914,98.43623 c 45.30711,64.28129 136.18535,69.13913 187.17836,10.00611 50.57539,-58.65059 36.40266,-150.7649 -29.3415,-190.69934 l -33.3425,-20.25223 32.02243,7.11276 c 77.24435,17.15607 150.51529,-41.60373 150.51529,-120.70457 0,-78.43601 -72.11649,-137.0506 -148.92761,-121.04418 l -116.39514,24.25444 98.20461,-74.243 C 720.0439,189.70553 724.28731,95.986742 667.1584,43.144812 610.4927,-9.2675211 521.87537,4.9182989 483.58622,72.530822 l -20.60626,36.387058 8.91526,-43.052437 C 487.45641,-9.2812111 430.05508,-79.758631 353.28956,-79.758631 c -76.15709,0 -133.41826,69.42823 -118.89895,144.164087 L 259.48532,193.57692 188.93144,93.474656 C 143.62439,29.193134 52.745595,24.334924 1.7531952,83.468545 -48.823385,142.1183 -34.649455,234.23381 31.095065,274.16705 l 36.00351,21.86992 -33.10285,-7.35277 c -77.24362,-17.15609 -150.514565,41.60252 -150.514565,120.70336 0,78.4372 72.116485,137.0518 148.927975,121.04538 l 112.724995,-23.49 -95.311155,72.05528 c -61.63167,46.59358 -65.87629,140.31237 -8.74617,193.15347 56.665218,52.41268 145.282785,38.22674 183.571575,-29.38591 z"
       fill="#ffffff"
       fill-opacity="0.2"
       id="path6"
       style="stroke-width:1.20006" />
    <g
       id="g309"
       transform="matrix(1.7824458,0,0,1.7824458,-1345.0208,-260.24773)">
      <path
         d="m 1624.8992,200.20304 c 0,64.63958 -55.5261,117.04012 -124.0217,117.04012 -68.4957,0 -124.0218,-52.40054 -124.0218,-117.04012 0,-64.63959 55.5261,-117.040124 124.0218,-117.040124 68.4956,0 124.0217,52.400534 124.0217,117.040124 z"
         fill="#ffffff"
         fill-opacity="0.4"
         id="path8"
         style="stroke-width:1.56979" />
      <path
         d="m 1595.8899,390.32106 c -11.5845,-11.67234 -11.9439,-30.9679 -0.8018,-43.09786 l 178.9093,-194.76153 c 11.1421,-12.12996 29.5556,-12.5007 41.1401,-0.82836 v 0 c 11.5706,11.67234 11.93,30.96791 0.7879,43.09787 L 1637.0299,389.4927 c -11.1421,12.12997 -29.5694,12.5007 -41.14,0.82836 z"
         fill="#ffffff"
         fill-opacity="0.4"
         id="path10"
         style="stroke-width:1.4149" />
      <path
         d="m 1666.8186,439.99999 c -13.8185,-13.85912 -14.2307,-36.76965 -0.9399,-51.1704 l 120.3264,-130.40121 c 13.2908,-14.40247 35.2718,-14.84266 49.0737,-0.98527 v 0 c 13.8185,13.85912 14.2308,36.76964 0.94,51.17212 l -120.3264,130.40121 c -13.2908,14.40247 -35.2553,14.84266 -49.0738,0.98355 z"
         fill="#ffffff"
         fill-opacity="0.4"
         id="path12"
         style="stroke-width:1.68387" />
    </g>
  </g>
  <defs
     id="defs19">
    <clipPath
       id="clip0_833_18662">
      <rect
         width="1920"
         height="1080"
         fill="white"
         id="rect16" />
    </clipPath>
  </defs>
</svg>
