<svg width="500" height="501" viewBox="0 0 500 501" fill="none" xmlns="http://www.w3.org/2000/svg">
<path d="M279.227 102.572C326.019 124.384 452.948 90.2363 483.941 143.034C520.42 205.178 487.484 310.098 457.1 351.353C426.47 392.94 285.115 392.518 233.587 394.86C181.261 397.239 91.8338 400.377 43.2661 342.94C5.93937 298.797 0.28094 253.366 9.61466 196.316C19.4134 136.422 44.7507 95.3736 99.7526 69.7218C164.329 39.6048 231.215 80.1904 279.227 102.572Z" fill="url(#paint0_linear_102_5601)"/>
<path opacity="0.7" d="M425.451 173.425L426.295 194.42C426.442 198.083 429.391 201.012 433.056 201.135L456.699 201.925L433.056 202.716C429.391 202.838 426.442 205.767 426.295 209.431L425.451 230.426L424.608 209.431C424.461 205.767 421.512 202.838 417.847 202.716L394.204 201.925L417.847 201.135C421.512 201.012 424.461 198.083 424.608 194.42L425.451 173.425Z" fill="white"/>
<path d="M138.612 144.523L138.714 147.316C138.848 150.981 141.788 153.921 145.453 154.056L148.227 154.157L145.453 154.259C141.788 154.394 138.848 157.334 138.714 160.999L138.612 163.791L138.51 160.999C138.376 157.334 135.436 154.394 131.772 154.259L128.998 154.157L131.772 154.056C135.436 153.921 138.376 150.981 138.51 147.316L138.612 144.523Z" fill="white"/>
<path d="M208.72 323.555L209.034 332.156C209.168 335.82 212.108 338.761 215.773 338.895L224.343 339.21L215.773 339.525C212.108 339.659 209.168 342.599 209.034 346.264L208.72 354.865L208.405 346.264C208.271 342.599 205.331 339.659 201.667 339.525L193.096 339.21L201.667 338.895C205.331 338.761 208.271 335.82 208.405 332.156L208.72 323.555Z" fill="white"/>
<path opacity="0.4" d="M257.194 290.639L257.274 292.659C257.421 296.323 260.369 299.253 264.033 299.376L266.809 299.47L264.033 299.563C260.369 299.687 257.421 302.617 257.274 306.28L257.194 308.301L257.113 306.28C256.967 302.617 254.019 299.687 250.354 299.563L247.579 299.47L250.354 299.376C254.019 299.253 256.967 296.323 257.113 292.659L257.194 290.639Z" fill="white"/>
<path opacity="0.1" d="M336.916 232.032L337.23 240.633C337.364 244.298 340.304 247.238 343.969 247.373L352.54 247.687L343.969 248.002C340.304 248.137 337.364 251.077 337.23 254.742L336.916 263.343L336.601 254.742C336.467 251.077 333.527 248.137 329.863 248.002L321.292 247.687L329.863 247.373C333.527 247.238 336.467 244.298 336.601 240.633L336.916 232.032Z" fill="white"/>
<path opacity="0.3" d="M47.2724 224.405L50.433 224.289C54.0977 224.154 57.0374 221.214 57.1714 217.55L57.2877 214.37L57.404 217.55C57.5381 221.214 60.4778 224.154 64.1425 224.289L67.3031 224.405L64.1425 224.521C60.4777 224.656 57.5381 227.596 57.404 231.261L57.2877 234.44L57.1714 231.261C57.0374 227.596 54.0977 224.656 50.433 224.521L47.2724 224.405Z" fill="white"/>
<path opacity="0.5" d="M191.894 183.862L192.548 201.757C192.682 205.421 195.622 208.361 199.287 208.496L217.132 209.151L199.287 209.807C195.622 209.941 192.682 212.881 192.548 216.546L191.894 234.441L191.239 216.546C191.105 212.881 188.166 209.941 184.501 209.807L166.655 209.151L184.501 208.496C188.166 208.361 191.105 205.421 191.239 201.757L191.894 183.862Z" fill="white"/>
<path opacity="0.4" d="M440.274 298.667L440.358 300.69C440.51 304.353 443.462 307.277 447.126 307.396L450.289 307.498L447.126 307.6C443.462 307.719 440.51 310.644 440.358 314.306L440.274 316.329L440.19 314.306C440.038 310.644 437.086 307.719 433.422 307.6L430.259 307.498L433.422 307.396C437.086 307.277 440.038 304.353 440.19 300.69L440.274 298.667Z" fill="white"/>
<path opacity="0.1" d="M255.591 187.073L255.672 189.094C255.818 192.758 258.766 195.688 262.431 195.811L265.206 195.904L262.431 195.998C258.766 196.121 255.818 199.051 255.672 202.715L255.591 204.735L255.511 202.715C255.364 199.051 252.416 196.121 248.752 195.998L245.977 195.904L248.752 195.811C252.416 195.688 255.364 192.758 255.511 189.094L255.591 187.073Z" fill="white"/>
<path opacity="0.3" d="M96.1472 101.572L98.1538 101.488C101.816 101.335 104.74 98.3832 104.858 94.7196L104.961 91.5367L105.063 94.7196C105.181 98.3832 108.105 101.335 111.768 101.488L113.774 101.572L111.768 101.656C108.105 101.809 105.181 104.761 105.063 108.425L104.961 111.607L104.858 108.425C104.74 104.761 101.816 101.809 98.1538 101.656L96.1472 101.572Z" fill="white"/>
<path opacity="0.3" d="M185.083 282.209L193.655 281.878C197.32 281.737 200.254 278.791 200.381 275.127L200.707 265.751L201.034 275.127C201.161 278.791 204.095 281.737 207.759 281.878L216.331 282.209L207.759 282.54C204.095 282.681 201.161 285.627 201.034 289.291L200.707 298.667L200.381 289.291C200.254 285.627 197.32 282.681 193.655 282.54L185.083 282.209Z" fill="white"/>
<path opacity="0.2" d="M104.56 252.103L104.65 254.899C104.767 258.562 107.69 261.515 111.352 261.668L112.973 261.736L111.352 261.804C107.69 261.958 104.767 264.911 104.65 268.574L104.56 271.37L104.471 268.574C104.353 264.911 101.43 261.958 97.7677 261.804L96.1472 261.736L97.7677 261.668C101.43 261.515 104.353 258.562 104.471 254.899L104.56 252.103Z" fill="white"/>
<path opacity="0.7" d="M238.766 185.468C238.861 188.082 240.959 190.189 243.573 190.285C240.959 190.381 238.861 192.487 238.766 195.102C238.67 192.487 236.573 190.381 233.958 190.285C236.573 190.189 238.67 188.082 238.766 185.468Z" fill="white"/>
<path d="M221.139 95.5508L221.162 96.331C221.229 98.5114 222.965 100.272 225.145 100.368C222.965 100.464 221.229 102.224 221.162 104.405L221.139 105.185L221.115 104.405C221.048 102.224 219.312 100.464 217.132 100.368C219.312 100.272 221.048 98.5114 221.115 96.331L221.139 95.5508Z" fill="white"/>
<path opacity="0.1" d="M312.879 304.287L312.918 305.536C313.032 309.199 315.951 312.154 319.612 312.312L319.689 312.315L319.612 312.319C315.951 312.477 313.032 315.432 312.918 319.095L312.879 320.344L312.84 319.095C312.726 315.432 309.807 312.477 306.146 312.319L306.069 312.315L306.146 312.312C309.807 312.154 312.726 309.199 312.84 305.536L312.879 304.287Z" fill="white"/>
<path opacity="0.7" d="M161.447 253.708C161.551 256.328 163.659 258.423 166.279 258.512L166.655 258.525L166.279 258.538C163.659 258.627 161.551 260.722 161.447 263.342C161.343 260.722 159.236 258.627 156.615 258.538L156.239 258.525L156.615 258.512C159.236 258.423 161.343 256.328 161.447 253.708Z" fill="white"/>
<path d="M83.3276 181.454C83.4232 184.068 85.5206 186.175 88.1349 186.271C85.5206 186.367 83.4232 188.474 83.3276 191.088C83.2319 188.474 81.1345 186.367 78.5202 186.271C81.1345 186.175 83.2319 184.068 83.3276 181.454Z" fill="white"/>
<path opacity="0.3" d="M135.407 344.428L136.256 344.392C139.918 344.236 142.839 341.282 142.955 337.619L143.019 335.597L143.083 337.619C143.199 341.282 146.12 344.236 149.782 344.392L150.631 344.428L149.782 344.464C146.12 344.619 143.199 347.573 143.083 351.236L143.019 353.259L142.955 351.236C142.839 347.573 139.918 344.619 136.256 344.464L135.407 344.428Z" fill="white"/>
<path opacity="0.4" d="M357.347 345.23C357.443 347.414 359.206 349.154 361.391 349.221L362.154 349.245L361.391 349.268C359.206 349.335 357.443 351.075 357.347 353.259C357.251 351.075 355.488 349.335 353.303 349.268L352.54 349.245L353.303 349.221C355.488 349.154 357.251 347.414 357.347 345.23Z" fill="white"/>
<path opacity="0.4" d="M135.407 195.101C137.372 194.989 138.921 193.387 138.967 191.419L139.013 189.481L139.058 191.419C139.105 193.387 140.654 194.989 142.618 195.101C140.654 195.213 139.105 196.815 139.058 198.782L139.013 200.721L138.967 198.782C138.921 196.815 137.372 195.213 135.407 195.101Z" fill="white"/>
<path opacity="0.3" d="M127.395 66.6494L127.419 67.4296C127.485 69.6101 129.222 71.3703 131.401 71.4664C129.222 71.5624 127.485 73.3227 127.419 75.5031L127.395 76.2834L127.371 75.5031C127.305 73.3227 125.568 71.5624 123.389 71.4664C125.568 71.3703 127.305 69.6101 127.371 67.4296L127.395 66.6494Z" fill="white"/>
<path opacity="0.3" d="M241.57 271.37L241.601 272.227C241.735 275.891 244.675 278.831 248.34 278.966L249.182 278.997L248.34 279.028C244.675 279.162 241.735 282.103 241.601 285.767L241.57 286.624L241.539 285.767C241.405 282.103 238.465 279.162 234.8 279.028L233.958 278.997L234.8 278.966C238.465 278.831 241.405 275.891 241.539 272.227L241.57 271.37Z" fill="white"/>
<path opacity="0.7" d="M398.21 224.807C398.305 227.421 400.403 229.528 403.017 229.624C400.403 229.72 398.305 231.826 398.21 234.441C398.114 231.826 396.017 229.72 393.402 229.624C396.017 229.528 398.114 227.421 398.21 224.807Z" fill="white"/>
<path opacity="0.5" d="M120.184 290.639C120.28 293.253 122.377 295.36 124.991 295.456C122.377 295.552 120.28 297.658 120.184 300.273C120.088 297.658 117.991 295.552 115.377 295.456C117.991 295.36 120.088 293.253 120.184 290.639Z" fill="white"/>
<path opacity="0.7" d="M426.253 144.523C426.348 147.138 428.446 149.244 431.06 149.34C428.446 149.436 426.348 151.543 426.253 154.157C426.157 151.543 424.06 149.436 421.445 149.34C424.06 149.244 426.157 147.138 426.253 144.523Z" fill="white"/>
<path opacity="0.1" d="M261.2 95.5508L261.224 96.331C261.29 98.5114 263.027 100.272 265.206 100.368C263.027 100.464 261.29 102.224 261.224 104.405L261.2 105.185L261.176 104.405C261.11 102.224 259.373 100.464 257.194 100.368C259.373 100.272 261.11 98.5114 261.176 96.331L261.2 95.5508Z" fill="white"/>
<path opacity="0.4" d="M229.952 327.569C230.032 329.748 231.78 331.503 233.958 331.583C231.78 331.663 230.032 333.419 229.952 335.598C229.872 333.419 228.124 331.663 225.946 331.583C228.124 331.503 229.872 329.748 229.952 327.569Z" fill="white"/>
<path opacity="0.5" d="M296.454 150.144L296.478 150.924C296.544 153.104 298.281 154.864 300.46 154.961C298.281 155.057 296.544 156.817 296.478 158.997L296.454 159.778L296.43 158.997C296.364 156.817 294.627 155.057 292.448 154.961C294.627 154.864 296.364 153.104 296.43 150.924L296.454 150.144Z" fill="white"/>
<path opacity="0.3" d="M240.8 240.703C242.18 242.804 244.945 243.481 247.139 242.256L247.523 242.041L247.154 242.281C245.046 243.65 244.349 246.415 245.555 248.62C244.175 246.52 241.41 245.842 239.216 247.067L238.832 247.282L239.201 247.042C241.309 245.673 242.007 242.908 240.8 240.703Z" fill="white"/>
<path opacity="0.05" d="M263.604 191.088L263.608 191.178C263.765 194.839 266.72 197.759 270.383 197.873L271.616 197.912L270.383 197.95C266.72 198.065 263.765 200.985 263.608 204.646L263.604 204.736L263.6 204.646C263.442 200.985 260.488 198.065 256.825 197.95L255.591 197.912L256.825 197.873C260.488 197.759 263.442 194.839 263.6 191.178L263.604 191.088Z" fill="white"/>
<path opacity="0.05" d="M370.968 173.827L371.041 173.824C374.704 173.674 377.63 170.723 377.75 167.059L377.778 166.2L377.806 167.059C377.926 170.723 380.853 173.674 384.516 173.824L384.589 173.827L384.516 173.83C380.853 173.981 377.926 176.931 377.806 180.595L377.778 181.454L377.75 180.595C377.63 176.931 374.704 173.981 371.041 173.83L370.968 173.827Z" fill="white"/>
<path opacity="0.05" d="M378.58 140.51L378.583 140.596C378.733 144.259 381.683 147.186 385.347 147.306L386.191 147.334L385.347 147.362C381.683 147.482 378.733 150.409 378.583 154.072L378.58 154.158L378.576 154.072C378.426 150.409 375.476 147.482 371.812 147.362L370.968 147.334L371.812 147.306C375.476 147.186 378.426 144.259 378.576 140.596L378.58 140.51Z" fill="white"/>
<path opacity="0.05" d="M283.234 166.2L283.265 167.057C283.399 170.721 286.339 173.662 290.003 173.796L290.845 173.827L290.003 173.858C286.339 173.993 283.399 176.933 283.265 180.597L283.234 181.454L283.202 180.597C283.068 176.933 280.129 173.993 276.464 173.858L275.622 173.827L276.464 173.796C280.129 173.662 283.068 170.721 283.202 167.057L283.234 166.2Z" fill="white"/>
<path opacity="0.05" d="M314.081 175.834C314.161 178.013 315.908 179.768 318.087 179.848C315.908 179.928 314.161 181.684 314.081 183.862C314.001 181.684 312.253 179.928 310.075 179.848C312.253 179.768 314.001 178.013 314.081 175.834Z" fill="white"/>
<path opacity="0.05" d="M326.901 185.468C326.964 186.996 328.196 188.216 329.725 188.265L330.105 188.278L329.725 188.29C328.196 188.339 326.964 189.559 326.901 191.088C326.837 189.559 325.605 188.339 324.076 188.29L323.696 188.278L324.076 188.265C325.605 188.216 326.837 186.996 326.901 185.468Z" fill="white"/>
<path d="M154.637 77.8887L155.985 114.757C156.119 118.422 159.059 121.362 162.724 121.496L199.505 122.847L162.724 124.198C159.059 124.332 156.119 127.273 155.985 130.937L154.637 167.806L153.288 130.937C153.154 127.273 150.214 124.332 146.55 124.198L109.768 122.847L146.55 121.496C150.214 121.362 153.154 118.422 153.288 114.757L154.637 77.8887Z" fill="white"/>
<ellipse cx="159.845" cy="366.576" rx="159.845" ry="74.1134" fill="#152F56"/>
<path d="M168.278 333.042L168.101 336.121L111.651 368.991L111.827 365.915L168.278 333.042Z" fill="#D3DDF3"/>
<path d="M111.827 365.915L111.651 368.991L38.4589 326.651L38.6354 323.575L111.827 365.915Z" fill="#DBE1EC"/>
<path d="M168.277 333.042L111.827 365.915L38.6351 323.575L95.0866 290.702L168.277 333.042Z" fill="#EBF1F6"/>
<path d="M274.096 361.309L273.803 369.588C273.768 382.323 265.413 395.041 248.725 404.761C215.132 424.32 160.491 424.32 126.679 404.761C109.663 394.916 101.165 381.998 101.2 369.097L101.493 360.815C101.457 373.713 109.954 386.637 126.971 396.479C160.783 416.041 215.425 416.041 249.017 396.479C265.705 386.762 274.061 374.044 274.096 361.309Z" fill="#C3C7DF"/>
<mask id="mask0_102_5601" style="mask-type:luminance" maskUnits="userSpaceOnUse" x="101" y="360" width="174" height="60">
<path d="M274.096 361.308L273.803 369.587C273.768 382.322 265.412 395.04 248.725 404.76C215.132 424.319 160.49 424.319 126.679 404.76C109.663 394.915 101.165 381.997 101.2 369.096L101.493 360.814C101.457 373.712 109.954 386.636 126.971 396.478C160.783 416.04 215.425 416.04 249.016 396.478C265.705 386.761 274.061 374.043 274.096 361.308Z" fill="white"/>
</mask>
<g mask="url(#mask0_102_5601)">
<path d="M274.096 361.307L273.803 369.586C273.797 371.497 273.606 373.409 273.226 375.306L273.519 367.026C273.899 365.127 274.09 363.215 274.096 361.307Z" fill="#C3C7DF"/>
<path d="M273.519 367.027L273.226 375.306C271.127 385.804 263.314 395.975 249.779 404.135L250.071 395.853C263.606 387.695 271.42 377.522 273.519 367.027Z" fill="#C3C7DF"/>
<path d="M250.071 395.853L249.779 404.135C249.431 404.344 249.08 404.553 248.725 404.759C242.969 408.109 236.594 410.886 229.814 413.091L230.105 404.809C236.887 402.607 243.26 399.83 249.016 396.477C249.372 396.271 249.723 396.065 250.071 395.853Z" fill="#C3C7DF"/>
<path d="M230.105 404.809L229.814 413.091C213.146 418.506 194.017 420.452 175.556 418.927L175.849 410.645C194.31 412.17 213.438 410.227 230.105 404.809Z" fill="#C3C7DF"/>
<path d="M175.849 410.646L175.556 418.928C157.694 417.455 140.456 412.731 126.679 404.76C109.663 394.915 101.165 381.997 101.2 369.096L101.493 360.814C101.457 373.712 109.954 386.636 126.971 396.478C140.749 404.449 157.986 409.17 175.849 410.646Z" fill="#C3C7DF"/>
</g>
<path d="M248.621 325.643C282.434 345.202 282.608 376.919 249.016 396.478C215.425 416.04 160.783 416.04 126.971 396.478C93.1569 376.919 92.9792 345.202 126.571 325.643C160.164 306.081 214.807 306.081 248.621 325.643Z" fill="#EBF1F6"/>
<path d="M165.45 273.232L165.285 331.529L112.603 362.203L112.768 303.906L165.45 273.232Z" fill="#D3DDF3"/>
<path d="M112.767 303.906L112.603 362.203L44.2999 322.69L44.4654 264.395L112.767 303.906Z" fill="#DBE1EC"/>
<path d="M165.45 273.235L112.767 303.908L44.4655 264.398L97.1445 233.721L165.45 273.235Z" fill="#EBF1F6"/>
<path d="M154.837 251.589L154.701 268.72L111.25 294.022L111.386 276.892L154.837 251.589Z" fill="#D3DDF3"/>
<path d="M111.386 276.892L111.25 294.022L54.9117 261.431L55.0477 244.301L111.386 276.892Z" fill="#DBE1EC"/>
<path d="M154.837 251.588L111.386 276.891L55.0475 244.3L98.5002 219L154.837 251.588Z" fill="#EBF1F6"/>
<path d="M268.422 262.236L268.153 358.728C268.118 370.63 260.313 382.511 244.718 391.592C213.33 409.87 162.273 409.87 130.68 391.592C114.781 382.395 106.839 370.319 106.873 358.266L107.147 261.774C107.113 273.83 115.053 285.903 130.953 295.1C162.546 313.378 213.602 313.378 244.991 295.1C260.583 286.019 268.39 274.138 268.422 262.236Z" fill="#C3C7DF"/>
<mask id="mask1_102_5601" style="mask-type:luminance" maskUnits="userSpaceOnUse" x="106" y="261" width="163" height="145">
<path d="M268.422 262.239L268.153 358.731C268.118 370.633 260.313 382.514 244.718 391.595C213.33 409.873 162.273 409.873 130.679 391.595C114.781 382.398 106.839 370.322 106.873 358.269L107.146 261.777C107.112 273.833 115.053 285.906 130.953 295.103C162.547 313.381 213.603 313.381 244.991 295.103C260.583 286.022 268.391 274.141 268.422 262.239Z" fill="white"/>
</mask>
<g mask="url(#mask1_102_5601)">
<path d="M268.422 262.239L268.153 358.731C268.147 360.515 267.967 362.301 267.611 364.076L267.883 267.584C268.24 265.809 268.42 264.026 268.422 262.239Z" fill="#C3C7DF"/>
<path d="M267.883 267.585L267.611 364.077C265.651 373.884 258.351 383.389 245.701 391.012L245.975 294.523C258.623 286.9 265.923 277.392 267.883 267.585Z" fill="#A4A6C5"/>
<path d="M245.975 294.522L245.701 391.011C245.377 391.208 245.049 391.4 244.718 391.595C239.34 394.726 233.383 397.32 227.047 399.38L227.32 302.891C233.656 300.831 239.613 298.234 244.991 295.103C245.322 294.908 245.65 294.716 245.975 294.522Z" fill="#A4A6C5"/>
<path d="M227.32 302.892L227.047 399.381C211.474 404.441 193.6 406.26 176.351 404.833L176.624 308.342C193.874 309.768 211.747 307.949 227.32 302.892Z" fill="#A4A6C5"/>
<path d="M176.624 308.342L176.351 404.834C159.661 403.457 143.554 399.044 130.681 391.596C114.781 382.399 106.839 370.323 106.873 358.27L107.147 261.778C107.113 273.834 115.053 285.907 130.953 295.104C143.827 302.552 159.934 306.965 176.624 308.342Z" fill="#A4A6C5"/>
</g>
<path d="M244.62 228.913C276.212 247.191 276.38 276.822 244.991 295.1C213.602 313.378 162.546 313.378 130.953 295.1C99.3577 276.822 99.191 247.191 130.579 228.913C161.968 210.635 213.025 210.635 244.62 228.913Z" fill="#A4A6C5"/>
<path d="M244.991 294.73C213.602 308.413 162.546 308.413 130.953 294.733C115.053 287.849 107.113 278.808 107.147 269.785L106.873 289.481C106.839 298.507 114.781 307.544 130.68 314.429C146.991 321.494 168.493 327.536 189.795 327.304C209.753 327.089 229.537 321.047 244.718 314.426C260.313 307.629 268.118 298.736 268.153 289.827L268.422 270.131C268.39 279.041 260.583 287.933 244.991 294.73Z" fill="#989ABC"/>
<path d="M274.763 248.736C274.765 249.268 274.765 249.895 274.768 250.601C274.771 251.292 274.774 252.216 274.774 252.908C274.777 253.738 274.78 254.613 274.783 255.516C274.786 256.42 274.789 257.349 274.792 258.279C274.794 259.209 274.797 260.144 274.8 261.053C274.8 261.962 274.803 262.848 274.806 263.688C274.809 264.528 274.812 265.324 274.815 266.047C274.815 266.625 274.815 267.398 274.818 267.976C274.818 268.385 274.821 268.929 274.821 269.338C274.861 283.456 265.784 296.936 247.707 307.033C212.584 326.659 156.795 326.093 123.097 305.773C106.742 295.907 98.5977 283.204 98.5626 270.497C98.5591 269.51 98.5579 269.048 98.5568 268.493C98.5545 267.935 98.5521 267.284 98.5501 266.561C98.5478 265.841 98.5466 265.045 98.5432 264.205C98.542 263.363 98.5385 262.477 98.5365 261.567C98.5342 260.655 98.5307 259.726 98.5295 258.796C98.5263 257.864 98.524 256.934 98.5205 256.033C98.5182 255.13 98.5147 254.25 98.5139 253.422C98.5116 252.597 98.5092 251.818 98.5069 251.115C98.5046 250.412 98.5034 249.782 98.5014 249.25C98.6565 245.029 98.9621 239.385 99.5715 235.205C100.098 231.588 101.2 226.818 102.279 223.323C105.797 211.927 110.216 204.537 114.073 198.808C115.475 196.728 117.356 194.236 119.193 192.054C119.912 191.2 120.626 190.398 121.301 189.684C124.904 185.875 126.888 183.781 132.662 179.17C137.243 175.51 145.23 170.389 153.916 166.987C158.854 165.052 162.114 164.041 167.325 162.818C170.913 161.976 175.972 161.209 179.628 160.956C193.496 159.992 202.069 161.947 207.743 163.242C213.152 164.477 218.751 166.755 221.141 167.728C224.234 168.988 228.209 171.034 231.082 172.739C233.984 174.464 242.817 179.708 251.597 189.283C254.1 192.013 257.286 195.828 259.29 198.945C260.354 200.603 261.855 202.765 262.801 204.49C264.41 207.43 266.578 211.358 267.796 214.481C268.532 216.378 269.593 218.887 270.196 220.831C271.147 223.904 272.33 228.032 272.971 231.181C273.472 233.642 274.644 239.397 274.763 248.736Z" fill="#DBE1EC"/>
<path d="M176.85 183.174C171.774 180.112 171.948 175.231 177.239 172.277C182.53 169.32 190.936 169.404 196.012 172.466C201.089 175.528 200.915 180.405 195.624 183.362C190.332 186.323 181.926 186.233 176.85 183.174C177.152 182.953 177.453 182.735 177.756 182.52C182.352 185.291 189.963 185.367 194.754 182.694C199.545 180.016 199.702 175.597 195.106 172.826C190.51 170.055 182.899 169.976 178.109 172.652C173.316 175.33 173.159 179.749 177.756 182.52C177.453 182.735 177.152 182.953 176.85 183.174Z" fill="#D4DAE7"/>
<path d="M155.941 202.869C139.771 193.117 140.325 177.581 157.178 168.166C174.031 158.748 200.8 159.022 216.968 168.774C233.138 178.523 232.583 194.061 215.729 203.477C198.877 212.892 172.108 212.618 155.941 202.869C156.196 202.564 156.453 202.265 156.712 201.963C172.47 211.468 198.561 211.735 214.986 202.556C231.412 193.379 231.952 178.235 216.195 168.733C200.435 159.228 174.345 158.966 157.919 168.14C141.493 177.317 140.953 192.464 156.712 201.963C156.453 202.265 156.196 202.564 155.941 202.869Z" fill="#D4DAE7"/>
<path d="M165.981 192.247C155.142 185.711 155.512 175.293 166.813 168.978C178.111 162.665 196.059 162.848 206.899 169.385C217.738 175.921 217.367 186.338 206.068 192.651C194.769 198.963 176.821 198.783 165.981 192.247C166.262 191.98 166.544 191.715 166.828 191.454C177.219 197.72 194.424 197.894 205.254 191.843C216.085 185.792 216.44 175.805 206.05 169.539C195.659 163.273 178.456 163.098 167.624 169.149C156.793 175.2 156.437 185.188 166.828 191.454C166.544 191.715 166.262 191.98 165.981 192.247Z" fill="#D4DAE7"/>
<path d="M210.866 164.077C249.378 176.228 249.236 203.201 222.107 216.761C199.983 227.821 167.653 226.952 146.903 214.745C147.131 214.411 147.358 214.08 147.587 213.752C168.191 226.177 202.301 226.522 223.776 214.525C245.251 202.527 245.958 182.727 225.354 170.302C220.067 167.112 213.891 164.719 207.266 163.127L210.866 164.077Z" fill="#D4DAE7"/>
<path d="M146.903 214.746C125.936 202.101 126.655 181.955 148.509 169.745C152.594 167.459 157.127 165.62 161.936 164.211L163.127 163.871L165.428 163.267C159.561 164.722 154.039 166.808 149.166 169.53C127.691 181.528 126.985 201.328 147.587 213.753C147.358 214.081 147.131 214.412 146.903 214.746Z" fill="#D4DAE7"/>
<path d="M236.89 176.449C270.161 201.357 244.943 232.376 201.117 238.244C192.674 239.371 163.247 241.942 139.051 227.568C139.244 227.214 139.438 226.863 139.634 226.511C164.464 241.483 205.573 241.899 231.453 227.441C256.617 213.38 258.118 190.437 235.362 175.412L236.89 176.449Z" fill="#D4DAE7"/>
<path d="M139.051 227.567C115.703 213.487 114.782 191.647 135.761 176.875L137.405 175.743C115.642 190.331 116.202 212.377 139.634 226.51C139.438 226.862 139.244 227.213 139.051 227.567Z" fill="#D4DAE7"/>
<path d="M271.759 226.037C275.942 241.625 267.375 258.128 246.267 269.923C211.913 289.116 157.347 288.564 124.389 268.688C124.45 268.319 124.515 267.947 124.579 267.578C157.436 287.393 211.831 287.945 246.078 268.81C267.364 256.917 275.856 240.216 271.342 224.521L271.759 226.037Z" fill="#D4DAE7"/>
<path d="M124.389 268.688C105.102 257.057 97.489 241.387 101.375 226.54L101.78 225.044C97.5876 239.996 105.128 255.848 124.58 267.579C124.515 267.948 124.45 268.32 124.389 268.688Z" fill="#D4DAE7"/>
<path d="M253.317 191.212C267.732 207.764 262.589 228.532 238.297 242.107C208.495 258.755 161.155 258.276 132.562 241.035C132.716 240.669 132.872 240.303 133.029 239.934C161.373 257.027 208.3 257.503 237.844 240.997C262.209 227.381 267.143 206.471 252.221 189.968L253.317 191.212Z" fill="#D4DAE7"/>
<path d="M132.562 241.035C102.631 221.453 111.554 201.716 119.535 191.691L120.586 190.483C106.5 206.396 110.524 226.365 133.029 239.934C132.872 240.303 132.716 240.669 132.562 241.035Z" fill="#D4DAE7"/>
<path d="M274.797 260.8C274.835 274.276 265.755 287.755 247.68 297.853C212.557 317.476 156.768 316.912 123.072 296.592C123.071 296.153 123.07 295.715 123.067 295.273C156.765 315.596 212.555 316.16 247.677 296.537C265.755 286.436 274.832 272.96 274.794 259.484C274.794 259.925 274.797 260.367 274.797 260.8Z" fill="#D4DAE7"/>
<path d="M123.072 296.591C106.717 286.726 98.5713 274.022 98.535 261.313C98.535 260.88 98.5339 260.438 98.5316 260C98.5666 272.706 106.713 285.41 123.067 295.272C123.069 295.714 123.071 296.152 123.072 296.591Z" fill="#D4DAE7"/>
<path d="M264.662 207.853C273.391 224.399 266.112 243.157 243.105 256.011C210.553 274.2 158.846 273.677 127.615 254.841C127.725 254.469 127.837 254.097 127.952 253.725C159.003 272.451 210.411 272.971 242.777 254.887C265.906 241.966 273.052 223.037 263.908 206.452L264.662 207.853Z" fill="#D4DAE7"/>
<path d="M127.614 254.843C106.45 242.078 100.121 224.184 108.37 208.311L109.098 206.934C100.477 222.844 106.673 240.896 127.952 253.727C127.836 254.099 127.725 254.471 127.614 254.843Z" fill="#D4DAE7"/>
<path d="M274.818 267.743C274.856 281.216 265.775 294.695 247.701 304.796C212.578 324.419 156.788 323.853 123.09 303.529C123.09 303.253 123.089 302.957 123.089 302.64C156.785 322.964 212.575 323.527 247.698 303.901C265.772 293.806 274.853 280.324 274.815 266.851C274.815 267.168 274.815 267.464 274.818 267.743Z" fill="#D4DAE7"/>
<path d="M123.09 303.529C106.736 293.67 98.5919 280.966 98.5545 268.257C98.5545 267.981 98.5533 267.682 98.5533 267.365C98.5884 280.072 106.735 292.778 123.089 302.64C123.089 302.957 123.09 303.253 123.09 303.529Z" fill="#D4DAE7"/>
<path d="M274.693 245.37C275.253 259.21 266.181 273.154 247.611 283.53C212.505 303.145 156.742 302.578 123.061 282.269C123.07 281.909 123.081 281.552 123.094 281.192C156.755 301.492 212.488 302.055 247.574 282.452C266.373 271.951 275.43 257.789 274.612 243.781L274.693 245.37Z" fill="#D4DAE7"/>
<path d="M123.061 282.27C106.226 272.117 98.0945 258.951 98.5567 245.873L98.6257 244.278C97.9191 257.525 106.037 270.905 123.093 281.192C123.081 281.552 123.07 281.909 123.061 282.27Z" fill="#D4DAE7"/>
<path d="M182.539 179.314C180.478 178.073 180.549 176.092 182.696 174.889C184.845 173.69 188.258 173.724 190.319 174.968C192.38 176.211 192.31 178.192 190.162 179.392C188.014 180.592 184.6 180.557 182.539 179.314C182.847 179.122 183.157 178.93 183.468 178.741C185.036 179.686 187.635 179.712 189.271 178.799C190.907 177.884 190.96 176.377 189.391 175.433C187.822 174.483 185.223 174.459 183.588 175.372C181.951 176.284 181.898 177.794 183.468 178.741C183.157 178.93 182.847 179.122 182.539 179.314Z" fill="#D4DAE7"/>
<path d="M160.845 197.383C147.279 189.202 147.744 176.165 161.883 168.269C176.023 160.367 198.482 160.594 212.047 168.777C225.612 176.958 225.148 189.992 211.009 197.891C196.869 205.793 174.411 205.566 160.845 197.383C161.114 197.098 161.385 196.813 161.657 196.532C174.792 204.453 196.537 204.671 210.227 197.022C223.916 189.374 224.368 176.754 211.233 168.833C198.098 160.911 176.353 160.69 162.664 168.339C148.973 175.99 148.523 188.613 161.657 196.532C161.385 196.813 161.114 197.098 160.845 197.383Z" fill="#D4DAE7"/>
<path d="M151.284 208.671C132.643 197.431 133.283 179.516 152.713 168.66C172.141 157.805 203.003 158.121 221.643 169.361C240.283 180.603 239.643 198.515 220.215 209.368C200.785 220.224 169.925 219.913 151.284 208.671C151.526 208.354 151.771 208.035 152.017 207.718C170.268 218.725 200.485 219.03 219.51 208.401C238.534 197.771 239.16 180.234 220.907 169.227C202.656 158.22 172.438 157.912 153.415 168.541C134.39 179.171 133.764 196.711 152.017 207.718C151.771 208.035 151.526 208.354 151.284 208.671Z" fill="#D4DAE7"/>
<path d="M171.324 187.498C163.319 182.669 163.593 174.974 171.938 170.312C180.283 165.646 193.538 165.783 201.545 170.611C209.553 175.439 209.277 183.134 200.932 187.797C192.588 192.459 179.331 192.326 171.324 187.498C171.615 187.254 171.909 187.012 172.201 186.771C179.742 191.321 192.229 191.445 200.091 187.056C207.951 182.664 208.211 175.416 200.667 170.867C193.125 166.32 180.64 166.192 172.778 170.585C164.918 174.974 164.658 182.222 172.201 186.771C171.909 187.012 171.615 187.254 171.324 187.498Z" fill="#D4DAE7"/>
<path d="M225.926 169.947C227.382 170.67 228.794 171.443 230.151 172.262C253.288 186.215 252.497 208.45 228.38 221.923C204.262 235.399 165.955 235.01 142.817 221.057C143.028 220.712 143.24 220.369 143.453 220.026C166.254 233.775 204 234.156 227.764 220.88C251.528 207.604 252.311 185.695 229.51 171.943C227.74 170.877 225.88 169.889 223.943 168.985L225.926 169.947Z" fill="#D4DAE7"/>
<path d="M142.817 221.058C115.852 203.416 124.421 182.125 146.823 170.209L148.954 169.16C118.603 184.745 122.324 207.262 143.453 220.026C143.241 220.369 143.028 220.712 142.817 221.058Z" fill="#D4DAE7"/>
<path d="M246.032 183.735C263.725 199.82 260 221.468 235.33 235.249C207.227 250.953 162.587 250.5 135.624 234.241C135.8 233.88 135.975 233.517 136.152 233.157C162.834 249.248 207.009 249.695 234.819 234.156C259.597 220.314 263.027 198.451 244.612 182.468L246.032 183.735Z" fill="#D4DAE7"/>
<path d="M135.624 234.24C112.669 220.395 109.928 199.555 126.964 183.978L128.266 182.808C110.655 198.285 113.134 219.274 136.152 233.157C135.975 233.517 135.8 233.88 135.624 234.24Z" fill="#D4DAE7"/>
<path d="M268.744 216.818C275.05 232.978 267.022 250.629 244.902 262.987C211.325 281.747 157.99 281.207 125.776 261.778C125.862 261.409 125.951 261.038 126.042 260.666C158.112 280.007 211.213 280.545 244.643 261.865C266.903 249.432 274.826 231.61 268.17 215.38L268.744 216.818Z" fill="#D4DAE7"/>
<path d="M125.776 261.775C105.459 249.522 98.3945 232.685 104.372 217.213L104.951 215.743C98.6142 231.299 105.571 248.317 126.042 260.663C125.95 261.035 125.862 261.406 125.776 261.775Z" fill="#D4DAE7"/>
<path d="M259.29 198.944L259.635 199.45C284.481 240.84 214.961 272.545 156.178 258.351C143.949 255.4 135.13 251.048 129.884 247.914C130.018 247.545 130.152 247.173 130.288 246.801C189.23 279.578 272.878 248.925 263.807 209.231C262.975 205.594 261.255 201.849 258.701 198.099L259.29 198.944Z" fill="#D4DAE7"/>
<path d="M129.884 247.914C107.992 234.714 102.612 215.794 113.44 199.741L114.368 198.387C103.083 214.449 108.286 233.534 130.288 246.801C130.152 247.173 130.018 247.545 129.884 247.914Z" fill="#D4DAE7"/>
<path d="M273.756 235.596C276.006 250.397 267.091 265.656 247.176 276.783C212.311 296.263 156.928 295.703 123.476 275.531C123.512 275.167 123.551 274.801 123.591 274.438C156.979 294.573 212.26 295.133 247.062 275.687C267.178 264.448 276.047 248.988 273.507 234.05L273.756 235.596Z" fill="#D4DAE7"/>
<path d="M123.476 275.528C105.328 264.582 97.3633 250.115 99.4426 236.058L99.6838 234.504C97.3259 248.704 105.246 263.371 123.591 274.436C123.551 274.799 123.512 275.165 123.476 275.528Z" fill="#D4DAE7"/>
<path d="M274.774 252.786C271.571 303.696 175.236 319.307 123.049 288.578C123.048 288.186 123.047 287.805 123.045 287.442C156.742 307.763 212.532 308.329 247.654 288.706C265.732 278.605 274.812 265.126 274.771 251.653C274.774 252.019 274.774 252.397 274.774 252.786Z" fill="#D4DAE7"/>
<path d="M123.049 288.578C110.814 280.575 99.3745 270.762 98.5129 253.303C98.5129 252.911 98.5117 252.533 98.5094 252.17C98.5468 264.876 106.691 277.58 123.045 287.442C123.047 287.805 123.048 288.186 123.049 288.578Z" fill="#D4DAE7"/>
<path d="M245.562 308.197C245.064 308.458 244.562 308.711 244.057 308.964C244.056 308.171 244.014 293.033 243.998 287.72C243.886 247.962 218.112 198.397 186.429 177.011C218.943 197.97 245.39 247.195 245.501 286.95C245.517 292.26 245.56 307.398 245.562 308.197Z" fill="#D4DAE7"/>
<path d="M274.562 274.022C274.513 274.382 274.458 274.745 274.397 275.105C274.394 274.31 274.354 259.172 274.336 253.861C274.226 214.104 234.869 179.694 186.429 177.01C234.959 179.096 274.388 213.02 274.502 252.778C274.516 258.088 274.56 273.226 274.562 274.022Z" fill="#D4DAE7"/>
<path d="M266.039 292.384C265.76 292.721 265.476 293.05 265.189 293.378C265.186 292.585 265.143 277.444 265.128 272.134C265.015 232.376 229.782 189.789 186.429 177.01C230.251 189.237 265.865 231.383 265.978 271.14C265.992 276.451 266.036 291.591 266.039 292.384Z" fill="#D4DAE7"/>
<path d="M264.839 208.192L266.076 210.676C246.285 174.14 207.679 173.902 186.429 177.01C221.889 170.694 252.289 183.962 264.839 208.192Z" fill="#D4DAE7"/>
<path d="M238.361 177.491L239.947 178.671C234.355 174.871 217.337 163.318 186.429 177.009C195.126 173.305 218.226 163.466 238.361 177.491Z" fill="#D4DAE7"/>
<path d="M173.927 161.6L175.044 161.443C178.223 160.996 182.158 166.024 186.429 177.011C181.736 166.042 177.416 161.068 173.927 161.6Z" fill="#D4DAE7"/>
<path d="M213.288 164.81L214.584 165.234C206.917 162.628 197.108 166.291 186.429 177.011C196.596 166.271 205.947 162.457 213.288 164.81Z" fill="#D4DAE7"/>
<path d="M126.26 184.635L127.841 183.182C141.287 171.077 162.513 168.004 186.429 177.009C160.693 168.776 142.137 171.13 126.26 184.635Z" fill="#D4DAE7"/>
<path d="M193.05 160.911L194.143 161.001C191.959 160.798 189.293 165.986 186.429 177.011C188.885 165.975 191.173 160.757 193.05 160.911Z" fill="#D4DAE7"/>
<path d="M112.945 200.487L114.362 198.393C127.982 178.793 155.123 169.639 186.429 177.009C154.231 169.895 126.4 179.911 112.945 200.487Z" fill="#D4DAE7"/>
<path d="M152.59 167.535L153.916 166.989L153.982 166.962C162.675 163.479 174.011 166.512 186.429 177.011C173.446 166.544 161.607 163.718 152.59 167.535Z" fill="#D4DAE7"/>
<path d="M102.499 222.609L103.412 219.838C121.226 175.697 167.402 175.183 186.43 177.01C144.653 174.082 114.062 190.701 102.499 222.609Z" fill="#D4DAE7"/>
<path d="M98.5635 270.704L98.5626 270.498L98.5603 269.853C98.5591 269.51 98.5579 269.048 98.5568 268.493C98.5545 267.936 98.5521 267.285 98.5501 266.562C98.5478 265.841 98.5466 265.045 98.5432 264.206C98.542 263.363 98.5385 262.477 98.5365 261.568C98.5342 260.656 98.5307 259.726 98.5295 258.797C98.5263 257.864 98.524 256.934 98.5205 256.034C98.5182 255.13 98.5147 254.25 98.5139 253.422C98.5116 252.597 98.5092 251.819 98.5069 251.116C98.5046 250.413 98.5034 249.782 98.5014 249.251L98.5318 246.636C99.55 207.689 138.469 176.67 186.429 177.01C137.755 177.265 98.3904 209.702 98.5023 249.457C98.5182 254.77 98.5603 269.908 98.5635 270.704Z" fill="#D4DAE7"/>
<path d="M104.791 289.322C104.557 288.979 104.329 288.637 104.108 288.294C104.106 287.498 104.063 272.36 104.048 267.047C103.936 227.292 140.817 186.98 186.429 177.01C141.194 187.546 104.618 228.321 104.731 268.072C104.746 273.386 104.789 288.523 104.791 289.322Z" fill="#D4DAE7"/>
<path d="M100.165 280.145C100.046 279.79 99.9341 279.433 99.8288 279.075C99.8265 278.28 99.7833 263.142 99.7688 257.828C99.6566 218.071 138.453 181.886 186.429 177.009C138.639 182.479 99.9917 219.143 100.105 258.9C100.12 264.211 100.163 279.351 100.165 280.145Z" fill="#D4DAE7"/>
<path d="M112.454 297.961C112.103 297.647 111.758 297.328 111.422 297.008C111.418 296.212 111.377 281.074 111.361 275.761C111.248 236.006 144.856 191.79 186.429 177.009C176.14 181.253 148.811 192.53 126.597 228.854C112.324 252.187 112.368 267.488 112.454 297.961Z" fill="#D4DAE7"/>
<path d="M123.038 284.525C123.052 289.836 123.095 304.974 123.097 305.772C122.652 305.502 122.21 305.232 121.777 304.956C121.774 304.16 121.731 289.022 121.717 283.712C121.604 243.954 150.576 196.182 186.43 177.009C151.305 196.632 122.925 244.771 123.038 284.525Z" fill="#D4DAE7"/>
<path d="M152.465 317.453C151.881 317.311 151.298 317.168 150.72 317.017C150.716 316.219 150.675 301.081 150.659 295.77C150.546 256.016 166.56 202.843 186.43 177.009C167.524 203.084 152.292 256.451 152.404 296.206C152.42 301.519 152.462 316.657 152.465 317.453Z" fill="#D4DAE7"/>
<path d="M137.74 312.88C137.203 312.674 136.668 312.462 136.135 312.247C136.134 311.451 136.091 296.313 136.075 291C135.964 251.242 158.507 200.21 186.43 177.011C159.392 200.559 137.568 251.878 137.68 291.636C137.696 296.946 137.738 312.087 137.74 312.88Z" fill="#D4DAE7"/>
<path d="M168.168 320.289C167.556 320.214 166.946 320.135 166.335 320.054C166.334 319.255 166.291 304.117 166.276 298.804C166.163 259.052 175.186 204.52 186.429 177.01C176.197 204.65 167.996 259.287 168.108 299.039C168.122 304.352 168.165 319.49 168.168 320.289Z" fill="#D4DAE7"/>
<path d="M184.403 321.379C183.779 321.37 183.155 321.359 182.53 321.341C182.528 320.545 182.485 305.407 182.471 300.097C182.358 260.339 184.13 205.232 186.429 177.01C185.163 205.252 184.231 260.377 184.342 300.129C184.358 305.442 184.401 320.58 184.403 321.379Z" fill="#D4DAE7"/>
<path d="M231.74 314.135C231.187 314.326 230.629 314.512 230.07 314.698C230.069 313.905 230.025 298.767 230.011 293.451C229.896 253.697 210.387 201.564 186.429 177.011C211.309 201.25 231.567 253.133 231.681 292.885C231.696 298.198 231.739 313.336 231.74 314.135Z" fill="#D4DAE7"/>
<path d="M200.71 320.717C200.092 320.778 199.473 320.831 198.853 320.883C198.851 320.084 198.807 304.949 198.793 299.636C198.681 259.881 193.145 204.977 186.429 177.011C194.171 204.887 200.538 259.715 200.65 299.473C200.665 304.783 200.709 319.921 200.71 320.717Z" fill="#D4DAE7"/>
<path d="M271.799 283.392C271.637 283.743 271.469 284.092 271.292 284.443C271.292 283.644 271.249 268.51 271.234 263.193C271.121 223.442 233.155 184.852 186.429 177.008C233.433 184.271 271.628 222.39 271.739 262.142C271.756 267.455 271.797 282.593 271.799 283.392Z" fill="#D4DAE7"/>
<path d="M216.64 318.305C216.047 318.43 215.449 318.552 214.853 318.668C214.849 317.872 214.807 302.734 214.793 297.424C214.679 257.666 201.98 203.756 186.429 177.009C202.969 203.552 216.467 257.3 216.581 297.058C216.594 302.371 216.638 317.509 216.64 318.305Z" fill="#D4DAE7"/>
<path d="M273.264 232.681L273.788 235.824C268.512 200.386 231.377 174.645 186.429 177.01C230.404 174.148 266.885 198.399 273.264 232.681Z" fill="#D4DAE7"/>
<path d="M257.283 300.745C256.892 301.05 256.495 301.349 256.089 301.651C256.089 300.852 256.042 285.715 256.031 280.401C255.918 240.647 224.757 194.356 186.429 177.01C225.416 193.856 257.112 239.74 257.222 279.498C257.24 284.811 257.28 299.949 257.283 300.745Z" fill="#D4DAE7"/>
<path d="M252.113 189.847L253.688 191.648C239.724 175.189 214.807 168.76 186.429 177.01C213.938 168.571 238.157 174.28 252.113 189.847Z" fill="#D4DAE7"/>
<path d="M225.023 169.501L226.47 170.222C216.031 164.859 201.929 166.689 186.429 177.011C201.325 166.631 214.894 164.537 225.023 169.501Z" fill="#D4DAE7"/>
<path d="M183.549 160.734L184.635 160.702C185.128 160.67 185.746 165.96 186.429 177.011C185.342 165.963 184.349 160.679 183.549 160.734Z" fill="#D4DAE7"/>
<path d="M202.808 162.175L203.545 162.317L203.958 162.396C199.066 161.411 192.993 166.097 186.429 177.011C192.556 166.076 198.226 161.309 202.808 162.175Z" fill="#D4DAE7"/>
<path d="M163.788 163.694L164.973 163.381C170.884 161.858 178.327 166.19 186.429 177.011C177.872 166.23 170.014 162.007 163.788 163.694Z" fill="#D4DAE7"/>
<path d="M139.884 174.132L141.436 173.182C152.85 166.32 168.78 167.055 186.429 177.011C168.101 167.131 151.583 166.753 139.884 174.132Z" fill="#D4DAE7"/>
<path d="M255.651 376.256L256.683 377.281C256.683 377.281 261.116 370.24 262.818 367.381L263.931 339.2L262.902 338.174C261.079 341.242 258.69 344.22 255.735 347.055C255.706 357.019 255.651 376.7 255.651 376.256Z" fill="white"/>
<path d="M223.004 393.795L224.035 394.82C224.035 394.82 233.597 390.184 237.419 388.386L238.531 360.207L237.5 359.586C237.5 359.586 228.135 363.522 223.087 364.992L223.004 393.795Z" fill="white"/>
<path d="M181.65 400.139C181.65 400.139 192.532 398.741 197.68 398.338L199.287 369.622L197.763 369.134C197.763 369.134 186.719 369.665 181.196 369.439L181.192 370.453L181.113 399.372L181.65 400.139Z" fill="white"/>
<path d="M141.49 390.998C141.49 390.998 150.312 393.531 155.382 394.771L156.495 366.59L155.463 365.571C150.279 364.298 145.272 362.698 140.54 360.769L140.458 389.842L141.49 390.998Z" fill="white"/>
<path d="M112.397 369.904C114.604 372.91 117.376 375.809 120.712 378.549L121.826 350.126C118.49 347.387 114.686 343.704 112.48 340.7L112.397 369.904Z" fill="white"/>
<path d="M255.671 328.227L256.704 329.253C259.397 326.586 261.134 322.217 262.838 319.353L263.911 305.772L262.879 304.747C261.058 307.814 258.669 310.792 255.715 313.627L255.671 328.227Z" fill="white"/>
<path d="M223.024 345.767L224.055 346.792C228.835 345.36 233.134 342.385 237.44 340.357L238.511 326.78L237.481 325.757C232.952 327.889 228.115 329.69 223.065 331.166L223.024 345.767Z" fill="white"/>
<path d="M181.135 350.614L182.166 351.637C182.166 351.637 192.47 350.719 197.701 350.309L198.774 336.731L197.743 335.706C192.252 336.139 186.698 336.237 181.176 336.014L181.135 350.614Z" fill="white"/>
<path d="M140.478 342.243L141.51 343.268C141.51 343.268 150.465 345.834 155.401 347.045L156.475 333.464L155.444 332.439C150.257 331.169 145.251 329.571 140.52 327.643L140.478 342.243Z" fill="white"/>
<path d="M112.418 322.034C114.624 325.043 117.397 327.942 120.733 330.682L120.774 316.7C117.438 313.961 114.665 310.048 112.459 307.041L112.418 322.034Z" fill="white"/>
<path d="M256.683 377.281C259.638 374.446 262.027 371.468 263.847 368.401L263.931 339.2C262.108 342.265 259.719 345.242 256.765 348.075L256.683 377.281Z" fill="#D3DDF3"/>
<path d="M257.504 348.393C259.693 346.266 261.594 344.035 263.186 341.729L263.111 368.199C261.592 370.717 259.684 373.169 257.425 375.502L257.504 348.393Z" fill="#192237"/>
<path d="M224.035 394.82C229.085 393.345 233.92 391.541 238.449 389.411L238.531 360.207C234.004 362.337 229.167 364.138 224.118 365.614L224.035 394.82Z" fill="#D3DDF3"/>
<path d="M224.855 366.168C229.406 364.814 233.749 363.199 237.791 361.363L237.713 388.94C233.683 390.808 229.339 392.449 224.775 393.826L224.855 366.168Z" fill="#192237"/>
<path d="M182.144 399.789C187.668 400.016 193.221 399.914 198.711 399.481L198.792 370.28C193.303 370.707 187.749 370.809 182.226 370.582L182.144 399.789Z" fill="#192237"/>
<path d="M182.639 399.192C184.375 399.256 186.131 399.291 187.87 399.291H187.872C191.32 399.291 194.799 399.16 198.22 398.904L198.299 370.688C194.88 370.944 191.402 371.072 187.952 371.072C186.214 371.072 184.455 371.04 182.718 370.976L182.639 399.192ZM187.872 400.275H187.87C185.96 400.275 184.028 400.238 182.125 400.159L181.65 400.139L181.651 399.665L181.735 370.459L181.736 369.947L182.248 369.968C184.137 370.049 186.057 370.084 187.952 370.084C191.555 370.084 195.19 369.944 198.755 369.666L199.287 369.622L199.285 370.159L199.204 399.36L199.202 399.819L198.75 399.851C195.16 400.133 191.498 400.275 187.872 400.275Z" fill="#D3DDF3"/>
<path d="M141.49 391.296C146.22 393.222 151.226 394.822 156.413 396.092L156.495 366.891C151.309 365.619 146.302 364.018 141.571 362.089L141.49 391.296Z" fill="#DBE1EC"/>
<path d="M155.546 394.979C150.937 393.8 146.509 392.368 142.36 390.709L142.438 363.376C146.599 365.006 151.026 366.418 155.624 367.571L155.546 394.979Z" fill="#192237"/>
<path d="M113.428 371.226C115.634 374.233 118.406 377.132 121.742 379.874L121.826 350.667C118.49 347.928 115.717 345.026 113.51 342.022L113.428 371.226Z" fill="#DBE1EC"/>
<path d="M120.879 377.993C118.334 375.756 116.125 373.389 114.299 370.937L114.373 344.536C116.265 346.814 118.468 349.007 120.954 351.076L120.879 377.993Z" fill="#192237"/>
<path d="M256.703 329.253C259.658 326.418 262.047 323.44 263.87 320.372L263.911 305.772C262.087 308.837 259.701 311.817 256.744 314.65L256.703 329.253Z" fill="#DBE1EC"/>
<path d="M257.614 315.02C259.681 313.01 261.496 310.898 263.032 308.722L263 320.133C261.539 322.55 259.721 324.903 257.579 327.143L257.614 315.02Z" fill="#192237"/>
<path d="M224.055 346.792C229.105 345.316 233.942 343.512 238.471 341.383L238.512 326.78C233.983 328.912 229.147 330.716 224.096 332.186L224.055 346.792Z" fill="#DBE1EC"/>
<path d="M224.966 332.839C229.418 331.512 233.671 329.934 237.639 328.142L237.601 340.825C233.653 342.655 229.396 344.264 224.929 345.621L224.966 332.839Z" fill="#192237"/>
<path d="M182.165 351.636C187.687 351.862 193.241 351.761 198.732 351.331L198.773 336.73C193.282 337.157 187.728 337.262 182.206 337.032L182.165 351.636Z" fill="#DBE1EC"/>
<path d="M187.889 350.885C186.277 350.885 184.65 350.853 183.038 350.801L183.073 337.94C184.69 337.995 186.321 338.024 187.934 338.024C191.254 338.024 194.602 337.905 197.9 337.67L197.864 350.525C194.565 350.763 191.213 350.885 187.889 350.885Z" fill="#192237"/>
<path d="M141.51 343.268C146.242 345.194 151.247 346.795 156.433 348.064L156.474 333.464C151.288 332.192 146.282 330.594 141.552 328.668L141.51 343.268Z" fill="#DBE1EC"/>
<path d="M155.567 346.952C150.956 345.773 146.529 344.341 142.381 342.682L142.417 329.949C146.577 331.579 151.005 332.991 155.603 334.144L155.567 346.952Z" fill="#192237"/>
<path d="M113.448 323.057C115.655 326.064 118.427 328.963 121.764 331.702L121.804 317.102C118.468 314.362 115.696 311.463 113.49 308.456L113.448 323.057Z" fill="#DBE1EC"/>
<path d="M120.898 329.826C118.355 327.589 116.147 325.222 114.319 322.77L114.353 310.973C116.243 313.247 118.448 315.441 120.935 317.512L120.898 329.826Z" fill="#192237"/>
<path fill-rule="evenodd" clip-rule="evenodd" d="M207.866 165.356C207.6 165.161 207.332 164.972 207.061 164.786C206.226 165.417 205.365 166.035 204.474 166.648L203.791 167.11C202.059 168.269 200.223 169.391 198.285 170.474C192.188 173.882 185.465 176.673 178.339 178.855L178.263 178.878C177.556 179.093 176.844 179.305 176.128 179.506V186.039C197.169 211.301 213.89 258.617 218.921 296.083L224.853 297.881C235.308 294.279 249.848 283.06 256.976 277.462C248.314 232.31 238.406 187.3 207.866 165.356Z" fill="#A4A6C5"/>
<path fill-rule="evenodd" clip-rule="evenodd" d="M263.607 276.712C252.247 288.672 237.481 293.764 224.853 297.881C222.923 283.507 219.261 267.489 214.222 251.677C210.9 241.245 206.98 230.901 202.558 221.181C195.238 205.081 186.555 190.681 176.966 180.398C176.683 180.095 176.403 179.799 176.123 179.506C186.402 175.442 197.925 170.77 208.486 163.679C208.759 163.851 209.03 164.034 209.299 164.214C239.21 184.232 255.799 235.987 263.607 276.712Z" fill="#DBE1EC"/>
<path d="M228.037 290.616C241.967 286.427 254.408 279.147 260.09 273.732L221.092 258.162C224.265 269.189 226.639 280.205 228.037 290.616Z" fill="#D3DDF3"/>
<path d="M209.65 170.226C198.882 174.88 190.84 179.054 183.514 182.433L183.439 182.456C183.693 182.752 183.946 183.051 184.199 183.354C199.726 201.853 213.003 230.048 221.091 258.163L260.09 273.733C252.519 239.019 237.017 192.684 209.65 170.226Z" fill="#A4A6C5"/>
<path fill-rule="evenodd" clip-rule="evenodd" d="M255.086 271.735C249.666 275.823 240.044 280.848 227.225 285.168C225.436 273.963 222.486 261.832 218.566 249.692C215.241 239.385 211.219 229.076 206.614 219.329C199.996 205.31 192.181 192.447 183.514 182.433C191.485 178.218 194.65 176.161 205.688 171.97C205.941 172.185 235.214 189.969 255.086 271.735Z" fill="#23262C"/>
<path d="M247.345 231.244C246.652 238.588 241.243 241.106 235.262 236.874C229.28 232.641 224.992 223.258 225.683 215.92C226.376 208.579 231.785 206.061 237.765 210.293C243.746 214.526 248.036 223.906 247.345 231.244Z" fill="#DBE1EC"/>
<path d="M245.382 231.061C245.036 234.75 243.332 236.955 240.83 236.955C239.493 236.955 237.963 236.368 236.397 235.261C235.676 234.75 234.979 234.152 234.316 233.478C230.037 229.149 227.107 221.806 227.644 216.106C227.991 212.414 229.693 210.209 232.196 210.209C233.285 210.209 234.505 210.598 235.765 211.345C236.053 211.51 236.342 211.699 236.632 211.903C241.996 215.699 246.003 224.472 245.382 231.061Z" fill="#A4A6C5"/>
<path d="M242.442 228.718C242.096 232.41 240.392 234.612 237.889 234.612C236.798 234.612 235.575 234.223 234.316 233.476C230.037 229.148 227.107 221.804 227.644 216.105C227.991 212.412 229.693 210.208 232.196 210.208C233.285 210.208 234.505 210.597 235.765 211.343C240.044 215.672 242.979 223.016 242.442 228.718Z" fill="#2F2A69"/>
<path d="M243.245 238.419L218.566 249.693C215.241 239.386 211.218 229.077 206.614 219.33L229.782 208.745C227.574 209.753 226.031 212.225 225.683 215.917C224.991 223.258 229.279 232.644 235.262 236.874C238.234 238.977 241.064 239.413 243.245 238.419Z" fill="#D3DDF3"/>
<path d="M74.7982 299.086L48.342 283.887L48.3159 316.394L74.6985 331.273L74.7982 299.086Z" fill="#192237"/>
<path d="M47.9346 298.915L48.7081 298.464L49.0001 298.633L48.2266 299.083L47.9346 298.915Z" fill="#F4F4F4"/>
<path d="M48.2262 299.082L48.9997 298.632L48.9635 315.443L48.19 315.894L48.2262 299.082Z" fill="#C1C0C6"/>
<path d="M47.9358 298.244L48.709 297.794L48.7081 298.465L47.9346 298.915L47.9358 298.244Z" fill="#C1C0C6"/>
<path d="M47.9357 298.244L48.7089 297.793L49.0023 297.959L48.2277 298.412L47.9357 298.244Z" fill="#F4F4F4"/>
<path d="M48.19 315.893L48.9635 315.443L61.6521 322.784L60.8774 323.234L48.19 315.893Z" fill="#F4F4F4"/>
<path d="M60.8776 323.235L61.6522 322.785L61.6511 323.122L60.8764 323.572L60.8776 323.235Z" fill="#C1C0C6"/>
<path d="M60.8764 323.571L61.6511 323.121L62.2344 323.461L61.462 323.908L60.8764 323.571Z" fill="#F4F4F4"/>
<path d="M61.4619 323.574L62.2354 323.121L62.2343 323.461L61.4619 323.908V323.574Z" fill="#C1C0C6"/>
<path d="M48.2503 284.401L49.025 283.951L49.0024 297.959L48.2277 298.412L48.2503 284.401Z" fill="#C1C0C6"/>
<path d="M61.4982 306.764L62.2728 306.311L62.2354 323.122L61.4619 323.575L61.4982 306.764Z" fill="#C1C0C6"/>
<path d="M48.2277 298.412L49.0024 297.959L61.6909 305.303L60.9163 305.753L48.2277 298.412Z" fill="#F4F4F4"/>
<path d="M60.9163 305.753L61.6909 305.303L61.6898 305.974L60.9151 306.424L60.9163 305.753Z" fill="#C1C0C6"/>
<path d="M61.4992 306.091L62.2739 305.64L62.2727 306.311L61.498 306.765L61.4992 306.091Z" fill="#C1C0C6"/>
<path d="M61.4619 323.575L62.2354 323.122L74.9237 330.463L74.1502 330.913L61.4619 323.575Z" fill="#F4F4F4"/>
<path d="M60.9408 291.402L61.7143 290.952L61.7131 291.289L60.9385 291.742L60.9408 291.402Z" fill="#C1C0C6"/>
<path d="M61.5246 292.078L62.2969 291.628L62.2743 305.639L61.4996 306.089L61.5246 292.078Z" fill="#C1C0C6"/>
<path d="M60.9412 291.402L61.7147 290.952L62.298 291.289L61.5245 291.742L60.9412 291.402Z" fill="#F4F4F4"/>
<path d="M61.5246 291.741L62.2981 291.288L62.2969 291.628L61.5246 292.078V291.741Z" fill="#C1C0C6"/>
<path d="M74.1865 314.102L74.96 313.652L75.2534 313.82L74.4788 314.271L74.1865 314.102Z" fill="#F4F4F4"/>
<path d="M61.4996 306.09L62.2743 305.639L74.9637 312.977L74.1891 313.428L61.4996 306.09Z" fill="#F4F4F4"/>
<path d="M74.1886 313.429L74.9633 312.979L75.2555 313.15L74.482 313.601L74.1886 313.429Z" fill="#F4F4F4"/>
<path d="M74.4826 313.599L75.2561 313.149L75.2538 313.82L74.4791 314.271L74.4826 313.599Z" fill="#C1C0C6"/>
<path d="M74.1501 330.914L61.4618 323.576L61.498 306.765L61.4992 306.091L61.5241 292.08L74.2112 299.421L74.1886 313.429L61.4992 306.091L61.498 306.765L74.1875 314.103L74.1501 330.914ZM48.2261 299.084L60.9147 306.425L60.8773 323.236L48.1899 315.895L48.2261 299.084ZM48.2499 284.402L60.9385 291.743L60.9159 305.754L48.2273 298.413L48.2499 284.402ZM47.6692 283.394L47.6034 316.232L74.7322 331.928L74.798 299.087L47.6692 283.394Z" fill="#E9E8E7"/>
<path d="M47.6693 283.392L48.4428 282.939L75.5705 298.635L74.7981 299.085L47.6693 283.392Z" fill="#F4F4F4"/>
<path d="M74.7981 299.087L75.5705 298.637L75.5058 331.475L74.7323 331.928L74.7981 299.087Z" fill="#C1C0C6"/>
<defs>
<linearGradient id="paint0_linear_102_5601" x1="5.66134" y1="52.2739" x2="537.72" y2="321.289" gradientUnits="userSpaceOnUse">
<stop stop-color="#B6FCFF"/>
<stop offset="0.398767" stop-color="#3D7AAA"/>
<stop offset="0.552083" stop-color="#2E548C"/>
<stop offset="0.786458" stop-color="#232959"/>
<stop offset="1" stop-color="#070C36"/>
</linearGradient>
</defs>
</svg>
