<svg width="500" height="500" viewBox="0 0 500 500" fill="none" xmlns="http://www.w3.org/2000/svg">
<g clip-path="url(#clip0_38_390)">
<path fill-rule="evenodd" clip-rule="evenodd" d="M239.916 35.0215C287.097 33.4476 284.987 118.87 325.061 143.823C371.004 172.433 445.499 140.552 478.4 183.527C510.228 225.099 491.226 287.683 472.683 336.646C454.741 384.024 426.057 436.142 377.395 450.239C329.799 464.028 289.238 408.855 239.916 404.08C198.663 400.086 160.128 437.526 120.505 425.369C74.6546 411.302 19.27 382.204 13.4475 334.599C7.41013 285.238 63.9297 252.93 94.6293 213.808C113.813 189.362 139.204 173.485 158.801 149.369C189.012 112.192 192.038 36.6185 239.916 35.0215Z" fill="#C4C4C4"/>
<path fill-rule="evenodd" clip-rule="evenodd" d="M239.916 35.0215C287.097 33.4476 284.987 118.87 325.061 143.823C371.004 172.433 445.499 140.552 478.4 183.527C510.228 225.099 491.226 287.683 472.683 336.646C454.741 384.024 426.057 436.142 377.395 450.239C329.799 464.028 289.238 408.855 239.916 404.08C198.663 400.086 160.128 437.526 120.505 425.369C74.6546 411.302 19.27 382.204 13.4475 334.599C7.41013 285.238 63.9297 252.93 94.6293 213.808C113.813 189.362 139.204 173.485 158.801 149.369C189.012 112.192 192.038 36.6185 239.916 35.0215Z" fill="url(#paint0_linear_38_390)"/>
<mask id="mask0_38_390" style="mask-type:alpha" maskUnits="userSpaceOnUse" x="13" y="35" width="483" height="418">
<path fill-rule="evenodd" clip-rule="evenodd" d="M239.916 35.0215C287.097 33.4476 284.987 118.87 325.061 143.823C371.004 172.433 445.499 140.552 478.4 183.527C510.228 225.099 491.226 287.683 472.683 336.646C454.741 384.024 426.057 436.142 377.395 450.239C329.799 464.028 289.238 408.855 239.916 404.08C198.663 400.086 160.128 437.526 120.505 425.369C74.6546 411.302 19.27 382.204 13.4475 334.599C7.41013 285.238 63.9297 252.93 94.6293 213.808C113.813 189.362 139.204 173.485 158.801 149.369C189.012 112.192 192.038 36.6185 239.916 35.0215Z" fill="#2C1D89"/>
</mask>
<g mask="url(#mask0_38_390)">
<g style="mix-blend-mode:overlay">
<path opacity="0.5" d="M23.5807 468.593C14.909 468.593 6.32215 466.885 -1.68947 463.566C-9.70109 460.248 -16.9806 455.384 -23.1125 449.252C-29.2443 443.12 -34.1083 435.841 -37.4268 427.829C-40.7454 419.817 -42.4534 411.231 -42.4534 402.559C-42.4534 393.887 -40.7454 385.3 -37.4268 377.289C-34.1083 369.277 -29.2443 361.998 -23.1125 355.866C-16.9806 349.734 -9.70108 344.87 -1.68946 341.551C6.32217 338.233 14.909 336.525 23.5807 336.525L23.5807 370.589C19.3823 370.589 15.225 371.416 11.3462 373.022C7.46737 374.629 3.94299 376.984 0.974272 379.953C-1.99445 382.921 -4.34936 386.446 -5.95602 390.324C-7.56268 394.203 -8.38961 398.361 -8.38961 402.559C-8.38961 406.757 -7.56268 410.915 -5.95602 414.793C-4.34936 418.672 -1.99445 422.197 0.97427 425.165C3.94298 428.134 7.46736 430.489 11.3462 432.096C15.225 433.702 19.3823 434.529 23.5807 434.529L23.5807 468.593Z" fill="white" fill-opacity="0.6"/>
<path opacity="0.5" d="M365.531 35.2674C374.202 35.2674 382.789 36.9755 390.801 40.294C398.812 43.6125 406.092 48.4765 412.224 54.6084C418.356 60.7402 423.22 68.0197 426.538 76.0313C429.857 84.0429 431.565 92.6297 431.565 101.301C431.565 109.973 429.857 118.56 426.538 126.572C423.22 134.583 418.356 141.863 412.224 147.995C406.092 154.126 398.812 158.99 390.801 162.309C382.789 165.627 374.202 167.335 365.531 167.335L365.531 133.272C369.729 133.272 373.886 132.445 377.765 130.838C381.644 129.231 385.168 126.877 388.137 123.908C391.106 120.939 393.461 117.415 395.067 113.536C396.674 109.657 397.501 105.5 397.501 101.301C397.501 97.1031 396.674 92.9458 395.067 89.067C393.461 85.1881 391.106 81.6638 388.137 78.6951C385.168 75.7263 381.644 73.3714 377.765 71.7648C373.886 70.1581 369.729 69.3312 365.531 69.3312L365.531 35.2674Z" fill="white" fill-opacity="0.6"/>
<path opacity="0.5" d="M28.9358 370.791C33.9983 370.791 39.0111 369.793 43.6881 367.856C48.3652 365.919 52.6149 363.079 56.1945 359.5C59.7742 355.92 62.6138 351.67 64.5511 346.993C66.4884 342.316 67.4855 337.303 67.4855 332.241C67.4855 327.179 66.4884 322.166 64.5511 317.489C62.6138 312.812 59.7742 308.562 56.1945 304.982C52.6149 301.403 48.3652 298.563 43.6882 296.626C39.0111 294.689 33.9983 293.691 28.9358 293.691L28.9358 297.741C33.4665 297.741 37.9528 298.633 42.1385 300.367C46.3243 302.101 50.1276 304.642 53.3312 307.846C56.5349 311.049 59.0761 314.853 60.8099 319.038C62.5438 323.224 63.4361 327.71 63.4361 332.241C63.4361 336.772 62.5438 341.258 60.8099 345.444C59.0761 349.629 56.5349 353.433 53.3312 356.636C50.1276 359.84 46.3243 362.381 42.1385 364.115C37.9528 365.849 33.4665 366.741 28.9358 366.741L28.9358 370.791Z" fill="white" fill-opacity="0.25"/>
<path opacity="0.5" d="M359.463 133.069C354.4 133.069 349.387 134.066 344.71 136.004C340.033 137.941 335.784 140.781 332.204 144.36C328.624 147.94 325.785 152.19 323.847 156.867C321.91 161.544 320.913 166.556 320.913 171.619C320.913 176.681 321.91 181.694 323.847 186.371C325.785 191.048 328.624 195.298 332.204 198.878C335.784 202.457 340.033 205.297 344.71 207.234C349.387 209.171 354.4 210.168 359.463 210.168L359.463 206.119C354.932 206.119 350.446 205.227 346.26 203.493C342.074 201.759 338.271 199.218 335.067 196.014C331.864 192.811 329.322 189.007 327.588 184.822C325.855 180.636 324.962 176.15 324.962 171.619C324.962 167.088 325.855 162.602 327.588 158.416C329.322 154.23 331.864 150.427 335.067 147.224C338.271 144.02 342.074 141.479 346.26 139.745C350.446 138.011 354.932 137.119 359.463 137.119L359.463 133.069Z" fill="white" fill-opacity="0.25"/>
<path opacity="0.5" d="M26.0807 350.802C31.1927 350.802 36.0953 348.809 39.71 345.261C43.3247 341.713 45.3555 336.901 45.3555 331.884C45.3555 326.867 43.3247 322.055 39.71 318.507C36.0953 314.959 31.1927 312.966 26.0807 312.966L26.0807 326.856C27.4394 326.856 28.7424 327.386 29.7032 328.329C30.6639 329.272 31.2037 330.551 31.2037 331.884C31.2037 333.218 30.6639 334.497 29.7032 335.44C28.7424 336.383 27.4394 336.912 26.0807 336.912L26.0807 350.802Z" fill="white" fill-opacity="0.5"/>
<path opacity="0.5" d="M362.676 153.058C357.658 153.058 352.847 155.051 349.299 158.599C345.751 162.147 343.758 166.958 343.758 171.976C343.758 176.993 345.751 181.805 349.299 185.353C352.847 188.9 357.658 190.894 362.676 190.894L362.676 177.004C361.342 177.004 360.063 176.474 359.12 175.531C358.177 174.588 357.648 173.309 357.648 171.976C357.648 170.642 358.177 169.363 359.12 168.42C360.063 167.477 361.342 166.948 362.676 166.948L362.676 153.058Z" fill="white" fill-opacity="0.5"/>
<path opacity="0.5" fill-rule="evenodd" clip-rule="evenodd" d="M32.3353 141.092C44.786 153.543 51.7808 170.43 51.7808 188.038L33.2265 188.038C33.3282 182.397 32.4306 176.776 30.5683 171.436C28.4096 165.246 25.0009 159.567 20.5541 154.751C16.1073 149.935 10.7176 146.086 4.72009 143.443C-1.27743 140.8 -7.75446 139.42 -14.3082 139.387C-20.8619 139.355 -27.3522 140.672 -33.3754 143.256C-39.3986 145.84 -44.8259 149.636 -49.3198 154.407C-53.8137 159.179 -57.2781 164.825 -59.4975 170.993C-61.4654 176.462 -62.4171 182.238 -62.3126 188.038L-81.0013 188.038C-81.0012 170.43 -74.0065 153.543 -61.5558 141.092C-49.105 128.641 -32.2182 121.647 -14.6102 121.647C2.99774 121.647 19.8846 128.641 32.3353 141.092ZM-27.2915 188.038L-14.6103 188.038L-1.79458 188.038C-1.79458 186.363 -2.12433 184.705 -2.765 183.158C-3.40567 181.611 -4.34471 180.205 -5.52851 179.021C-6.71232 177.837 -8.1177 176.897 -9.66442 176.257C-11.2111 175.616 -12.8689 175.286 -14.5431 175.286C-16.2172 175.286 -17.875 175.616 -19.4217 176.257C-20.9684 176.897 -22.3738 177.837 -23.5576 179.021C-24.7414 180.205 -25.6804 181.611 -26.3211 183.158C-26.9618 184.705 -27.2915 186.363 -27.2915 188.038Z" fill="white" fill-opacity="0.4"/>
<path opacity="0.5" fill-rule="evenodd" clip-rule="evenodd" d="M356.673 362.768C344.289 350.318 337.332 333.431 337.332 315.823L355.787 315.823C355.685 321.463 356.578 327.085 358.43 332.425C360.578 338.614 363.968 344.294 368.391 349.109C372.814 353.925 378.174 357.774 384.14 360.417C390.105 363.06 396.547 364.441 403.066 364.473C409.584 364.505 416.04 363.188 422.03 360.604C428.021 358.02 433.419 354.225 437.889 349.453C442.359 344.681 445.805 339.036 448.012 332.868C449.969 327.398 450.916 321.622 450.812 315.823L469.4 315.823C469.4 333.431 462.443 350.318 450.059 362.768C437.675 375.219 420.879 382.214 403.366 382.214C385.853 382.214 369.057 375.219 356.673 362.768ZM415.979 315.823L403.366 315.823L390.619 315.823C390.619 317.497 390.947 319.156 391.585 320.703C392.222 322.25 393.156 323.656 394.333 324.84C395.511 326.024 396.908 326.963 398.447 327.604C399.985 328.245 401.634 328.575 403.299 328.575C404.964 328.575 406.613 328.245 408.152 327.604C409.69 326.963 411.088 326.024 412.265 324.84C413.443 323.656 414.377 322.25 415.014 320.703C415.651 319.156 415.979 317.497 415.979 315.823Z" fill="white" fill-opacity="0.4"/>
<path opacity="0.5" fill-rule="evenodd" clip-rule="evenodd" d="M23.2246 297.969L23.2246 270.497C21.9223 270.497 20.6327 270.239 19.4295 269.736C18.2263 269.233 17.1331 268.497 16.2122 267.568C15.2913 266.639 14.5608 265.537 14.0624 264.324C13.564 263.11 13.3075 261.81 13.3075 260.497C13.3075 259.183 13.564 257.883 14.0624 256.67C14.5608 255.456 15.2913 254.354 16.2122 253.425C17.1331 252.497 18.2263 251.76 19.4295 251.257C20.6327 250.755 21.9223 250.496 23.2246 250.496L23.2246 223.024C18.838 222.944 14.4663 223.649 10.3134 225.109C5.49965 226.803 1.08286 229.477 -2.66229 232.965C-6.40744 236.453 -9.40086 240.681 -11.4564 245.386C-13.5119 250.091 -14.5856 255.172 -14.6107 260.313C-14.6357 265.454 -13.6116 270.545 -11.6021 275.27C-9.59251 279.995 -6.64045 284.252 -2.92948 287.777C0.781484 291.303 5.17199 294.02 9.96899 295.761C14.2223 297.305 18.7146 298.051 23.2246 297.969Z" fill="white" fill-opacity="0.4"/>
<path opacity="0.5" fill-rule="evenodd" clip-rule="evenodd" d="M365.174 206.605L365.174 233.816C366.476 233.816 367.766 234.072 368.969 234.57C370.172 235.068 371.265 235.797 372.186 236.717C373.107 237.637 373.838 238.729 374.336 239.931C374.834 241.132 375.091 242.42 375.091 243.721C375.091 245.022 374.834 246.31 374.336 247.512C373.838 248.713 373.107 249.805 372.186 250.725C371.265 251.645 370.172 252.375 368.969 252.872C367.766 253.37 366.476 253.626 365.174 253.626L365.174 280.837C369.56 280.916 373.932 280.218 378.085 278.771C382.899 277.094 387.316 274.446 391.061 270.991C394.806 267.536 397.799 263.348 399.855 258.688C401.91 254.028 402.984 248.996 403.009 243.903C403.034 238.811 402.01 233.769 400.001 229.089C397.991 224.409 395.039 220.192 391.328 216.7C387.617 213.209 383.226 210.517 378.429 208.792C374.176 207.263 369.684 206.524 365.174 206.605Z" fill="white" fill-opacity="0.4"/>
<path opacity="0.5" fill-rule="evenodd" clip-rule="evenodd" d="M23.2246 208.21L23.2246 193.749C14.506 193.749 5.8728 195.466 -2.18212 198.803C-10.237 202.139 -17.5559 207.03 -23.7209 213.194C-29.8859 219.359 -34.7762 226.678 -38.1127 234.733C-41.4491 242.788 -43.1664 251.421 -43.1664 260.14C-43.1664 268.859 -41.4491 277.492 -38.1127 285.547C-34.7762 293.602 -29.8859 300.92 -23.7209 307.085C-17.5559 313.25 -10.2371 318.141 -2.18213 321.477C5.87279 324.814 14.506 326.531 23.2246 326.531L23.2246 312.071C17.012 312.151 10.8278 311.115 4.96814 309.006C-1.73506 306.594 -7.87023 302.828 -13.0558 297.943C-18.2414 293.058 -22.3666 287.159 -25.1747 280.611C-27.9828 274.064 -29.4138 267.009 -29.3788 259.885C-29.3438 252.761 -27.8434 245.72 -24.9711 239.201C-22.0988 232.681 -17.9158 226.823 -12.6825 221.989C-7.44909 217.155 -1.27719 213.45 5.4494 211.103C11.1684 209.108 17.1844 208.132 23.2246 208.21Z" fill="white" fill-opacity="0.25"/>
<path opacity="0.5" fill-rule="evenodd" clip-rule="evenodd" d="M365.173 295.651L365.173 310.111C373.892 310.111 382.525 308.394 390.58 305.058C398.635 301.721 405.954 296.831 412.119 290.666C418.284 284.501 423.174 277.182 426.511 269.127C429.847 261.072 431.564 252.439 431.564 243.72C431.564 235.002 429.847 226.369 426.511 218.314C423.174 210.259 418.284 202.94 412.119 196.775C405.954 190.61 398.635 185.72 390.58 182.383C382.525 179.047 373.892 177.329 365.173 177.329L365.173 191.79C371.386 191.71 377.57 192.745 383.43 194.854C390.133 197.266 396.268 201.032 401.454 205.917C406.639 210.802 410.765 216.702 413.573 223.249C416.381 229.796 417.812 236.852 417.777 243.976C417.742 251.1 416.241 258.14 413.369 264.66C410.497 271.179 406.314 277.038 401.08 281.872C395.847 286.705 389.675 290.411 382.949 292.757C377.23 294.752 371.214 295.729 365.173 295.651Z" fill="white" fill-opacity="0.25"/>
<path opacity="0.5" d="M96.7551 407.914C96.7551 415.882 95.1024 423.773 91.8915 431.135C88.6806 438.497 83.9744 445.186 78.0414 450.821C72.1084 456.456 65.065 460.925 57.3132 463.975C49.5614 467.024 41.2531 468.594 32.8626 468.594L32.8626 451.307C38.8628 451.307 44.8043 450.185 50.3478 448.004C55.8913 445.824 60.9282 442.627 65.171 438.598C69.4138 434.568 72.7794 429.785 75.0756 424.52C77.3718 419.255 78.5536 413.612 78.5536 407.914L96.7551 407.914Z" fill="white" fill-opacity="0.3"/>
<path opacity="0.5" d="M291.645 95.9475C291.645 87.9789 293.298 80.0884 296.509 72.7264C299.72 65.3643 304.426 58.675 310.359 53.0404C316.292 47.4057 323.335 42.9361 331.087 39.8867C338.839 36.8372 347.147 35.2677 355.538 35.2677L355.538 52.554C349.538 52.554 343.596 53.6764 338.053 55.8571C332.509 58.0378 327.472 61.2342 323.229 65.2636C318.987 69.2931 315.621 74.0768 313.325 79.3415C311.029 84.6063 309.847 90.249 309.847 95.9475L291.645 95.9475Z" fill="white" fill-opacity="0.3"/>
<path opacity="0.5" d="M73.1969 407.555C73.1969 412.571 72.209 417.537 70.2896 422.171C68.3703 426.805 65.557 431.015 62.0105 434.562C58.464 438.108 54.2537 440.921 49.6199 442.841C44.9862 444.76 40.0197 445.748 35.0042 445.748L35.0042 434.281C38.5139 434.281 41.9891 433.59 45.2316 432.247C48.4741 430.904 51.4203 428.935 53.902 426.453C56.3837 423.972 58.3523 421.025 59.6954 417.783C61.0385 414.54 61.7298 411.065 61.7298 407.555L73.1969 407.555Z" fill="white" fill-opacity="0.7"/>
<path opacity="0.5" d="M315.917 96.3034C315.917 91.2879 316.896 86.3215 318.797 81.6878C320.699 77.054 323.486 72.8437 326.999 69.2972C330.513 65.7507 334.684 62.9374 339.274 61.0181C343.864 59.0987 348.784 58.1108 353.753 58.1108L353.753 69.5779C350.276 69.5779 346.833 70.2692 343.621 71.6123C340.409 72.9553 337.49 74.9239 335.032 77.4056C332.573 79.8873 330.623 82.8335 329.293 86.076C327.962 89.3185 327.277 92.7938 327.277 96.3034L315.917 96.3034Z" fill="white" fill-opacity="0.7"/>
<path opacity="0.5" d="M82.4771 403.273C82.4771 397.132 83.6866 391.052 86.0364 385.379C88.3863 379.705 91.8306 374.551 96.1726 370.209C100.515 365.867 105.669 362.423 111.342 360.073C117.015 357.723 123.096 356.513 129.236 356.513C135.377 356.513 141.457 357.723 147.13 360.073C152.803 362.423 157.958 365.867 162.3 370.209C166.642 374.551 170.086 379.705 172.436 385.379C174.786 391.052 175.996 397.132 175.996 403.273L142.113 403.273C142.113 401.582 141.78 399.907 141.133 398.345C140.486 396.783 139.537 395.363 138.342 394.167C137.146 392.972 135.726 392.023 134.164 391.376C132.602 390.729 130.927 390.396 129.236 390.396C127.545 390.396 125.871 390.729 124.309 391.376C122.746 392.023 121.327 392.972 120.131 394.167C118.935 395.363 117.987 396.783 117.34 398.345C116.693 399.907 116.36 401.582 116.36 403.273L82.4771 403.273Z" fill="white" fill-opacity="0.25"/>
<path opacity="0.5" d="M306.637 100.588C306.637 106.728 305.418 112.809 303.05 118.482C300.682 124.155 297.212 129.31 292.837 133.652C288.462 137.994 283.267 141.438 277.551 143.788C271.835 146.138 265.708 147.347 259.52 147.347C253.333 147.347 247.206 146.138 241.49 143.788C235.774 141.438 230.579 137.994 226.204 133.652C221.829 129.31 218.359 124.155 215.991 118.482C213.623 112.809 212.404 106.728 212.404 100.588L246.546 100.588C246.546 102.279 246.881 103.953 247.533 105.515C248.185 107.078 249.141 108.497 250.346 109.693C251.551 110.889 252.981 111.837 254.555 112.484C256.129 113.131 257.817 113.464 259.52 113.464C261.224 113.464 262.912 113.131 264.486 112.484C266.06 111.837 267.49 110.889 268.695 109.693C269.9 108.497 270.856 107.078 271.508 105.515C272.16 103.953 272.495 102.279 272.495 100.588L306.637 100.588Z" fill="white" fill-opacity="0.25"/>
<path opacity="0.5" d="M141.729 100.945C141.729 105.726 140.787 110.46 138.957 114.877C137.127 119.294 134.446 123.308 131.065 126.689C127.684 130.07 123.671 132.751 119.253 134.581C114.836 136.411 110.102 137.352 105.321 137.352C100.539 137.352 95.8051 136.411 91.3878 134.581C86.9706 132.751 82.957 130.07 79.5762 126.689C76.1955 123.308 73.5137 119.294 71.684 114.877C69.8543 110.46 68.9126 105.726 68.9126 100.945L95.2945 100.945C95.2945 102.261 95.5538 103.565 96.0577 104.781C96.5615 105.998 97.3 107.103 98.2311 108.034C99.1621 108.965 100.267 109.704 101.484 110.207C102.7 110.711 104.004 110.971 105.321 110.971C106.637 110.971 107.941 110.711 109.157 110.207C110.374 109.704 111.479 108.965 112.41 108.034C113.341 107.103 114.08 105.998 114.583 104.781C115.087 103.565 115.347 102.261 115.347 100.945L141.729 100.945Z" fill="white" fill-opacity="0.25"/>
<path opacity="0.5" d="M235.962 402.916C235.962 395.715 238.119 388.676 242.158 382.689C246.198 376.701 251.94 372.035 258.658 369.279C265.376 366.524 272.768 365.803 279.9 367.207C287.031 368.612 293.582 372.08 298.724 377.172C303.866 382.263 307.367 388.751 308.786 395.813C310.204 402.875 309.476 410.196 306.694 416.849C303.911 423.501 299.199 429.187 293.153 433.188C287.107 437.188 279.999 439.324 272.727 439.324L272.727 412.942C274.73 412.942 276.687 412.354 278.352 411.252C280.017 410.151 281.315 408.585 282.081 406.753C282.847 404.921 283.048 402.905 282.657 400.96C282.266 399.015 281.302 397.228 279.886 395.826C278.47 394.424 276.666 393.469 274.702 393.082C272.739 392.696 270.703 392.894 268.853 393.653C267.003 394.412 265.422 395.697 264.309 397.346C263.197 398.994 262.603 400.933 262.603 402.916L235.962 402.916Z" fill="white" fill-opacity="0.25"/>
<path opacity="0.5" fill-rule="evenodd" clip-rule="evenodd" d="M101.375 197.297L101.375 197.297L88.6161 197.297C88.6161 198.964 88.9444 200.615 89.5822 202.155C90.2201 203.695 91.1549 205.095 92.3334 206.273C93.512 207.452 94.9111 208.387 96.4509 209.025C97.9908 209.663 99.6412 209.992 101.308 209.992C101.33 209.992 101.353 209.992 101.375 209.991L101.375 197.297ZM101.375 245.731C101.275 245.731 101.174 245.731 101.074 245.73C94.5495 245.698 88.1013 244.324 82.1305 241.693C76.1596 239.061 70.7939 235.229 66.3669 230.435C61.9399 225.641 58.5464 219.987 56.3973 213.825C54.5433 208.508 53.6497 202.912 53.7509 197.297L35.2793 197.297C35.2793 214.826 42.2429 231.638 54.6382 244.033C67.0335 256.428 83.8451 263.392 101.375 263.392C101.375 263.392 101.375 263.392 101.375 263.392L101.375 245.731Z" fill="white" fill-opacity="0.25"/>
<path opacity="0.5" fill-rule="evenodd" clip-rule="evenodd" d="M287.153 306.651L287.153 306.651L299.912 306.651C299.912 304.984 299.583 303.333 298.946 301.793C298.308 300.253 297.373 298.853 296.194 297.674C295.016 296.496 293.617 295.56 292.077 294.922C290.537 294.284 288.887 293.956 287.22 293.956C287.198 293.956 287.175 293.956 287.153 293.956L287.153 306.651ZM287.153 258.217C287.253 258.217 287.353 258.217 287.454 258.217C293.978 258.249 300.427 259.624 306.397 262.255C312.368 264.887 317.734 268.718 322.161 273.513C326.588 278.307 329.981 283.961 332.131 290.123C333.985 295.439 334.878 301.036 334.777 306.651L353.249 306.651C353.249 289.121 346.285 272.31 333.89 259.915C321.494 247.519 304.683 240.556 287.153 240.556C287.153 240.556 287.153 240.556 287.153 240.556L287.153 258.217Z" fill="white" fill-opacity="0.25"/>
<path opacity="0.5" fill-rule="evenodd" clip-rule="evenodd" d="M120.866 197.065C120.877 197.273 120.882 197.482 120.882 197.69C120.882 199.385 120.548 201.064 119.899 202.63C119.25 204.196 118.299 205.619 117.101 206.817C115.902 208.016 114.479 208.967 112.913 209.615C111.347 210.264 109.668 210.598 107.973 210.598L107.973 244.562C114.129 244.562 120.224 243.349 125.911 240.994C131.599 238.638 136.766 235.186 141.119 230.834C145.472 226.481 148.924 221.314 151.28 215.627C153.636 209.941 154.848 203.846 154.848 197.69C154.848 197.482 154.847 197.273 154.844 197.065L120.866 197.065Z" fill="white" fill-opacity="0.25"/>
<path opacity="0.5" fill-rule="evenodd" clip-rule="evenodd" d="M267.664 306.882C267.654 306.667 267.648 306.452 267.648 306.237C267.648 304.542 267.982 302.863 268.631 301.297C269.279 299.731 270.23 298.308 271.429 297.11C272.628 295.911 274.051 294.961 275.617 294.312C277.183 293.663 278.862 293.329 280.557 293.329L280.557 259.365C274.401 259.365 268.306 260.578 262.618 262.933C256.931 265.289 251.764 268.741 247.411 273.094C243.058 277.446 239.605 282.613 237.25 288.3C234.894 293.987 233.682 300.082 233.682 306.237C233.682 306.452 233.683 306.667 233.686 306.882L267.664 306.882Z" fill="white" fill-opacity="0.25"/>
<path opacity="0.5" d="M101.395 235.868C96.3797 235.868 91.4133 234.88 86.7795 232.961C82.1458 231.042 77.9354 228.228 74.3889 224.682C70.8424 221.135 68.0291 216.925 66.1098 212.291C64.1904 207.657 63.2025 202.691 63.2025 197.676C63.2025 192.66 64.1904 187.694 66.1098 183.06C68.0291 178.426 70.8424 174.216 74.3889 170.669C77.9354 167.123 82.1458 164.31 86.7795 162.39C91.4133 160.471 96.3797 159.483 101.395 159.483L101.395 180.08C99.0845 180.08 96.7964 180.535 94.6616 181.419C92.5268 182.304 90.5871 183.6 88.9532 185.234C87.3193 186.867 86.0232 188.807 85.1389 190.942C84.2546 193.077 83.7995 195.365 83.7995 197.676C83.7995 199.986 84.2546 202.274 85.1389 204.409C86.0232 206.544 87.3193 208.484 88.9532 210.118C90.5871 211.751 92.5268 213.048 94.6616 213.932C96.7964 214.816 99.0845 215.271 101.395 215.271L101.395 235.868Z" fill="white" fill-opacity="0.25"/>
<path opacity="0.5" d="M287.361 267.992C292.424 267.992 297.436 268.98 302.113 270.899C306.79 272.819 311.04 275.632 314.62 279.179C318.199 282.725 321.039 286.935 322.976 291.569C324.914 296.203 325.911 301.169 325.911 306.185C325.911 311.2 324.914 316.167 322.976 320.8C321.039 325.434 318.199 329.645 314.62 333.191C311.04 336.738 306.79 339.551 302.113 341.47C297.436 343.39 292.424 344.377 287.361 344.377L287.361 323.78C289.693 323.78 292.003 323.325 294.158 322.441C296.312 321.557 298.27 320.261 299.919 318.627C301.569 316.993 302.877 315.053 303.769 312.918C304.662 310.784 305.121 308.496 305.121 306.185C305.121 303.874 304.662 301.586 303.769 299.451C302.877 297.316 301.569 295.377 299.919 293.743C298.27 292.109 296.312 290.813 294.158 289.929C292.003 289.044 289.693 288.589 287.361 288.589L287.361 267.992Z" fill="white" fill-opacity="0.25"/>
<path opacity="0.5" fill-rule="evenodd" clip-rule="evenodd" d="M101.038 210.168L101.038 197.386L101.038 184.468C99.4444 184.468 97.8663 184.801 96.3939 185.446C94.9214 186.092 93.5836 187.039 92.4566 188.232C91.3297 189.425 90.4358 190.842 89.8259 192.401C89.216 193.96 88.9021 195.631 88.9021 197.318C88.9021 199.006 89.216 200.677 89.8259 202.236C90.4358 203.795 91.3297 205.211 92.4566 206.404C93.5836 207.598 94.9214 208.544 96.3938 209.19C97.8663 209.836 99.4444 210.168 101.038 210.168Z" fill="white" fill-opacity="0.6"/>
<path opacity="0.5" fill-rule="evenodd" clip-rule="evenodd" d="M287.36 293.691L287.36 306.474L287.36 319.391C288.954 319.391 290.532 319.059 292.005 318.413C293.477 317.767 294.815 316.821 295.942 315.627C297.069 314.434 297.963 313.018 298.573 311.459C299.182 309.9 299.496 308.229 299.496 306.541C299.496 304.854 299.182 303.183 298.573 301.624C297.963 300.065 297.069 298.648 295.942 297.455C294.815 296.262 293.477 295.315 292.005 294.67C290.532 294.024 288.954 293.691 287.36 293.691Z" fill="white" fill-opacity="0.6"/>
<path opacity="0.5" d="M44.6406 403.272L44.3502 403.319C36.4634 404.589 30.2629 410.743 28.9352 418.621C27.6075 410.743 21.4071 404.589 13.5203 403.319L13.2298 403.272L13.5203 403.226C21.4071 401.956 27.6075 395.801 28.9352 387.924C30.2629 395.801 36.4634 401.956 44.3502 403.226L44.6406 403.272Z" fill="white" fill-opacity="0.6"/>
<path opacity="0.5" d="M343.758 100.944C351.818 99.6164 358.136 93.2989 359.463 85.2386C360.791 93.2989 367.108 99.6164 375.169 100.944C367.108 102.272 360.791 108.589 359.463 116.649C358.136 108.589 351.818 102.272 343.758 100.944Z" fill="white" fill-opacity="0.6"/>
<path opacity="0.5" d="M111.746 305.472L98.867 306.244C97.1847 306.345 95.843 307.686 95.7421 309.369L94.9699 322.248L94.1976 309.369C94.0968 307.686 92.755 306.345 91.0727 306.244L78.1937 305.472L91.0727 304.699C92.755 304.598 94.0968 303.257 94.1976 301.574L94.9699 288.695L95.7421 301.574C95.843 303.257 97.1847 304.598 98.867 304.699L111.746 305.472Z" fill="white"/>
<path opacity="0.5" d="M276.652 198.746L289.531 197.99C291.214 197.891 292.555 196.578 292.656 194.932L293.429 182.327L294.201 194.932C294.302 196.578 295.643 197.891 297.326 197.99L310.205 198.746L297.326 199.502C295.643 199.6 294.302 200.913 294.201 202.56L293.429 215.165L292.656 202.56C292.555 200.913 291.214 199.6 289.531 199.502L276.652 198.746Z" fill="white" fill-opacity="0.6"/>
<path opacity="0.5" d="M156.721 168.049L144.116 168.805C142.469 168.904 141.156 170.217 141.057 171.863L140.301 184.468L139.546 171.863C139.447 170.217 138.134 168.904 136.487 168.805L123.882 168.049L136.487 167.293C138.134 167.195 139.447 165.881 139.546 164.235L140.301 151.63L141.057 164.235C141.156 165.881 142.469 167.195 144.116 167.293L156.721 168.049Z" fill="white" fill-opacity="0.6"/>
<path opacity="0.5" d="M231.678 335.811L244.283 335.055C245.929 334.957 247.242 333.643 247.341 331.997L248.097 319.392L248.853 331.997C248.952 333.643 250.265 334.957 251.911 335.055L264.516 335.811L251.911 336.567C250.265 336.666 248.952 337.979 248.853 339.625L248.097 352.23L247.341 339.625C247.242 337.979 245.929 336.666 244.283 336.567L231.678 335.811Z" fill="white" fill-opacity="0.6"/>
<path opacity="0.5" d="M48.2106 402.916C48.2106 392.417 50.2879 382.02 54.324 372.319C58.36 362.619 64.2757 353.804 71.7333 346.38C79.191 338.955 88.0445 333.066 97.7883 329.048C107.532 325.03 117.976 322.962 128.522 322.962C139.069 322.962 149.512 325.03 159.256 329.048C169 333.066 177.854 338.955 185.311 346.38C192.769 353.804 198.685 362.619 202.721 372.319C206.757 382.02 208.834 392.417 208.834 402.916L203.611 402.916C203.611 393.099 201.669 383.379 197.895 374.309C194.122 365.239 188.591 356.998 181.618 350.057C174.645 343.115 166.368 337.609 157.258 333.852C148.147 330.095 138.383 328.162 128.522 328.162C118.662 328.162 108.897 330.095 99.7871 333.852C90.6769 337.609 82.3992 343.115 75.4266 350.057C68.4539 356.998 62.9229 365.239 59.1494 374.309C55.3758 383.379 53.4336 393.099 53.4336 402.916L48.2106 402.916Z" fill="white" fill-opacity="0.7"/>
<path opacity="0.5" d="M340.188 100.944C340.188 111.444 338.12 121.841 334.102 131.541C330.084 141.242 324.195 150.056 316.77 157.48C309.346 164.905 300.531 170.794 290.831 174.812C281.13 178.831 270.733 180.899 260.234 180.899C249.734 180.899 239.337 178.831 229.636 174.812C219.936 170.794 211.121 164.905 203.697 157.48C196.273 150.056 190.383 141.242 186.365 131.541C182.347 121.841 180.279 111.444 180.279 100.944L185.479 100.944C185.479 110.761 187.412 120.482 191.169 129.551C194.926 138.621 200.432 146.862 207.374 153.804C214.315 160.745 222.556 166.252 231.626 170.008C240.696 173.765 250.417 175.699 260.234 175.699C270.051 175.699 279.771 173.765 288.841 170.008C297.911 166.252 306.152 160.745 313.093 153.804C320.035 146.862 325.541 138.621 329.298 129.551C333.055 120.482 334.989 110.761 334.989 100.944L340.188 100.944Z" fill="white" fill-opacity="0.7"/>
<path opacity="0.5" d="M208.835 408.984C208.835 413.437 207.949 417.847 206.227 421.961C204.504 426.075 201.98 429.813 198.799 432.962C195.617 436.11 191.839 438.608 187.682 440.312C183.524 442.016 179.068 442.893 174.569 442.893C170.069 442.893 165.613 442.016 161.455 440.312C157.298 438.608 153.521 436.11 150.339 432.962C147.157 429.813 144.633 426.075 142.911 421.961C141.189 417.847 140.302 413.437 140.302 408.984L145.383 408.984C145.383 412.777 146.138 416.532 147.605 420.037C149.071 423.541 151.221 426.724 153.931 429.406C156.641 432.088 159.859 434.216 163.4 435.667C166.941 437.119 170.736 437.866 174.569 437.866C178.401 437.866 182.196 437.119 185.737 435.667C189.278 434.216 192.496 432.088 195.206 429.406C197.916 426.724 200.066 423.541 201.533 420.037C202.999 416.532 203.754 412.777 203.754 408.984L208.835 408.984Z" fill="white" fill-opacity="0.7"/>
<path opacity="0.5" d="M180.279 94.8768C180.279 90.4237 181.156 86.0143 182.86 81.9002C184.564 77.7862 187.062 74.048 190.211 70.8992C193.36 67.7505 197.098 65.2527 201.212 63.5486C205.326 61.8445 209.735 60.9674 214.188 60.9674C218.641 60.9674 223.051 61.8445 227.165 63.5486C231.279 65.2527 235.017 67.7505 238.166 70.8992C241.315 74.048 243.812 77.7862 245.516 81.9002C247.221 86.0143 248.098 90.4237 248.098 94.8768L243.07 94.8768C243.07 91.084 242.323 87.3284 240.871 83.8243C239.42 80.3202 237.293 77.1363 234.611 74.4544C231.929 71.7725 228.745 69.6452 225.241 68.1937C221.737 66.7423 217.981 65.9952 214.188 65.9952C210.395 65.9952 206.64 66.7423 203.136 68.1937C199.632 69.6451 196.448 71.7725 193.766 74.4544C191.084 77.1363 188.957 80.3202 187.505 83.8243C186.054 87.3284 185.307 91.084 185.307 94.8768L180.279 94.8768Z" fill="white" fill-opacity="0.7"/>
<path opacity="0.5" d="M185.99 196.247C185.99 206.7 183.922 217.051 179.904 226.708C175.886 236.365 169.996 245.14 162.572 252.531C155.147 259.923 146.333 265.786 136.633 269.786C126.932 273.786 116.535 275.845 106.035 275.845C95.5355 275.845 85.1385 273.786 75.4379 269.786C65.7374 265.786 56.9232 259.923 49.4988 252.531C42.0743 245.14 36.1849 236.365 32.1668 226.708C28.1486 217.051 26.0806 206.7 26.0806 196.247L31.2803 196.247C31.2803 206.02 33.2139 215.698 36.9707 224.727C40.7275 233.756 46.2339 241.96 53.1756 248.871C60.1172 255.782 68.3581 261.263 77.4278 265.003C86.4975 268.743 96.2184 270.668 106.035 270.668C115.852 270.668 125.573 268.743 134.643 265.003C143.712 261.263 151.953 255.782 158.895 248.871C165.837 241.96 171.343 233.756 175.1 224.727C178.857 215.698 180.79 206.02 180.79 196.247L185.99 196.247Z" fill="white" fill-opacity="0.7"/>
<path opacity="0.5" d="M202.409 307.613C202.409 297.16 204.477 286.809 208.496 277.152C212.514 267.495 218.403 258.72 225.828 251.329C233.252 243.937 242.066 238.074 251.767 234.074C261.467 230.074 271.864 228.015 282.364 228.015C292.864 228.015 303.261 230.074 312.961 234.074C322.662 238.074 331.476 243.937 338.901 251.329C346.325 258.72 352.215 267.495 356.233 277.152C360.251 286.809 362.319 297.16 362.319 307.613L357.119 307.613C357.119 297.84 355.185 288.162 351.429 279.133C347.672 270.104 342.166 261.9 335.224 254.989C328.282 248.078 320.041 242.597 310.972 238.857C301.902 235.117 292.181 233.192 282.364 233.192C272.547 233.192 262.826 235.117 253.757 238.857C244.687 242.597 236.446 248.078 229.504 254.989C222.563 261.9 217.056 270.104 213.3 279.133C209.543 288.162 207.609 297.84 207.609 307.613L202.409 307.613Z" fill="white" fill-opacity="0.7"/>
<path opacity="0.5" d="M63.2014 403.273C63.2014 394.601 64.9094 386.014 68.228 378.003C71.5465 369.991 76.4105 362.711 82.5423 356.58C88.6742 350.448 95.9537 345.584 103.965 342.265C111.977 338.947 120.564 337.239 129.235 337.239C137.907 337.239 146.494 338.947 154.506 342.265C162.517 345.584 169.797 350.448 175.929 356.58C182.06 362.711 186.924 369.991 190.243 378.003C193.562 386.014 195.27 394.601 195.27 403.273L182.93 403.273C182.93 396.221 181.541 389.239 178.843 382.725C176.145 376.21 172.189 370.291 167.203 365.305C162.217 360.319 156.298 356.364 149.784 353.665C143.269 350.967 136.287 349.578 129.235 349.578C122.184 349.578 115.202 350.967 108.687 353.665C102.173 356.364 96.2536 360.319 91.2675 365.305C86.2815 370.291 82.3264 376.21 79.628 382.725C76.9295 389.239 75.5407 396.221 75.5407 403.273L63.2014 403.273Z" fill="white" fill-opacity="0.7"/>
<path opacity="0.5" d="M325.911 100.588C325.911 109.259 324.194 117.846 320.857 125.858C317.521 133.869 312.63 141.149 306.465 147.281C300.3 153.413 292.982 158.277 284.927 161.595C276.872 164.914 268.239 166.622 259.52 166.622C250.801 166.622 242.168 164.914 234.113 161.595C226.058 158.277 218.739 153.413 212.574 147.281C206.409 141.149 201.519 133.869 198.183 125.858C194.846 117.846 193.129 109.259 193.129 100.588L205.535 100.588C205.535 107.639 206.931 114.621 209.644 121.136C212.357 127.65 216.334 133.57 221.347 138.556C226.36 143.542 232.311 147.497 238.861 150.195C245.41 152.894 252.43 154.282 259.52 154.282C266.609 154.282 273.629 152.894 280.179 150.195C286.729 147.497 292.68 143.542 297.693 138.556C302.706 133.57 306.683 127.65 309.396 121.136C312.109 114.621 313.505 107.639 313.505 100.588L325.911 100.588Z" fill="white" fill-opacity="0.7"/>
<path opacity="0.5" d="M161.004 100.587C161.004 107.946 159.563 115.233 156.765 122.032C153.967 128.832 149.865 135.009 144.695 140.213C139.524 145.417 133.386 149.545 126.63 152.361C119.874 155.177 112.633 156.627 105.321 156.627C98.0086 156.627 90.7678 155.177 84.0121 152.361C77.2563 149.545 71.1179 145.417 65.9473 140.213C60.7767 135.009 56.6751 128.832 53.8768 122.032C51.0784 115.233 49.6382 107.946 49.6382 100.587L60.0432 100.587C60.0432 106.571 61.2143 112.497 63.4898 118.025C65.7652 123.554 69.1003 128.577 73.3047 132.808C77.5092 137.04 82.5005 140.396 87.9939 142.686C93.4872 144.976 99.375 146.155 105.321 146.155C111.267 146.155 117.155 144.976 122.648 142.686C128.141 140.396 133.133 137.04 137.337 132.808C141.542 128.577 144.877 123.554 147.152 118.025C149.428 112.497 150.599 106.571 150.599 100.587L161.004 100.587Z" fill="white" fill-opacity="0.7"/>
<path opacity="0.5" d="M216.686 403.273C216.686 392.19 219.973 381.355 226.131 372.139C232.288 362.924 241.041 355.741 251.28 351.499C261.52 347.258 272.788 346.148 283.659 348.31C294.529 350.473 304.515 355.81 312.352 363.647C320.189 371.485 325.527 381.47 327.689 392.341C329.851 403.211 328.741 414.479 324.5 424.719C320.258 434.959 313.076 443.711 303.86 449.869C294.644 456.026 283.809 459.313 272.726 459.313L272.726 445.303C281.039 445.303 289.165 442.838 296.076 438.22C302.988 433.601 308.375 427.037 311.556 419.357C314.738 411.677 315.57 403.227 313.948 395.074C312.326 386.921 308.323 379.432 302.445 373.554C296.567 367.676 289.079 363.673 280.926 362.051C272.773 360.429 264.322 361.262 256.642 364.443C248.962 367.624 242.398 373.011 237.779 379.923C233.161 386.835 230.696 394.961 230.696 403.273L216.686 403.273Z" fill="white" fill-opacity="0.7"/>
<path opacity="0.5" fill-rule="evenodd" clip-rule="evenodd" d="M125.376 454.858C112.992 442.407 106.035 425.521 106.035 407.913L124.49 407.913C124.389 413.553 125.281 419.174 127.134 424.514C129.281 430.704 132.671 436.383 137.094 441.199C141.517 446.015 146.878 449.864 152.843 452.507C158.808 455.15 165.25 456.531 171.769 456.563C178.287 456.595 184.743 455.278 190.734 452.694C196.724 450.11 202.122 446.314 206.592 441.543C211.062 436.771 214.508 431.126 216.715 424.957C218.672 419.488 219.619 413.712 219.515 407.913L238.103 407.913C238.103 425.521 231.146 442.407 218.762 454.858C206.379 467.309 189.583 474.304 172.069 474.304C154.556 474.304 137.76 467.309 125.376 454.858ZM184.682 407.913L172.069 407.913L159.322 407.913C159.322 409.587 159.65 411.245 160.288 412.792C160.925 414.34 161.859 415.745 163.036 416.929C164.214 418.114 165.612 419.053 167.15 419.694C168.688 420.335 170.337 420.664 172.002 420.664C173.668 420.664 175.316 420.335 176.855 419.694C178.393 419.053 179.791 418.114 180.968 416.929C182.146 415.745 183.08 414.34 183.717 412.793C184.354 411.245 184.682 409.587 184.682 407.913Z" fill="white" fill-opacity="0.25"/>
<path opacity="0.5" fill-rule="evenodd" clip-rule="evenodd" d="M263.024 49.0023C275.408 61.453 282.365 78.3398 282.365 95.9478L263.91 95.9478C264.011 90.3072 263.119 84.6859 261.266 79.3459C259.119 73.1562 255.729 67.4769 251.306 62.6612C246.883 57.8455 241.522 53.9965 235.557 51.3534C229.592 48.7103 223.15 47.3297 216.631 47.2975C210.113 47.2652 203.657 48.5821 197.666 51.1661C191.676 53.75 186.277 57.5459 181.808 62.3176C177.338 67.0893 173.892 72.7348 171.685 78.903C169.727 84.3721 168.781 90.1485 168.885 95.9477L150.297 95.9477C150.297 78.3397 157.254 61.453 169.638 49.0023C182.021 36.5515 198.817 29.5568 216.331 29.5568C233.844 29.5568 250.64 36.5516 263.024 49.0023ZM203.718 95.9477L216.331 95.9477L229.077 95.9477C229.077 94.2732 228.749 92.615 228.112 91.0679C227.475 89.5207 226.541 88.115 225.364 86.9309C224.186 85.7468 222.788 84.8075 221.25 84.1667C219.712 83.5258 218.063 83.196 216.398 83.196C214.732 83.196 213.084 83.5258 211.545 84.1667C210.007 84.8075 208.609 85.7468 207.431 86.9309C206.254 88.115 205.32 89.5207 204.683 91.0678C204.046 92.615 203.718 94.2732 203.718 95.9477Z" fill="white" fill-opacity="0.25"/>
<path opacity="0.5" d="M119.599 94.8768C111.722 96.1742 105.548 102.348 104.251 110.225C102.953 102.348 96.7793 96.1742 88.9022 94.8768C96.7793 93.5793 102.953 87.4054 104.251 79.5283C105.548 87.4054 111.722 93.5793 119.599 94.8768Z" fill="white" fill-opacity="0.6"/>
<path opacity="0.5" d="M397.299 465.736C397.299 459.549 398.509 453.422 400.859 447.706C403.209 441.989 406.653 436.795 410.995 432.42C415.337 428.045 420.492 424.575 426.165 422.207C431.838 419.839 437.918 418.62 444.059 418.62C450.199 418.62 456.28 419.839 461.953 422.207C467.626 424.575 472.78 428.045 477.122 432.42C481.464 436.795 484.909 441.989 487.259 447.706C489.608 453.422 490.818 459.549 490.818 465.736L456.935 465.736C456.935 464.032 456.602 462.345 455.955 460.771C455.308 459.197 454.359 457.767 453.164 456.562C451.968 455.357 450.549 454.401 448.986 453.749C447.424 453.097 445.75 452.761 444.059 452.761C442.368 452.761 440.693 453.097 439.131 453.749C437.569 454.401 436.149 455.357 434.953 456.562C433.758 457.767 432.809 459.197 432.162 460.771C431.515 462.345 431.182 464.032 431.182 465.736L397.299 465.736Z" fill="white" fill-opacity="0.25"/>
<path opacity="0.5" d="M363.747 465.738C363.747 455.238 365.815 444.841 369.833 435.14C373.851 425.44 379.74 416.626 387.165 409.201C394.589 401.777 403.404 395.887 413.104 391.869C422.805 387.851 433.202 385.783 443.702 385.783C454.201 385.783 464.598 387.851 474.299 391.869C483.999 395.887 492.814 401.777 500.238 409.201C507.663 416.626 513.552 425.44 517.57 435.14C521.588 444.841 523.656 455.238 523.656 465.738L518.456 465.738C518.456 455.921 516.523 446.2 512.766 437.13C509.009 428.061 503.503 419.82 496.561 412.878C489.62 405.936 481.379 400.43 472.309 396.673C463.239 392.916 453.518 390.983 443.702 390.983C433.885 390.983 424.164 392.916 415.094 396.673C406.024 400.43 397.783 405.936 390.842 412.878C383.9 419.82 378.394 428.061 374.637 437.13C370.88 446.2 368.947 455.921 368.947 465.738L363.747 465.738Z" fill="white" fill-opacity="0.7"/>
<path opacity="0.5" d="M-80.287 18.8482C-80.287 29.348 -78.2189 39.745 -74.2008 49.4456C-70.1827 59.1461 -64.2932 67.9603 -56.8687 75.3847C-49.4443 82.8092 -40.6301 88.6986 -30.9296 92.7167C-21.229 96.7348 -10.832 98.8029 -0.332199 98.8029C10.1676 98.8029 20.5646 96.7348 30.2652 92.7167C39.9657 88.6986 48.7799 82.8092 56.2044 75.3847C63.6288 67.9603 69.5183 59.1461 73.5364 49.4456C77.5545 39.745 79.6226 29.348 79.6226 18.8482L74.4228 18.8482C74.4228 28.6652 72.4892 38.386 68.7324 47.4557C64.9756 56.5254 59.4692 64.7663 52.5276 71.7079C45.5859 78.6496 37.345 84.156 28.2753 87.9128C19.2056 91.6696 9.48476 93.6031 -0.332199 93.6031C-10.1492 93.6031 -19.87 91.6696 -28.9397 87.9128C-38.0094 84.156 -46.2503 78.6496 -53.1919 71.7079C-60.1336 64.7663 -65.64 56.5254 -69.3968 47.4557C-73.1536 38.386 -75.0872 28.6652 -75.0872 18.8482L-80.287 18.8482Z" fill="white" fill-opacity="0.7"/>
<path opacity="0.5" d="M378.024 466.094C378.024 457.422 379.732 448.835 383.05 440.824C386.369 432.812 391.233 425.533 397.365 419.401C403.496 413.269 410.776 408.405 418.788 405.086C426.799 401.768 435.386 400.06 444.058 400.06C452.729 400.06 461.316 401.768 469.328 405.086C477.34 408.405 484.619 413.269 490.751 419.401C496.883 425.533 501.747 432.812 505.065 440.824C508.384 448.835 510.092 457.422 510.092 466.094L497.753 466.094C497.753 459.043 496.364 452.06 493.665 445.546C490.967 439.031 487.012 433.112 482.026 428.126C477.04 423.14 471.12 419.185 464.606 416.486C458.091 413.788 451.109 412.399 444.058 412.399C437.006 412.399 430.024 413.788 423.51 416.486C416.995 419.185 411.076 423.14 406.09 428.126C401.104 433.112 397.149 439.031 394.45 445.546C391.752 452.06 390.363 459.043 390.363 466.094L378.024 466.094Z" fill="white" fill-opacity="0.7"/>
<path opacity="0.5" d="M-66.0105 18.4905C-66.0105 27.1622 -64.3025 35.749 -60.984 43.7607C-57.6654 51.7723 -52.8014 59.0518 -46.6696 65.1836C-40.5378 71.3155 -33.2582 76.1795 -25.2466 79.498C-17.235 82.8165 -8.64816 84.5245 0.0235519 84.5245C8.69527 84.5245 17.2821 82.8165 25.2937 79.498C33.3053 76.1795 40.5849 71.3154 46.7167 65.1836C52.8485 59.0518 57.7126 51.7723 61.0311 43.7607C64.3496 35.749 66.0576 27.1622 66.0576 18.4905L53.7183 18.4905C53.7183 25.5418 52.3295 32.5241 49.6311 39.0386C46.9326 45.5532 42.9775 51.4724 37.9915 56.4584C33.0055 61.4445 27.0862 65.3996 20.5717 68.098C14.0571 70.7964 7.07485 72.1853 0.0235519 72.1853C-7.02775 72.1853 -14.01 70.7964 -20.5246 68.098C-27.0391 65.3996 -32.9584 61.4445 -37.9444 56.4584C-42.9304 51.4724 -46.8855 45.5532 -49.584 39.0386C-52.2824 32.5241 -53.6712 25.5418 -53.6712 18.4905L-66.0105 18.4905Z" fill="white" fill-opacity="0.7"/>
</g>
</g>
<ellipse cx="231.167" cy="433.803" rx="218.167" ry="37.5303" fill="#570000"/>
<path d="M192.599 420.144L305.171 322.188L304.671 321.106L192.099 419.062" fill="url(#paint1_linear_38_390)"/>
<path d="M191.627 430.705L333.691 380.68L444.829 425.4L445.477 423.983L334.059 379.178L191.665 429.318L191.627 430.705Z" fill="url(#paint2_linear_38_390)"/>
<path d="M207.92 366.388L271.923 222.666L271.348 222.547L207.346 366.27" fill="url(#paint3_linear_38_390)"/>
<path d="M231.879 308.258C230.903 314.583 231.921 319.048 233.936 322.107C235.952 325.17 238.933 326.847 241.87 327.763C246.863 329.311 251.757 328.666 251.793 328.664L251.938 327.929L251.319 328.155C250.856 343.874 256.285 349.528 261.611 351.16C266.456 352.66 271.133 350.936 271.195 350.916L271.214 350.214L270.625 350.231C266.283 366.684 267.23 377.234 270.269 383.927C273.308 390.624 278.397 393.443 282.221 394.632C285.134 395.537 287.322 395.502 287.356 395.5L287.555 394.762L286.974 395.233C287.003 395.305 293.545 412.542 314.521 419.065C319.391 420.578 325.036 421.513 331.555 421.52L343.55 419.853L331.972 420.043C325.541 420.037 319.981 419.115 315.184 417.624C304.861 414.416 298.092 408.569 293.906 403.528C291.816 401.008 290.368 398.688 289.449 397.003C288.986 396.161 288.658 395.476 288.445 395.009C288.231 394.537 288.137 394.288 288.137 394.288L288.034 394.018L287.756 394.024C287.756 394.024 287.64 394.027 287.403 394.016C286.693 393.987 284.987 393.845 282.884 393.192C279.198 392.046 274.316 389.334 271.408 382.922C268.505 376.508 267.538 366.376 271.801 350.199L272.065 349.204L271.232 349.511L271.051 349.57C270.172 349.857 266.251 350.959 262.275 349.72C257.303 348.149 252.143 343.039 252.557 327.703L252.573 327.132L252.081 327.196C252.081 327.196 251.8 327.231 251.281 327.267C249.726 327.373 246.132 327.441 242.534 326.323C239.706 325.444 236.882 323.836 235.007 320.978C233.134 318.114 232.177 314.027 233.095 308.024L231.879 308.258Z" fill="url(#paint4_linear_38_390)"/>
<path d="M334.055 379.16L304.58 320.769L304.231 320.884L304.086 320.926C303.38 321.126 300.191 321.899 296.866 320.862C292.816 319.587 288.511 315.723 288.066 304.636C287.194 282.967 294.121 246.812 276.345 229.866C262.677 216.885 253.388 213.006 249.876 211.915C248.867 211.601 248.332 211.519 248.314 211.513L247.777 212.955C247.777 212.955 247.886 212.969 248.128 213.025C248.371 213.081 248.739 213.176 249.225 213.328C252.614 214.381 261.808 218.194 275.406 231.112C292.741 247.523 286.029 283.14 286.85 305.175C287.281 316.65 291.867 320.943 296.215 322.275C300.285 323.536 304.094 322.295 304.154 322.278L304.192 321.582L303.647 322.101L332.964 380.2L334.055 379.16Z" fill="url(#paint5_linear_38_390)"/>
<path d="M196.542 405.779L287.672 278.69L286.867 277.97L195.737 405.06" fill="url(#paint6_linear_38_390)"/>
<path d="M319.134 352.029L189.974 429.78L190.173 431.08L319.332 353.333" fill="url(#paint7_linear_38_390)"/>
<path d="M215.293 350.376C216.61 356.083 220.112 358.598 223.433 359.624C227.247 360.806 230.842 360.09 230.888 360.082L230.982 359.377L230.377 359.694C231.255 366.501 236.238 369.525 240.666 370.907C244.654 372.144 248.253 372.061 248.285 372.058L248.466 371.345L247.875 371.393C246.324 378.523 247.718 383.583 249.488 386.825C251.26 390.068 253.406 391.533 253.438 391.555L253.857 390.91L253.256 391.022C252.569 395.903 254.208 399.746 255.968 402.387C257.737 405.028 259.657 406.477 259.679 406.496L260.115 405.859L259.505 406.032C259.502 406.104 259.439 413.316 262.405 419.469L263.519 418.496C262.094 415.549 261.134 411.487 260.879 409.291C260.752 408.196 260.713 407.285 260.706 406.653C260.704 406.338 260.708 406.091 260.712 405.927L260.723 405.686L260.744 405.372L260.551 405.223C260.551 405.223 260.442 405.144 260.244 404.975C259.549 404.384 257.81 402.756 256.397 400.309C254.983 397.861 253.915 394.608 254.46 390.799L254.514 390.424L254.279 390.262C254.279 390.262 254.164 390.185 253.95 390.011C253.2 389.396 251.326 387.641 249.975 384.58C248.621 381.515 247.782 377.171 249.057 371.297L249.204 370.621L248.649 370.633C248.649 370.633 248.441 370.638 248.056 370.627C246.898 370.594 244.194 370.415 241.306 369.517C237.004 368.183 232.366 365.261 231.588 359.063L231.527 358.587L231.075 358.675L230.935 358.698C230.255 358.811 227.217 359.211 224.073 358.234C220.939 357.254 217.715 354.946 216.482 349.624L215.293 350.376Z" fill="url(#paint8_linear_38_390)"/>
<path d="M243.659 410.893C243.659 410.893 243.556 410.855 243.357 410.765C242.667 410.443 240.952 409.48 239.799 407.582C238.648 405.668 238.037 402.929 239.412 398.835L239.676 398.05L239.107 398.029L238.961 398.019C238.658 397.994 237.914 397.905 236.987 397.617C235.623 397.193 233.865 396.338 232.514 394.642C231.161 392.942 230.204 390.428 230.396 386.608L230.425 386.038L229.969 386.094L229.655 386.118C229.023 386.154 227.526 386.163 225.899 385.654C222.965 384.725 219.656 382.227 219.932 375.246L219.954 374.701L219.52 374.74C219.518 374.739 219.339 374.756 219.007 374.767C218.016 374.803 215.74 374.786 213.603 374.121C211.794 373.562 210.102 372.527 209.326 370.781L208.194 371.896C209.127 373.961 210.996 375.038 212.904 375.638C215.92 376.572 219.089 376.284 219.119 376.283L219.319 375.513L218.703 375.779C218.393 383.398 222.076 386.217 225.201 387.171C227.521 387.892 229.561 387.638 229.599 387.636L229.783 386.865L229.169 387.122C228.956 391.289 230.017 394.095 231.49 395.932C232.963 397.777 234.837 398.682 236.289 399.133C237.605 399.542 238.577 399.577 238.602 399.578L238.854 398.804L238.299 398.773C236.492 404.12 237.694 407.604 239.296 409.624C240.897 411.668 242.9 412.385 242.932 412.401L243.659 410.893Z" fill="url(#paint9_linear_38_390)"/>
<path d="M226.61 417.39L226.432 417.295C225.586 416.829 222.255 414.497 222.645 409.858L222.69 409.268L222.204 409.324C222.204 409.324 222.085 409.339 221.858 409.351C221.17 409.39 219.57 409.401 217.963 408.898C216.776 408.532 215.594 407.886 214.751 406.801C213.909 405.712 213.397 404.204 213.526 402.017L213.568 401.334L212.985 401.517L212.846 401.559C212.174 401.751 209.212 402.474 206.855 401.735C204.954 401.121 203.465 399.697 203.587 396.28L202.38 396.738C202.212 400.719 204.069 402.529 206.194 403.17C209.214 404.095 212.817 402.945 212.862 402.936L212.925 402.227L212.321 402.436C212.166 404.951 212.774 406.754 213.743 407.993C214.711 409.236 216.021 409.935 217.302 410.333C219.621 411.05 221.845 410.79 221.881 410.788L222.042 410.057L221.439 410.254C221.201 413.396 222.327 415.517 223.476 416.855C224.629 418.198 225.823 418.772 225.851 418.788L226.61 417.39Z" fill="url(#paint10_linear_38_390)"/>
<path d="M445.576 424.129L304.108 390.751L296.938 366.904L296.895 366.847C296.895 366.847 296.75 366.639 296.487 366.235C294.651 363.414 287.318 351.074 287.718 337.329L287.726 337.046L287.56 336.907C287.56 336.907 287.291 336.681 286.812 336.242C285.134 334.716 280.932 330.632 277.216 325.035C273.494 319.439 270.285 312.306 270.501 304.833L270.511 304.454L270.238 304.352C270.238 304.352 269.845 304.204 269.153 303.895C266.732 302.817 260.732 299.781 256.059 294.492C251.379 289.191 248.077 281.713 250.752 271.787L251.036 270.73L250.161 271.114L249.988 271.183C249.14 271.519 245.376 272.824 241.832 271.716C240.053 271.163 238.322 270.013 237.003 267.826L235.919 268.954C237.343 271.313 239.232 272.575 241.161 273.172C245.559 274.532 250.115 272.524 250.177 272.503L250.17 271.809L249.587 271.827C247.95 277.913 248.415 283.106 250.003 287.419C254.78 300.333 269.497 305.762 269.53 305.793L269.884 305.074L269.269 305.312C269.03 314.398 273.403 322.559 277.79 328.527C282.186 334.485 286.629 338.215 286.643 338.226L287.103 337.567L286.487 337.805C286.056 354.148 295.832 367.971 295.846 368.022L296.37 367.433L295.781 367.885L303.068 392.121L444.955 425.6L445.576 424.129Z" fill="url(#paint11_linear_38_390)"/>
<path d="M384.355 399.367L193.241 429.241L192.983 430.704L384.096 400.834" fill="url(#paint12_linear_38_390)"/>
<path d="M422.678 414.864L186.951 430.175L186.553 431.607L424.938 415.783" fill="url(#paint13_linear_38_390)"/>
<path d="M318.054 128.731C318.054 128.731 345.765 103.207 350.474 103.977C355.183 104.746 339.115 132.194 339.115 132.194L318.054 128.731Z" fill="#F0F0F0"/>
<path d="M349.62 105.001C351.794 105.334 342.789 122.957 339.814 127.908C339.814 127.908 347.783 109.952 345.843 109.567C343.877 109.65 341.957 110.176 340.228 111.106C340.228 111.106 348.585 104.642 349.62 105.001Z" fill="#FAFAFA"/>
<path d="M337.95 81.2234L336.164 80.9413C335.808 80.9121 335.45 80.9775 335.127 81.1307C334.804 81.284 334.528 81.5196 334.327 81.8134C333.743 82.6138 333.354 83.5381 333.192 84.5132C333.031 85.4883 333.1 86.4875 333.396 87.4313C333.491 87.7791 333.677 88.0955 333.937 88.348C334.196 88.6005 334.518 88.7799 334.871 88.8678L336.656 89.1499L337.95 81.2234Z" fill="#F0F0F0"/>
<path d="M335.207 87.7113C335.854 89.4043 337.303 89.6352 338.468 88.2243C339.059 87.4325 339.453 86.5122 339.615 85.5397C339.777 84.5673 339.703 83.5706 339.399 82.6321C338.752 80.9134 337.303 80.6826 336.139 82.0934C335.547 82.8902 335.154 83.8147 334.992 84.7913C334.83 85.7678 334.904 86.7685 335.207 87.7113Z" fill="#E0E0E0"/>
<path d="M347.058 84.8655L337.769 83.3263C337.601 83.3206 337.435 83.3576 337.285 83.434C337.136 83.5103 337.008 83.6234 336.915 83.7624C336.646 84.1264 336.465 84.5479 336.389 84.9933C336.313 85.4387 336.342 85.8956 336.476 86.3276C336.631 86.738 336.864 86.9689 337.148 86.9946L346.437 88.5337L347.058 84.8655Z" fill="#455A64"/>
<path d="M345.764 87.8911C346.074 88.6863 346.747 88.8146 347.29 88.1476C347.56 87.7836 347.741 87.3621 347.817 86.9167C347.893 86.4713 347.864 86.0144 347.73 85.5824C347.713 85.4086 347.639 85.2451 347.519 85.1173C347.399 84.9895 347.24 84.9044 347.066 84.8752C346.892 84.846 346.714 84.8743 346.558 84.9558C346.402 85.0372 346.278 85.1673 346.204 85.3259C345.934 85.6899 345.754 86.1115 345.677 86.5568C345.601 87.0022 345.631 87.4591 345.764 87.8911Z" fill="#37474F"/>
<path d="M326.799 92.2268L325.014 91.9446C324.657 91.9154 324.299 91.9808 323.976 92.1341C323.653 92.2873 323.377 92.523 323.176 92.8168C322.586 93.6144 322.194 94.539 322.032 95.5152C321.87 96.4913 321.943 97.4916 322.245 98.4346C322.34 98.7824 322.526 99.0989 322.786 99.3514C323.045 99.6039 323.367 99.7833 323.72 99.8711L325.505 100.153L326.799 92.2268Z" fill="#F0F0F0"/>
<path d="M323.977 98.743C324.598 100.436 326.073 100.667 327.237 99.2561C327.829 98.4642 328.222 97.544 328.384 96.5716C328.546 95.5991 328.472 94.6024 328.169 93.6639C327.522 91.9452 326.047 91.7144 324.908 93.1253C324.316 93.922 323.923 94.8465 323.761 95.8231C323.599 96.7996 323.673 97.8003 323.977 98.743Z" fill="#E0E0E0"/>
<path d="M335.829 95.8967L326.54 94.3576C326.372 94.3518 326.205 94.3889 326.056 94.4652C325.906 94.5416 325.779 94.6547 325.686 94.7937C325.416 95.1577 325.236 95.5792 325.159 96.0246C325.083 96.47 325.113 96.9269 325.246 97.3589C325.401 97.7693 325.634 98.0001 325.919 98.0258L335.208 99.5649L335.829 95.8967Z" fill="#455A64"/>
<path d="M334.56 98.9228C334.87 99.7181 335.543 99.8463 336.086 99.1794C336.356 98.8154 336.537 98.3938 336.613 97.9484C336.689 97.5031 336.66 97.0462 336.526 96.6142C336.216 95.819 335.543 95.6907 335 96.3576C334.73 96.7217 334.55 97.1432 334.473 97.5886C334.397 98.034 334.426 98.4909 334.56 98.9228Z" fill="#37474F"/>
<path d="M315.258 103.207L313.473 102.925C313.114 102.895 312.753 102.963 312.429 103.122C312.106 103.28 311.831 103.522 311.636 103.822C311.05 104.617 310.66 105.537 310.498 106.509C310.336 107.48 310.407 108.475 310.704 109.415C310.794 109.765 310.979 110.084 311.239 110.337C311.499 110.591 311.824 110.768 312.179 110.851L313.965 111.133L315.258 103.207Z" fill="#F0F0F0"/>
<path d="M312.516 109.721C312.582 110.073 312.756 110.396 313.013 110.646C313.271 110.896 313.6 111.062 313.956 111.121C314.312 111.18 314.677 111.129 315.002 110.975C315.328 110.821 315.598 110.571 315.776 110.26C316.366 109.463 316.758 108.538 316.92 107.562C317.082 106.586 317.009 105.585 316.707 104.642C316.06 102.949 314.586 102.693 313.447 104.104C312.857 104.901 312.465 105.826 312.303 106.802C312.141 107.778 312.214 108.778 312.516 109.721Z" fill="#E0E0E0"/>
<path d="M324.366 106.874L315.077 105.361C314.91 105.341 314.741 105.369 314.59 105.442C314.439 105.515 314.311 105.629 314.224 105.771C313.957 106.137 313.779 106.558 313.703 107.003C313.627 107.448 313.654 107.904 313.784 108.336C313.828 108.496 313.913 108.641 314.031 108.758C314.149 108.875 314.295 108.96 314.456 109.003L323.745 110.517L324.366 106.874Z" fill="#455A64"/>
<path d="M323.072 109.928C323.382 110.723 324.055 110.826 324.599 110.159C324.868 109.795 325.049 109.373 325.125 108.928C325.202 108.482 325.172 108.025 325.038 107.593C324.754 106.798 324.055 106.696 323.512 107.337C323.242 107.706 323.061 108.132 322.985 108.581C322.909 109.031 322.938 109.492 323.072 109.928Z" fill="#37474F"/>
<path d="M390.553 79.7859C390.502 79.6301 390.413 79.4892 390.294 79.3754C389.622 78.6365 389.008 77.8475 388.457 77.0154C388.316 75.6869 388.057 74.3734 387.681 73.0906L385.093 66.0107C384.963 65.6024 384.715 65.2412 384.379 64.972C384.043 64.7029 383.635 64.5378 383.205 64.4972C380.617 64.0612 377.875 67.9089 364.55 74.0654C359.802 76.4366 354.921 78.535 349.931 80.3502C348.15 80.8593 346.569 81.898 345.403 83.3259C341.463 88.9895 337.086 94.3412 332.311 99.3327C327.446 104.643 318.804 112.159 315.596 115.032C315.18 115.307 314.854 115.696 314.657 116.151C314.459 116.606 314.399 117.109 314.483 117.597L317.071 124.6C317.194 124.941 317.42 125.237 317.718 125.447C318.174 125.774 318.591 126.153 318.96 126.575C318.87 127.364 318.556 128.112 318.054 128.73L320.641 135.733L331.172 137.452L341.703 139.17C346.645 133.193 358.78 130.218 361.729 129.756C364.679 129.294 366.231 128.474 366.904 127.191C369.67 121.074 372.807 115.129 376.296 109.388C380.369 103.051 384.946 97.0465 389.984 91.4319C391.898 89.508 393.606 88.1228 393.218 86.9941L390.553 79.7859Z" fill="#E14500"/>
<path opacity="0.2" d="M390.553 79.7859C390.502 79.6301 390.413 79.4892 390.294 79.3754C389.622 78.6365 389.008 77.8475 388.457 77.0154C388.316 75.6869 388.057 74.3734 387.681 73.0906L385.093 66.0107C384.963 65.6024 384.715 65.2412 384.379 64.972C384.043 64.7029 383.635 64.5378 383.205 64.4972C380.617 64.0612 377.875 67.9089 364.55 74.0654C359.802 76.4366 354.921 78.535 349.931 80.3502C348.15 80.8593 346.569 81.898 345.403 83.3259C341.463 88.9895 337.086 94.3412 332.311 99.3327C327.446 104.643 318.804 112.159 315.596 115.032C315.18 115.307 314.854 115.696 314.657 116.151C314.459 116.606 314.399 117.109 314.483 117.597L317.071 124.6C317.194 124.941 317.42 125.237 317.718 125.447C318.174 125.774 318.591 126.153 318.96 126.575C318.87 127.364 318.556 128.112 318.054 128.73L320.641 135.733L331.172 137.452L341.703 139.17C346.645 133.193 358.78 130.218 361.729 129.756C364.679 129.294 366.231 128.474 366.904 127.191C369.67 121.074 372.807 115.129 376.296 109.388C380.369 103.051 384.946 97.0465 389.984 91.4319C391.898 89.508 393.606 88.1228 393.218 86.9941L390.553 79.7859Z" fill="black"/>
<path opacity="0.2" d="M315.517 115.032C315.101 115.307 314.775 115.696 314.577 116.151C314.38 116.606 314.32 117.109 314.404 117.597L316.992 124.6C317.115 124.941 317.34 125.237 317.638 125.447C318.095 125.774 318.512 126.153 318.88 126.575C318.791 127.364 318.477 128.112 317.975 128.73L320.562 135.733L331.093 137.452L341.624 139.17C346.566 133.193 358.7 130.218 361.65 129.756C362.853 129.612 364.024 129.274 365.117 128.756L361.986 120.573L318.001 112.877C317.095 113.647 316.164 114.442 315.517 115.032Z" fill="black"/>
<path d="M328.583 130.449L318.052 128.73C320.64 125.549 317.794 120.419 315.051 118.469C313.654 117.443 314.456 115.904 315.517 115.058C318.725 112.287 327.367 104.669 332.231 99.3586C337.007 94.3671 341.384 89.0153 345.323 83.3517C346.49 81.9238 348.071 80.8852 349.851 80.3761C354.842 78.5609 359.723 76.4625 364.47 74.0913C377.795 67.9348 380.435 64.087 383.125 64.5231C385.816 64.9591 384.988 68.3196 386.567 73.2448C387.386 75.5209 388.653 77.6133 390.293 79.4013C391.431 80.5813 389.516 82.0948 387.343 84.2752C382.305 89.8898 377.728 95.8943 373.656 102.232C370.166 107.973 367.029 113.918 364.263 120.034C363.642 121.394 362.116 122.215 359.088 122.599C356.061 122.984 344.004 126.037 339.062 132.014L328.583 130.449Z" fill="#E14500"/>
<path d="M395.235 92.1772L385.946 90.6381C385.778 90.6324 385.611 90.6694 385.462 90.7458C385.312 90.8221 385.185 90.9352 385.092 91.0742C384.822 91.4382 384.642 91.8597 384.566 92.3051C384.489 92.7505 384.519 93.2074 384.652 93.6394C384.808 94.0498 385.066 94.2807 385.351 94.3064L394.64 95.8198L395.235 92.1772Z" fill="#455A64"/>
<path d="M393.944 95.2022C394.254 95.9974 394.927 96.1256 395.47 95.4586C395.74 95.0946 395.92 94.6732 395.997 94.2278C396.073 93.7824 396.043 93.3254 395.91 92.8934C395.893 92.7196 395.819 92.5562 395.699 92.4284C395.579 92.3005 395.419 92.2154 395.246 92.1862C395.072 92.157 394.893 92.1854 394.738 92.2669C394.582 92.3483 394.457 92.4784 394.383 92.637C394.119 93.0036 393.942 93.425 393.866 93.8693C393.79 94.3137 393.816 94.7695 393.944 95.2022Z" fill="#37474F"/>
<path d="M396.091 90.1223L394.28 89.8401C393.923 89.8109 393.565 89.8764 393.242 90.0297C392.919 90.1829 392.643 90.4186 392.443 90.7124C391.863 91.5153 391.478 92.4395 391.317 93.4136C391.155 94.3877 391.222 95.3857 391.511 96.3302C391.601 96.6805 391.786 96.9996 392.046 97.2529C392.306 97.5062 392.631 97.6839 392.986 97.7667L394.771 98.0488L396.091 90.1223Z" fill="#F0F0F0"/>
<path d="M393.321 96.6126C393.968 98.3057 395.416 98.5366 396.581 97.1257C397.173 96.3338 397.566 95.4135 397.728 94.4411C397.89 93.4687 397.816 92.472 397.512 91.5335C396.865 89.8404 395.416 89.584 394.252 90.9948C393.662 91.7924 393.27 92.717 393.108 93.6932C392.946 94.6694 393.019 95.6696 393.321 96.6126Z" fill="#E0E0E0"/>
<path d="M385.92 103.975L376.631 102.462C376.464 102.442 376.295 102.47 376.144 102.543C375.992 102.616 375.865 102.73 375.777 102.872C375.511 103.238 375.333 103.659 375.257 104.104C375.18 104.549 375.208 105.005 375.337 105.437C375.381 105.597 375.466 105.742 375.584 105.859C375.702 105.976 375.849 106.061 376.01 106.104L385.299 107.618L385.92 103.975Z" fill="#455A64"/>
<path d="M384.626 107.028C384.658 107.191 384.74 107.341 384.86 107.457C384.981 107.573 385.134 107.651 385.3 107.678C385.465 107.706 385.635 107.683 385.788 107.613C385.94 107.543 386.067 107.428 386.152 107.284C386.418 106.919 386.597 106.497 386.673 106.052C386.749 105.608 386.721 105.152 386.592 104.719C386.307 103.924 385.609 103.821 385.065 104.463C384.804 104.831 384.629 105.252 384.553 105.696C384.477 106.14 384.502 106.595 384.626 107.028Z" fill="#37474F"/>
<path d="M386.749 101.948L384.964 101.64C384.605 101.616 384.246 101.687 383.924 101.845C383.601 102.002 383.326 102.241 383.127 102.538C382.542 103.338 382.153 104.263 381.992 105.238C381.83 106.213 381.9 107.212 382.195 108.156C382.295 108.501 382.483 108.815 382.742 109.067C383 109.319 383.32 109.5 383.67 109.592L385.455 109.875L386.749 101.948Z" fill="#F0F0F0"/>
<path d="M384.006 108.441C384.653 110.134 386.102 110.39 387.266 108.979C387.856 108.182 388.248 107.257 388.41 106.281C388.572 105.305 388.499 104.305 388.198 103.362C387.551 101.669 386.102 101.438 384.937 102.849C384.345 103.64 383.952 104.561 383.79 105.533C383.628 106.505 383.702 107.502 384.006 108.441Z" fill="#E0E0E0"/>
<path d="M380.125 115.777L370.836 114.263C370.666 114.248 370.494 114.277 370.339 114.35C370.185 114.422 370.052 114.534 369.956 114.674C369.695 115.042 369.52 115.463 369.444 115.907C369.368 116.351 369.392 116.806 369.516 117.239C369.562 117.402 369.651 117.549 369.774 117.667C369.897 117.784 370.049 117.866 370.215 117.906L379.504 119.419L380.125 115.777Z" fill="#455A64"/>
<path d="M378.833 118.828C378.865 118.992 378.947 119.141 379.067 119.257C379.188 119.374 379.341 119.451 379.507 119.479C379.672 119.507 379.843 119.484 379.995 119.413C380.147 119.343 380.274 119.228 380.359 119.085C380.625 118.719 380.804 118.297 380.88 117.853C380.956 117.408 380.928 116.952 380.799 116.519C380.767 116.356 380.685 116.206 380.564 116.09C380.444 115.974 380.291 115.897 380.125 115.869C379.959 115.841 379.789 115.864 379.637 115.934C379.485 116.004 379.357 116.119 379.272 116.263C379.006 116.629 378.828 117.05 378.752 117.495C378.676 117.94 378.703 118.396 378.833 118.828Z" fill="#37474F"/>
<path d="M380.954 113.749L379.169 113.441C378.81 113.417 378.451 113.488 378.129 113.645C377.806 113.803 377.531 114.042 377.332 114.339C376.741 115.136 376.349 116.061 376.188 117.037C376.026 118.013 376.099 119.014 376.4 119.957C376.497 120.301 376.684 120.613 376.944 120.861C377.203 121.11 377.525 121.284 377.875 121.367L379.635 121.675L380.954 113.749Z" fill="#F0F0F0"/>
<path d="M378.183 120.239C378.243 120.598 378.415 120.929 378.675 121.187C378.935 121.444 379.269 121.615 379.632 121.674C379.994 121.733 380.366 121.679 380.695 121.518C381.025 121.357 381.295 121.098 381.469 120.778C382.054 119.977 382.442 119.053 382.604 118.078C382.766 117.103 382.696 116.104 382.4 115.16C382.336 114.802 382.161 114.474 381.9 114.22C381.639 113.966 381.304 113.799 380.942 113.742C380.58 113.686 380.21 113.742 379.882 113.905C379.555 114.067 379.286 114.326 379.114 114.647C378.523 115.439 378.129 116.359 377.967 117.331C377.805 118.304 377.879 119.3 378.183 120.239Z" fill="#E0E0E0"/>
<path d="M339.114 132.168L318.053 128.731L187.415 281.489L190.08 288.518L218.722 293.187L341.779 139.171L339.114 132.168Z" fill="#37474F"/>
<path d="M216.058 286.182L187.416 281.488L318.054 128.73L339.115 132.167L216.058 286.182Z" fill="#455A64"/>
<path d="M283.124 275.946C282.762 275.048 282.27 274.51 281.675 274.433C278.544 274.022 275.646 276.485 271.196 281.846C266.746 287.207 251.506 295.775 239.293 296.776C227.081 297.776 225.114 289.978 225.373 285.283C225.632 280.589 224.597 279.973 219.939 279.922C215.929 279.922 188.218 278.922 188.218 278.922C183.376 282.175 177.437 283.41 171.684 282.359C174.212 274.53 178.782 267.504 184.932 261.991C190.391 257.04 193.186 252.91 192.461 251.012L186.795 236.16C186.174 234.492 182.836 234.518 176.264 237.288C162.215 243.163 136.159 257.348 127.104 275.766C119.341 291.312 119.057 306.344 109.69 316.22C101.307 325.018 89.1205 331.611 74.3982 338.717C53.4661 348.67 32.9997 364.035 24.0732 383.274C22.2538 387.005 21.213 391.061 21.0129 395.2C20.8128 399.339 21.4576 403.476 22.9088 407.362C23.8403 409.722 27.5403 419.521 28.5235 422.06C33.4655 435.092 48.7311 447.199 80.4786 452.381C131.916 460.769 176.937 442.838 198.205 425.626C219.474 408.413 226.227 390.79 224.778 377.195C223.769 367.601 224.183 358.597 233.472 350.004C242.76 341.41 265.504 330.662 278.492 317.169C289.049 306.19 290.446 294.954 288.842 290.901L283.124 275.946Z" fill="#E14500"/>
<path opacity="0.2" d="M283.124 275.946C282.762 275.048 282.27 274.51 281.675 274.433C278.544 274.022 275.646 276.485 271.196 281.846C266.746 287.207 251.506 295.775 239.293 296.776C227.081 297.776 225.114 289.978 225.373 285.283C225.632 280.589 224.597 279.973 219.939 279.922C215.929 279.922 188.218 278.922 188.218 278.922C183.376 282.175 177.437 283.41 171.684 282.359C174.212 274.53 178.782 267.504 184.932 261.991C190.391 257.04 193.186 252.91 192.461 251.012L186.795 236.16C186.174 234.492 182.836 234.518 176.264 237.288C162.215 243.163 136.159 257.348 127.104 275.766C119.341 291.312 119.057 306.344 109.69 316.22C101.307 325.018 89.1205 331.611 74.3982 338.717C53.4661 348.67 32.9997 364.035 24.0732 383.274C22.2538 387.005 21.213 391.061 21.0129 395.2C20.8128 399.339 21.4576 403.476 22.9088 407.362C23.8403 409.722 27.5403 419.521 28.5235 422.06C33.4655 435.092 48.7311 447.199 80.4786 452.381C131.916 460.769 176.937 442.838 198.205 425.626C219.474 408.413 226.227 390.79 224.778 377.195C223.769 367.601 224.183 358.597 233.472 350.004C242.76 341.41 265.504 330.662 278.492 317.169C289.049 306.19 290.446 294.954 288.842 290.901L283.124 275.946Z" fill="black"/>
<path opacity="0.2" d="M175.331 289.337L181.748 281.847C178.502 282.917 175.023 283.095 171.683 282.36C174.21 274.531 178.781 267.505 184.931 261.992C190.39 257.041 193.184 252.911 192.46 251.013L186.794 236.161C186.173 234.493 182.835 234.519 176.263 237.289C162.213 243.164 136.158 257.349 127.102 275.767C126.197 277.563 125.42 279.333 124.696 281.103L175.331 289.337Z" fill="black"/>
<path opacity="0.2" d="M176.343 438.942L168.995 419.651L20.8916 395.487C20.6919 399.516 21.335 403.542 22.7805 407.313C23.7119 409.673 27.412 419.472 28.3952 422.011C33.3371 435.043 48.6027 447.15 80.3502 452.332C112.977 457.649 146.463 452.978 176.343 438.942Z" fill="black"/>
<path d="M109.457 316.169C101.074 324.967 88.8877 331.56 74.1653 338.665C53.2333 348.619 32.7669 363.984 23.8404 383.223C14.9138 402.462 23.1418 429.063 74.5793 437.477C126.017 445.891 171.038 427.935 192.306 410.722C213.575 393.51 220.328 375.887 218.905 362.265C217.895 352.697 218.284 343.668 227.572 335.074C236.861 326.481 259.604 315.758 272.593 302.24C285.582 288.721 284.728 274.843 281.571 274.433C278.415 274.022 275.543 276.485 271.092 281.846C266.642 287.207 251.402 295.775 239.19 296.776C226.977 297.776 225.011 289.978 225.27 285.284C225.528 280.589 224.493 279.974 219.836 279.922C215.826 279.922 188.114 278.922 188.114 278.922C182.784 282.616 170.65 285.694 166.354 278.563C162.059 271.431 168.942 256.348 179.291 247.113C189.641 237.879 190.34 231.389 176.264 237.289C162.189 243.189 136.16 257.348 127.104 275.767C119.186 291.26 118.927 306.293 109.457 316.169Z" fill="#E14500"/>
<path d="M175.513 293.492C170.209 294.005 162.705 284.026 153.08 287.31C143.455 290.593 140.531 297.827 137.556 309.473C134.58 321.119 129.638 333.407 114.424 342.821C99.2104 352.235 75.1735 361.085 68.6015 371.885C62.0295 382.684 73.0776 394.535 97.9167 396.562C122.756 398.588 131.941 400.128 138.177 403.565C144.412 407.002 146.456 411.902 144.024 416.622C141.592 421.342 146.12 422.265 155.124 418.777C164.128 415.288 193.625 400.948 201.697 379.888C209.77 358.828 197.428 351.081 207.778 339.281C218.127 327.481 237.636 318.528 245.062 311.448C252.488 304.368 248.348 302.547 238.568 305.625C228.787 308.704 204.802 311.038 210.909 293.364L175.513 293.492Z" fill="#FAFAFA"/>
<path d="M192.823 320.736C192.705 320.49 192.523 320.28 192.295 320.126C192.068 319.973 191.804 319.883 191.529 319.864L156.988 314.22C156.066 314.169 155.145 314.329 154.296 314.69C153.448 315.05 152.695 315.601 152.097 316.298C151.829 316.555 151.633 316.878 151.529 317.233C151.424 317.588 151.415 317.965 151.502 318.325L152.072 319.787C152.18 320.044 152.359 320.266 152.587 320.429C152.815 320.592 153.085 320.689 153.365 320.71L187.907 326.354C188.829 326.411 189.752 326.253 190.602 325.892C191.451 325.531 192.203 324.978 192.797 324.276C193.077 324.021 193.28 323.694 193.385 323.333C193.49 322.971 193.493 322.587 193.392 322.224L192.823 320.736Z" fill="#37474F"/>
<path d="M187.364 324.917L152.822 319.299C151.27 319.042 150.933 317.708 152.098 316.298C152.696 315.6 153.448 315.05 154.297 314.689C155.145 314.329 156.066 314.168 156.988 314.22L191.53 319.786C193.108 320.043 193.419 321.377 192.28 322.788C191.686 323.499 190.932 324.063 190.078 324.432C189.224 324.802 188.294 324.968 187.364 324.917Z" fill="#455A64"/>
<path d="M168.967 349.697C168.857 349.443 168.678 349.224 168.449 349.066C168.221 348.907 167.952 348.815 167.674 348.799L133.132 343.156C132.205 343.094 131.277 343.25 130.423 343.611C129.568 343.972 128.812 344.528 128.216 345.234C127.31 346.337 127.336 347.363 128.216 347.799C128.17 348.003 128.17 348.215 128.216 348.419C128.261 348.623 128.351 348.815 128.48 348.981C128.608 349.147 128.771 349.283 128.958 349.38C129.144 349.478 129.35 349.533 129.561 349.543L164.103 355.161C165.027 355.222 165.952 355.068 166.806 354.711C167.659 354.355 168.417 353.806 169.019 353.109C169.287 352.846 169.483 352.519 169.587 352.16C169.691 351.8 169.701 351.421 169.614 351.057L168.967 349.697Z" fill="#37474F"/>
<path d="M163.431 353.851L128.889 348.207C127.337 347.951 127.001 346.617 128.165 345.232C128.762 344.526 129.518 343.97 130.372 343.609C131.226 343.248 132.155 343.092 133.081 343.154L167.623 348.797C169.175 349.054 169.512 350.388 168.347 351.773C167.751 352.478 166.995 353.034 166.14 353.395C165.286 353.756 164.358 353.912 163.431 353.851Z" fill="#455A64"/>
<path d="M141.619 379.838L116.78 366.165C115.873 365.839 114.896 365.751 113.945 365.908C112.993 366.065 112.098 366.463 111.346 367.063C110.156 367.909 109.716 368.935 110.001 369.628L110.519 371.141C110.665 371.472 110.92 371.744 111.243 371.911L136.082 385.584C136.989 385.909 137.966 385.998 138.918 385.841C139.869 385.684 140.764 385.286 141.516 384.686C142.706 383.839 143.172 382.788 142.861 382.121L142.344 380.633C142.199 380.295 141.943 380.015 141.619 379.838Z" fill="#37474F"/>
<path d="M135.564 384.276L110.699 370.603C109.38 369.885 109.664 368.294 111.346 367.063C112.098 366.463 112.992 366.065 113.944 365.908C114.896 365.751 115.872 365.839 116.78 366.165L141.619 379.838C142.938 380.582 142.654 382.146 140.998 383.378C140.246 383.978 139.351 384.375 138.4 384.533C137.448 384.69 136.471 384.601 135.564 384.276Z" fill="#455A64"/>
<path d="M131.397 397.742L89.3773 390.996L83.8919 397.614L84.6164 399.486L126.558 406.335L132.121 399.615L131.397 397.742Z" fill="#263238"/>
<path d="M83.8937 397.615L125.836 404.464L131.398 397.744L89.3791 390.997L83.8937 397.615Z" fill="#37474F"/>
<path d="M87.9282 398.282L90.3863 398.667L95.8716 392.049L93.4136 391.638L87.9282 398.282Z" fill="#263238"/>
<path d="M94.1138 399.283L96.5719 399.694L102.083 393.05L99.625 392.64L94.1138 399.283Z" fill="#263238"/>
<path d="M100.323 400.284L102.781 400.695L108.267 394.025L105.834 393.641L100.323 400.284Z" fill="#263238"/>
<path d="M106.532 401.308L108.964 401.719L114.475 395.024L112.043 394.639L106.532 401.308Z" fill="#263238"/>
<path d="M112.717 402.309L115.175 402.72L120.687 396.025L118.254 395.64L112.717 402.309Z" fill="#263238"/>
<path d="M118.902 403.334L121.36 403.719L126.897 397.024L124.439 396.639L118.902 403.334Z" fill="#263238"/>
<path d="M177.532 367.217L178.567 369.987C178.831 370.509 179.227 370.954 179.717 371.278C180.207 371.602 180.774 371.793 181.361 371.834C182.985 372.014 184.629 371.81 186.158 371.239C187.687 370.669 189.058 369.747 190.159 368.55C190.585 368.135 190.887 367.611 191.033 367.037C191.179 366.462 191.163 365.859 190.987 365.293L189.952 362.574L177.532 367.217Z" fill="#37474F"/>
<path d="M189.096 365.781C191.011 363.473 190.157 361.215 187.181 360.651C185.558 360.471 183.914 360.675 182.385 361.246C180.856 361.816 179.485 362.738 178.384 363.934C176.495 366.218 177.349 368.475 180.299 369.065C181.923 369.245 183.566 369.041 185.095 368.47C186.624 367.9 187.995 366.978 189.096 365.781Z" fill="#455A64"/>
<path d="M171.037 383.276L172.097 386.047C172.355 386.568 172.746 387.013 173.232 387.338C173.718 387.662 174.282 387.854 174.866 387.894C176.49 388.073 178.133 387.87 179.662 387.299C181.191 386.728 182.562 385.807 183.663 384.61C184.08 384.188 184.376 383.664 184.521 383.092C184.667 382.52 184.656 381.919 184.491 381.352L183.456 378.633L171.037 383.276Z" fill="#37474F"/>
<path d="M182.629 381.84C184.517 379.531 183.664 377.274 180.714 376.71C179.09 376.53 177.447 376.733 175.918 377.304C174.389 377.875 173.018 378.796 171.917 379.993C170.002 382.276 170.856 384.534 173.831 385.123C175.455 385.303 177.099 385.1 178.628 384.529C180.157 383.958 181.528 383.037 182.629 381.84Z" fill="#455A64"/>
<path d="M155.124 398.229L156.159 401C156.416 401.521 156.808 401.966 157.294 402.291C157.78 402.615 158.343 402.807 158.928 402.847C160.553 403.023 162.198 402.816 163.727 402.24C165.256 401.665 166.626 400.739 167.725 399.537C168.153 399.129 168.459 398.611 168.61 398.04C168.76 397.47 168.75 396.87 168.579 396.305L167.544 393.586L155.124 398.229Z" fill="#37474F"/>
<path d="M166.69 396.742C168.579 394.434 167.725 392.176 164.775 391.612C163.152 391.442 161.512 391.651 159.985 392.221C158.457 392.791 157.085 393.707 155.978 394.895C154.089 397.204 154.943 399.461 157.893 400.026C159.517 400.206 161.16 400.002 162.689 399.431C164.218 398.861 165.589 397.939 166.69 396.742Z" fill="#455A64"/>
<path d="M132.615 402.925C132.484 402.658 132.282 402.431 132.032 402.268C131.781 402.106 131.491 402.014 131.191 402.002L75.8211 392.946C74.9657 392.873 74.1048 392.997 73.3058 393.309C72.5068 393.62 71.7913 394.111 71.2155 394.742C70.9914 394.951 70.8295 395.217 70.7474 395.511C70.6653 395.805 70.6661 396.116 70.7497 396.409L72.0952 399.975C72.2312 400.246 72.4368 400.476 72.6912 400.642C72.9455 400.809 73.2398 400.906 73.5441 400.924L129.096 409.825C129.923 409.916 130.76 409.814 131.541 409.529C132.323 409.245 133.026 408.784 133.598 408.184C133.819 407.962 133.977 407.686 134.054 407.384C134.132 407.082 134.126 406.764 134.038 406.465L132.615 402.925Z" fill="#37474F"/>
<path d="M72.0958 397.357L127.57 406.284C128.399 406.369 129.237 406.263 130.018 405.973C130.799 405.684 131.502 405.22 132.072 404.617C133.081 403.411 132.641 402.231 131.114 402.052L75.8217 392.945C74.9663 392.872 74.1054 392.996 73.3064 393.307C72.5074 393.619 71.7919 394.109 71.2161 394.741C70.1294 395.921 70.6469 397.101 72.0958 397.357Z" fill="#455A64"/>
<path d="M211.349 255.938C211.342 256.127 211.407 256.312 211.532 256.455C211.657 256.598 211.832 256.688 212.022 256.707L234.687 260.427C234.9 260.457 235.115 260.404 235.289 260.28C235.463 260.155 235.581 259.969 235.619 259.76C235.637 259.655 235.634 259.548 235.61 259.445C235.586 259.341 235.542 259.244 235.479 259.158C235.416 259.071 235.337 258.999 235.245 258.944C235.154 258.888 235.052 258.852 234.946 258.836L212.281 255.143C212.068 255.113 211.853 255.165 211.679 255.29C211.505 255.414 211.387 255.6 211.349 255.81L211.349 255.938Z" fill="#E0E0E0"/>
<path d="M240.845 221.334C240.842 221.525 240.909 221.71 241.032 221.856C241.155 222.002 241.328 222.099 241.517 222.129L262.423 225.541C262.636 225.571 262.851 225.518 263.025 225.394C263.199 225.269 263.317 225.083 263.355 224.874C263.373 224.771 263.37 224.665 263.346 224.563C263.322 224.462 263.277 224.366 263.214 224.282C263.151 224.198 263.071 224.127 262.98 224.075C262.888 224.022 262.787 223.989 262.682 223.976L241.776 220.539C241.564 220.509 241.348 220.562 241.175 220.686C241.001 220.811 240.883 220.997 240.845 221.206L240.845 221.334Z" fill="#E0E0E0"/>
<path d="M270.574 186.782C270.571 186.972 270.638 187.157 270.761 187.303C270.885 187.449 271.057 187.546 271.247 187.577L289.85 190.604C289.957 190.63 290.069 190.633 290.178 190.615C290.287 190.596 290.391 190.555 290.483 190.495C290.575 190.434 290.654 190.355 290.714 190.263C290.774 190.171 290.814 190.068 290.832 189.96C290.85 189.852 290.845 189.741 290.818 189.635C290.791 189.529 290.741 189.429 290.674 189.343C290.606 189.256 290.52 189.185 290.423 189.132C290.326 189.08 290.219 189.048 290.109 189.039L271.505 185.986C271.293 185.956 271.078 186.009 270.904 186.134C270.73 186.258 270.612 186.444 270.574 186.653L270.574 186.782Z" fill="#E0E0E0"/>
<path d="M300.562 152.252C300.554 152.444 300.618 152.632 300.743 152.779C300.867 152.926 301.043 153.022 301.235 153.047L317.535 155.612C317.747 155.642 317.963 155.59 318.137 155.465C318.31 155.341 318.429 155.154 318.467 154.945C318.485 154.842 318.482 154.737 318.458 154.635C318.433 154.533 318.388 154.437 318.325 154.353C318.262 154.269 318.183 154.198 318.091 154.146C318 154.093 317.899 154.06 317.794 154.048L301.493 151.482C301.284 151.445 301.068 151.492 300.894 151.612C300.719 151.732 300.6 151.916 300.562 152.124L300.562 152.252Z" fill="#E0E0E0"/>
<path d="M88.9648 398.307L89.4046 398.666L320.304 130.602L334.043 111.927L333.578 111.594L319.839 130.243L88.9648 398.307Z" fill="#E0E0E0"/>
<path d="M95.2007 399.308L95.6406 399.667L323.306 131.09L345.791 99.7428L345.325 99.435L322.866 130.731L95.2007 399.308Z" fill="#E0E0E0"/>
<path d="M101.41 400.336L101.85 400.695L326.307 131.579L356.088 88.6886L355.623 88.3808L325.868 131.245L101.41 400.336Z" fill="#E0E0E0"/>
<path d="M120.245 403.412L120.685 403.745L336.345 131.833L352.051 114.877L351.611 114.518L335.905 131.474L120.245 403.412Z" fill="#E0E0E0"/>
<path d="M114.012 402.384L114.452 402.743L333.32 131.344L360.824 102.229L360.41 101.844L332.906 130.985L114.012 402.384Z" fill="#E0E0E0"/>
<path d="M107.801 401.36L108.241 401.719L330.317 130.858L369.077 90.8669L368.663 90.4565L329.878 130.474L107.801 401.36Z" fill="#E0E0E0"/>
<path d="M366.515 90.5854L367.136 92.2528C367.293 92.5751 367.534 92.8499 367.835 93.0484C368.135 93.247 368.483 93.3619 368.844 93.3815C369.833 93.4962 370.835 93.3744 371.767 93.0263C372.699 92.6782 373.533 92.1139 374.2 91.3806C374.462 91.1309 374.649 90.8142 374.74 90.4655C374.831 90.1169 374.824 89.7499 374.717 89.4054L374.096 87.7381L366.515 90.5854Z" fill="#E0E0E0"/>
<path d="M373.58 89.6878C374.718 88.3025 374.2 86.9174 372.389 86.6096C371.399 86.5085 370.398 86.6391 369.468 86.9911C368.538 87.3431 367.704 87.9065 367.033 88.6361C365.869 90.0213 366.387 91.4064 368.198 91.6886C369.191 91.8033 370.197 91.6816 371.133 91.3336C372.069 90.9856 372.907 90.4214 373.58 89.6878Z" fill="#F0F0F0"/>
<path d="M358.521 102.13L359.167 103.823C359.324 104.14 359.562 104.411 359.857 104.609C360.152 104.807 360.494 104.925 360.849 104.951C361.844 105.055 362.849 104.925 363.783 104.573C364.718 104.221 365.556 103.657 366.231 102.925C366.488 102.672 366.672 102.355 366.763 102.008C366.854 101.66 366.849 101.295 366.748 100.95L366.102 99.2824L358.521 102.13Z" fill="#E0E0E0"/>
<path d="M365.61 101.255C366.774 99.8443 366.257 98.4591 364.445 98.1769C363.456 98.0601 362.453 98.1809 361.521 98.5291C360.589 98.8774 359.755 99.4429 359.089 100.178C357.925 101.589 358.443 102.948 360.254 103.256C361.242 103.356 362.24 103.228 363.169 102.88C364.099 102.533 364.934 101.977 365.61 101.255Z" fill="#F0F0F0"/>
<path d="M350.939 113.851L351.56 115.544C351.725 115.86 351.968 116.129 352.267 116.326C352.565 116.524 352.91 116.643 353.267 116.672C354.258 116.778 355.26 116.649 356.191 116.297C357.121 115.944 357.955 115.379 358.623 114.646C358.885 114.396 359.072 114.079 359.163 113.731C359.255 113.382 359.247 113.015 359.141 112.671L358.52 111.003L350.939 113.851Z" fill="#E0E0E0"/>
<path d="M358.002 112.979C359.166 111.568 358.623 110.182 356.838 109.9C355.845 109.786 354.839 109.907 353.903 110.255C352.967 110.603 352.128 111.168 351.456 111.901C350.291 113.312 350.835 114.672 352.62 114.979C353.612 115.082 354.615 114.954 355.549 114.607C356.482 114.26 357.322 113.702 358.002 112.979Z" fill="#F0F0F0"/>
<path d="M348.921 87.6868L349.542 89.3798C349.703 89.6989 349.945 89.9709 350.245 90.1688C350.544 90.3667 350.891 90.4838 351.25 90.5085C352.238 90.6128 353.237 90.4861 354.167 90.1387C355.097 89.7912 355.932 89.2326 356.606 88.5077C356.867 88.258 357.054 87.9412 357.146 87.5925C357.237 87.2439 357.229 86.877 357.123 86.5325L356.502 84.8395L348.921 87.6868Z" fill="#E0E0E0"/>
<path d="M355.986 86.814C357.15 85.4031 356.607 84.018 354.821 83.7358C353.829 83.6335 352.827 83.761 351.893 84.1082C350.959 84.4554 350.119 85.0129 349.44 85.7367C348.275 87.1475 348.819 88.507 350.604 88.8149C351.596 88.9171 352.599 88.7897 353.532 88.4425C354.466 88.0953 355.306 87.5378 355.986 86.814Z" fill="#F0F0F0"/>
<path d="M338.521 98.8972L339.167 100.565C339.322 100.889 339.563 101.165 339.863 101.364C340.164 101.562 340.514 101.676 340.875 101.693C341.864 101.804 342.865 101.68 343.796 101.332C344.727 100.984 345.562 100.422 346.231 99.6924C346.493 99.4427 346.68 99.1259 346.771 98.7772C346.863 98.4286 346.855 98.0616 346.749 97.7171L346.128 96.0497L338.521 98.8972Z" fill="#E0E0E0"/>
<path d="M345.583 98.0009C346.748 96.6157 346.23 95.2305 344.419 94.9483C343.43 94.8379 342.429 94.9617 341.498 95.3095C340.567 95.6574 339.733 96.2193 339.063 96.9492C337.899 98.3344 338.416 99.7196 340.227 100.027C341.218 100.133 342.22 100.004 343.151 99.6516C344.082 99.2994 344.915 98.7338 345.583 98.0009Z" fill="#F0F0F0"/>
<path d="M327.963 110.109L328.584 111.802C328.741 112.124 328.982 112.399 329.283 112.598C329.583 112.796 329.932 112.911 330.292 112.931C331.28 113.033 332.279 112.905 333.209 112.558C334.138 112.211 334.974 111.653 335.648 110.93C335.91 110.68 336.097 110.363 336.188 110.015C336.28 109.666 336.272 109.299 336.166 108.955L335.545 107.262L327.963 110.109Z" fill="#E0E0E0"/>
<path d="M335.026 109.235C336.165 107.824 335.647 106.439 333.836 106.157C332.848 106.056 331.85 106.185 330.921 106.532C329.991 106.879 329.156 107.436 328.48 108.157C327.316 109.568 327.833 110.928 329.645 111.236C330.637 111.338 331.639 111.211 332.573 110.863C333.507 110.516 334.347 109.959 335.026 109.235Z" fill="#F0F0F0"/>
<path fill-rule="evenodd" clip-rule="evenodd" d="M318.45 128.672L182.133 281.805L178.469 282.609L175.197 282.722L172.081 282.301L174.745 275.787C177.499 272.674 193.375 252.308 192.858 250.954L187.336 236.479C187.19 235.407 186.207 234.853 184.294 234.991C182.555 235.109 180.034 235.808 176.661 237.23C170.587 239.769 162.27 243.862 154.052 249.179C150.389 251.549 146.746 254.161 143.33 256.988C136.682 262.49 130.895 268.802 127.499 275.709C127.473 275.762 127.446 275.814 127.42 275.867C124.223 282.162 122.282 288.379 120.464 294.202C117.824 302.657 115.443 310.282 109.855 316.11C101.471 324.909 89.2848 331.501 74.5625 338.607C53.6304 348.56 33.1641 363.926 24.2376 383.165C20.4711 391.282 19.7587 400.711 24.0577 409.531C24.7474 411.331 25.6676 413.752 26.529 416.018L26.5293 416.019C27.4916 418.55 28.3804 420.889 28.7923 421.953C32.3062 431.218 41.0397 440.017 57.2065 446.192C63.803 448.723 71.6423 450.815 80.8756 452.323C132.313 460.711 177.334 442.78 198.602 425.567C219.871 408.355 226.624 390.732 225.175 377.136C224.166 367.542 224.58 358.539 233.869 349.945C237.745 346.359 243.963 342.398 250.839 338.019C260.44 331.904 271.321 324.973 278.889 317.11C289.446 306.131 290.843 294.896 289.239 290.843L283.521 275.888C283.159 274.99 282.667 274.451 282.072 274.374C281.828 274.342 281.586 274.328 281.344 274.33C278.424 274.303 275.645 276.782 271.49 281.788C267.039 287.149 251.8 295.717 239.587 296.717C238.893 296.774 238.232 296.802 237.602 296.805C227.25 296.793 225.527 289.638 225.77 285.225C225.779 285.071 225.786 284.922 225.791 284.777L342.177 139.112C342.177 139.112 342.448 136.6 350.469 133.152C358.49 129.704 361.296 130.405 365.154 128.652C366.557 128.652 367.96 124.793 367.96 124.793L371.468 118.129L373.619 114.593L378.529 106.495L380.985 103.047L387.649 94.5692L390.455 91.0153L392.209 89.6587C392.209 89.6587 393.962 88.2557 393.639 87.2034C393.316 86.1512 391.79 80.5075 390.806 79.4869C389.166 77.699 388.819 75.4495 388 73.1734C387.451 71.46 386.462 69.8911 386.246 68.6137C385.544 66.1584 385.277 64.7486 383.523 64.4642C382.194 64.2489 380.878 65.0782 378.281 66.7144C375.619 68.3915 371.612 70.9162 364.867 74.0325C360.12 76.4037 355.239 78.5021 350.249 80.3173C348.468 80.8264 346.887 81.8649 345.721 83.2928C341.781 88.9565 337.404 94.3083 332.628 99.2998C327.764 104.61 319.122 112.228 315.914 114.999C314.853 115.845 313.6 117.454 314.997 118.48C315.348 120.234 316.366 122.885 317.102 124.793C319.206 126.196 319.753 127.07 318.45 128.672ZM185.329 261.933L174.745 275.787C173.879 276.765 187.47 259.929 186.321 261.014C186.001 261.317 185.67 261.623 185.329 261.933ZM185.329 261.933C185.281 261.976 185.233 262.019 185.185 262.062C185.233 262.019 185.28 261.977 185.328 261.934L185.329 261.933ZM318.45 128.672L182.133 281.805C184.616 281.064 186.882 279.993 188.512 278.863L188.61 278.867L188.615 278.863L189.637 278.9L189.966 278.912L318.45 128.672ZM172.081 282.301C174.893 282.814 177.75 282.782 180.501 282.234C179.83 282.388 179.15 282.514 178.469 282.609C176.346 282.865 174.186 282.765 172.08 282.302C172.804 280.059 173.696 277.881 174.745 275.787C173.697 277.881 172.805 280.058 172.081 282.301ZM396.227 90.0232L394.677 89.7817C394.32 89.7525 393.962 89.8179 393.639 89.9712C393.316 90.1244 393.04 90.3601 392.84 90.6539C392.631 90.9429 392.448 91.2476 392.291 91.5647L390.455 91.0153L387.649 94.5692L391.68 95.2139C391.726 95.5712 391.802 95.925 391.908 96.2717C391.998 96.622 392.183 96.9411 392.443 97.1944C392.703 97.4477 393.028 97.6255 393.383 97.7082L395.168 97.9904L395.171 97.9775C395.755 98.0624 396.401 97.7664 396.978 97.0676C397.57 96.2757 397.963 95.3554 398.125 94.383C398.287 93.4105 398.213 92.4139 397.909 91.4754C397.541 90.5121 396.914 90.0139 396.227 90.0232ZM387.012 101.867L385.361 101.583C385.002 101.559 384.643 101.629 384.321 101.787C383.998 101.945 383.724 102.184 383.524 102.48C383.317 102.763 383.135 103.061 382.979 103.372L380.953 103.052L378.529 106.495L382.355 107.014C382.402 107.38 382.481 107.743 382.593 108.098C382.692 108.444 382.88 108.758 383.139 109.009C383.397 109.261 383.717 109.442 384.067 109.535L385.818 109.812C386.412 109.921 387.074 109.634 387.663 108.921C388.253 108.123 388.645 107.198 388.807 106.222C388.969 105.246 388.896 104.246 388.594 103.303C388.244 102.387 387.659 101.899 387.012 101.867ZM377.177 115.172L373.619 114.593L371.468 118.129L376.554 118.815C376.603 119.181 376.684 119.543 376.797 119.897C376.894 120.241 377.081 120.554 377.34 120.802C377.6 121.05 377.921 121.225 378.272 121.308L380.031 121.616C380.393 121.675 380.764 121.619 381.093 121.459C381.422 121.298 381.693 121.04 381.866 120.719C382.451 119.918 382.84 118.994 383.001 118.019C383.163 117.044 383.093 116.045 382.798 115.101C382.734 114.743 382.559 114.415 382.297 114.161C382.036 113.907 381.701 113.74 381.339 113.683C381.308 113.678 381.276 113.674 381.245 113.671L379.566 113.382C379.207 113.358 378.848 113.428 378.526 113.586C378.203 113.743 377.928 113.983 377.729 114.279C377.519 114.562 377.335 114.861 377.177 115.172Z" fill="url(#paint14_linear_38_390)"/>
<path d="M369.349 206.186L370.827 118.832L370.333 118.829L368.855 206.183" fill="url(#paint15_linear_38_390)"/>
<path d="M377.404 212.783C377.428 217.485 373.994 221.201 369.733 221.081C365.471 220.962 361.997 217.053 361.973 212.35C361.948 207.647 365.382 203.932 369.644 204.052C373.905 204.171 377.379 208.08 377.404 212.783Z" fill="black"/>
<path d="M371.732 221.921C371.791 222.934 370.774 223.686 369.463 223.599C368.151 223.512 367.039 222.62 366.981 221.607C366.922 220.593 367.938 219.842 369.25 219.929C370.561 220.016 371.672 220.907 371.732 221.921Z" fill="black"/>
<path d="M364.06 216.177C364.06 216.177 359.318 211.067 358.368 209.87C357.419 208.672 355.774 195.653 355.774 195.653C355.774 195.653 358.145 207.426 358.677 208.806C359.208 210.187 363.525 214.211 363.525 214.211C363.525 214.211 365.73 215.053 364.06 216.177Z" fill="black"/>
<path d="M367.829 219.547C367.829 219.547 363.303 224.504 362.396 225.674C361.49 226.843 359.873 239.919 359.873 239.919C359.873 239.919 362.174 228.133 362.684 226.762C363.196 225.39 367.313 221.51 367.313 221.51C367.313 221.51 369.411 220.751 367.829 219.547Z" fill="black"/>
<path d="M367.169 218.152C367.169 218.152 361.341 221.768 360.124 222.665C358.906 223.561 353.611 235.955 353.611 235.955C353.611 235.955 359.208 225.018 360.096 223.812C360.985 222.607 366.107 219.937 366.107 219.937C366.107 219.937 368.371 219.774 367.169 218.152Z" fill="black"/>
<path d="M363.975 217.392C363.975 217.392 358.704 213.312 357.616 212.32C356.529 211.328 352.598 198.607 352.598 198.607C352.598 198.607 356.956 209.913 357.698 211.181C358.44 212.451 363.121 215.535 363.121 215.535C363.121 215.535 365.285 215.892 363.975 217.392Z" fill="black"/>
<path d="M375.184 216.347C375.184 216.347 379.705 211.4 380.609 210.233C381.513 209.065 383.058 195.955 383.058 195.955C383.058 195.955 380.817 207.766 380.312 209.14C379.807 210.512 375.69 214.381 375.69 214.381C375.69 214.381 373.586 215.129 375.184 216.347Z" fill="black"/>
<path d="M371.593 219.204C371.593 219.204 375.802 224.201 376.643 225.374C377.482 226.548 378.753 239.46 378.753 239.46C378.753 239.46 376.803 227.801 376.345 226.438C375.887 225.075 372.045 221.149 372.045 221.149C372.045 221.149 370.062 220.349 371.593 219.204Z" fill="black"/>
<path d="M371.674 217.986C371.674 217.986 377.286 221.707 378.455 222.624C379.625 223.541 384.549 235.89 384.549 235.89C384.549 235.89 379.303 224.966 378.461 223.755C377.617 222.543 372.675 219.772 372.675 219.772C372.675 219.772 370.472 219.548 371.674 217.986Z" fill="black"/>
<path d="M374.743 217.479C374.743 217.479 380.384 213.65 381.55 212.711C382.717 211.773 387.047 199.378 387.047 199.378C387.047 199.378 382.281 210.361 381.478 211.586C380.675 212.811 375.672 215.68 375.672 215.68C375.672 215.68 373.373 215.951 374.743 217.479Z" fill="black"/>
</g>
<defs>
<linearGradient id="paint0_linear_38_390" x1="3.95157" y1="42.0482" x2="486.099" y2="465.878" gradientUnits="userSpaceOnUse">
<stop stop-color="#E14500"/>
<stop offset="0.572474" stop-color="#A40000"/>
<stop offset="1"/>
</linearGradient>
<linearGradient id="paint1_linear_38_390" x1="275.599" y1="312.071" x2="237.659" y2="434.148" gradientUnits="userSpaceOnUse">
<stop stop-color="#A9A9A9"/>
<stop offset="0.223958" stop-color="#D9A9A9" stop-opacity="0.879062"/>
<stop offset="1" stop-color="#655D5D" stop-opacity="0.46"/>
</linearGradient>
<linearGradient id="paint2_linear_38_390" x1="339.636" y1="380.912" x2="312.487" y2="468.267" gradientUnits="userSpaceOnUse">
<stop stop-color="#A9A9A9"/>
<stop offset="0.223958" stop-color="#D9A9A9" stop-opacity="0.879062"/>
<stop offset="1" stop-color="#655D5D" stop-opacity="0.46"/>
</linearGradient>
<linearGradient id="paint3_linear_38_390" x1="272.602" y1="222.877" x2="226.215" y2="372.135" gradientUnits="userSpaceOnUse">
<stop stop-color="#A9A9A9"/>
<stop offset="0.223958" stop-color="#D9A9A9" stop-opacity="0.879062"/>
<stop offset="1" stop-color="#655D5D" stop-opacity="0.46"/>
</linearGradient>
<linearGradient id="paint4_linear_38_390" x1="303.449" y1="329.889" x2="279.15" y2="408.072" gradientUnits="userSpaceOnUse">
<stop stop-color="#A9A9A9"/>
<stop offset="0.223958" stop-color="#D9A9A9" stop-opacity="0.879062"/>
<stop offset="1" stop-color="#655D5D" stop-opacity="0.46"/>
</linearGradient>
<linearGradient id="paint5_linear_38_390" x1="319.619" y1="233.59" x2="279.243" y2="363.504" gradientUnits="userSpaceOnUse">
<stop stop-color="#A9A9A9"/>
<stop offset="0.223958" stop-color="#D9A9A9" stop-opacity="0.879062"/>
<stop offset="1" stop-color="#655D5D" stop-opacity="0.46"/>
</linearGradient>
<linearGradient id="paint6_linear_38_390" x1="273.103" y1="273.693" x2="228.925" y2="415.843" gradientUnits="userSpaceOnUse">
<stop stop-color="#A9A9A9"/>
<stop offset="0.223958" stop-color="#D9A9A9" stop-opacity="0.879062"/>
<stop offset="1" stop-color="#655D5D" stop-opacity="0.46"/>
</linearGradient>
<linearGradient id="paint7_linear_38_390" x1="278.649" y1="339.447" x2="244.886" y2="448.084" gradientUnits="userSpaceOnUse">
<stop stop-color="#A9A9A9"/>
<stop offset="0.223958" stop-color="#D9A9A9" stop-opacity="0.879062"/>
<stop offset="1" stop-color="#655D5D" stop-opacity="0.46"/>
</linearGradient>
<linearGradient id="paint8_linear_38_390" x1="250.56" y1="360.215" x2="234.81" y2="410.892" gradientUnits="userSpaceOnUse">
<stop stop-color="#A9A9A9"/>
<stop offset="0.223958" stop-color="#D9A9A9" stop-opacity="0.879062"/>
<stop offset="1" stop-color="#655D5D" stop-opacity="0.46"/>
</linearGradient>
<linearGradient id="paint9_linear_38_390" x1="232.152" y1="377.875" x2="223.317" y2="406.305" gradientUnits="userSpaceOnUse">
<stop stop-color="#A9A9A9"/>
<stop offset="0.223958" stop-color="#D9A9A9" stop-opacity="0.879062"/>
<stop offset="1" stop-color="#655D5D" stop-opacity="0.46"/>
</linearGradient>
<linearGradient id="paint10_linear_38_390" x1="217.474" y1="400.596" x2="213.056" y2="414.811" gradientUnits="userSpaceOnUse">
<stop stop-color="#A9A9A9"/>
<stop offset="0.223958" stop-color="#D9A9A9" stop-opacity="0.879062"/>
<stop offset="1" stop-color="#655D5D" stop-opacity="0.46"/>
</linearGradient>
<linearGradient id="paint11_linear_38_390" x1="360.081" y1="304.62" x2="330.26" y2="400.572" gradientUnits="userSpaceOnUse">
<stop stop-color="#A9A9A9"/>
<stop offset="0.223958" stop-color="#D9A9A9" stop-opacity="0.879062"/>
<stop offset="1" stop-color="#655D5D" stop-opacity="0.46"/>
</linearGradient>
<linearGradient id="paint12_linear_38_390" x1="306.961" y1="375.314" x2="281.224" y2="458.128" gradientUnits="userSpaceOnUse">
<stop stop-color="#A9A9A9"/>
<stop offset="0.223958" stop-color="#D9A9A9" stop-opacity="0.879062"/>
<stop offset="1" stop-color="#655D5D" stop-opacity="0.46"/>
</linearGradient>
<linearGradient id="paint13_linear_38_390" x1="332.82" y1="376.988" x2="291.248" y2="475.699" gradientUnits="userSpaceOnUse">
<stop stop-color="#A9A9A9"/>
<stop offset="0.223958" stop-color="#D9A9A9" stop-opacity="0.879062"/>
<stop offset="1" stop-color="#655D5D" stop-opacity="0.46"/>
</linearGradient>
<linearGradient id="paint14_linear_38_390" x1="31.5901" y1="216.69" x2="209.661" y2="454.453" gradientUnits="userSpaceOnUse">
<stop stop-color="#7B7B7B"/>
<stop offset="1" stop-color="#F0F0F0" stop-opacity="0"/>
</linearGradient>
<linearGradient id="paint15_linear_38_390" x1="359.957" y1="204.067" x2="379.724" y2="120.948" gradientUnits="userSpaceOnUse">
<stop stop-color="#A9A9A9"/>
<stop offset="0.223958" stop-color="#D9A9A9" stop-opacity="0.879062"/>
<stop offset="1" stop-color="#655D5D" stop-opacity="0.46"/>
</linearGradient>
<clipPath id="clip0_38_390">
<rect width="500" height="500" fill="white"/>
</clipPath>
</defs>
</svg>
