<svg width="26" height="26" viewBox="0 0 26 26" fill="none" xmlns="http://www.w3.org/2000/svg">
<g id="genres">
<mask id="mask0_26_1401" style="mask-type:alpha" maskUnits="userSpaceOnUse" x="0" y="0" width="26" height="26">
<rect id="Bounding box" width="26" height="26" fill="#D9D9D9"/>
</mask>
<g mask="url(#mask0_26_1401)">
<path id="genres_2" d="M10.6 20.2C11.6 20.2 12.45 19.85 13.15 19.15C13.85 18.45 14.2 17.6 14.2 16.6V8.2H17.8V5.8H12.4V13.48C12.12 13.32 11.83 13.2 11.53 13.12C11.23 13.04 10.92 13 10.6 13C9.6 13 8.75 13.35 8.05 14.05C7.35 14.75 7 15.6 7 16.6C7 17.6 7.35 18.45 8.05 19.15C8.75 19.85 9.6 20.2 10.6 20.2ZM13 25C11.34 25 9.78 24.685 8.32 24.055C6.86 23.425 5.59 22.57 4.51 21.49C3.43 20.41 2.575 19.14 1.945 17.68C1.315 16.22 1 14.66 1 13C1 11.34 1.315 9.78 1.945 8.32C2.575 6.86 3.43 5.59 4.51 4.51C5.59 3.43 6.86 2.575 8.32 1.945C9.78 1.315 11.34 1 13 1C14.66 1 16.22 1.315 17.68 1.945C19.14 2.575 20.41 3.43 21.49 4.51C22.57 5.59 23.425 6.86 24.055 8.32C24.685 9.78 25 11.34 25 13C25 14.66 24.685 16.22 24.055 17.68C23.425 19.14 22.57 20.41 21.49 21.49C20.41 22.57 19.14 23.425 17.68 24.055C16.22 24.685 14.66 25 13 25ZM13 22.6C15.68 22.6 17.95 21.67 19.81 19.81C21.67 17.95 22.6 15.68 22.6 13C22.6 10.32 21.67 8.05 19.81 6.19C17.95 4.33 15.68 3.4 13 3.4C10.32 3.4 8.05 4.33 6.19 6.19C4.33 8.05 3.4 10.32 3.4 13C3.4 15.68 4.33 17.95 6.19 19.81C8.05 21.67 10.32 22.6 13 22.6Z" fill="#1C1B1F"/>
</g>
</g>
</svg>
