<svg width="500" height="500" viewBox="0 0 500 500" fill="none" xmlns="http://www.w3.org/2000/svg">
<g clip-path="url(#clip0_38_1120)">
<path fill-rule="evenodd" clip-rule="evenodd" d="M49.3616 365.864C24.9926 325.764 -4.99726 282.147 4.2785 236.149C13.3893 190.969 59.3105 165.312 95.5475 136.832C125.674 113.154 160.014 100.467 195.454 85.8962C240.463 67.391 288.043 16.2768 330.373 40.2844C374.073 65.0684 338.951 140.744 366.377 182.835C396.768 229.475 478.829 233.103 491.357 287.343C503.67 340.651 467.601 399.491 424.075 432.639C382.771 464.095 325.153 447.668 273.534 453.233C228.777 458.057 184.098 479.375 142.156 463.028C99.3806 446.357 73.2037 405.096 49.3616 365.864Z" fill="#C4C4C4"/>
<path fill-rule="evenodd" clip-rule="evenodd" d="M49.3616 365.864C24.9926 325.764 -4.99726 282.147 4.2785 236.149C13.3893 190.969 59.3105 165.312 95.5475 136.832C125.674 113.154 160.014 100.467 195.454 85.8962C240.463 67.391 288.043 16.2768 330.373 40.2844C374.073 65.0684 338.951 140.744 366.377 182.835C396.768 229.475 478.829 233.103 491.357 287.343C503.67 340.651 467.601 399.491 424.075 432.639C382.771 464.095 325.153 447.668 273.534 453.233C228.777 458.057 184.098 479.375 142.156 463.028C99.3806 446.357 73.2037 405.096 49.3616 365.864Z" fill="url(#paint0_linear_38_1120)"/>
<mask id="mask0_38_1120" style="mask-type:alpha" maskUnits="userSpaceOnUse" x="2" y="33" width="492" height="437">
<path fill-rule="evenodd" clip-rule="evenodd" d="M49.3616 365.864C24.9926 325.764 -4.99726 282.147 4.2785 236.149C13.3893 190.969 59.3105 165.312 95.5475 136.832C125.674 113.154 160.014 100.467 195.454 85.8962C240.463 67.391 288.043 16.2768 330.373 40.2844C374.073 65.0684 338.951 140.744 366.377 182.835C396.768 229.475 478.829 233.103 491.357 287.343C503.67 340.651 467.601 399.491 424.075 432.639C382.771 464.095 325.153 447.668 273.534 453.233C228.777 458.057 184.098 479.375 142.156 463.028C99.3806 446.357 73.2037 405.096 49.3616 365.864Z" fill="#2C1D89"/>
</mask>
<g mask="url(#mask0_38_1120)">
<g style="mix-blend-mode:overlay">
<path opacity="0.5" d="M533.145 248.719C539.481 255.055 544.507 262.578 547.936 270.856C551.366 279.135 553.13 288.008 553.13 296.968C553.13 305.929 551.366 314.802 547.936 323.08C544.507 331.359 539.481 338.881 533.145 345.217C526.809 351.553 519.287 356.579 511.008 360.008C502.73 363.438 493.857 365.202 484.896 365.202C475.936 365.202 467.063 363.438 458.784 360.008C450.506 356.579 442.983 351.553 436.647 345.217L461.537 320.328C464.604 323.396 468.246 325.829 472.254 327.489C476.262 329.149 480.558 330.004 484.896 330.004C489.235 330.004 493.53 329.149 497.538 327.489C501.546 325.829 505.188 323.395 508.256 320.328C511.323 317.26 513.757 313.618 515.417 309.61C517.077 305.602 517.932 301.307 517.932 296.968C517.932 292.63 517.077 288.334 515.417 284.326C513.757 280.318 511.323 276.676 508.256 273.609L533.145 248.719Z" fill="white" fill-opacity="0.6"/>
<path opacity="0.5" d="M-33.3234 315.485C-39.6595 309.149 -44.6856 301.627 -48.1147 293.348C-51.5438 285.069 -53.3087 276.197 -53.3087 267.236C-53.3087 258.275 -51.5438 249.402 -48.1147 241.124C-44.6856 232.845 -39.6595 225.323 -33.3233 218.987C-26.9872 212.651 -19.4651 207.625 -11.1866 204.196C-2.90799 200.767 5.96492 199.002 14.9256 199.002C23.8862 199.002 32.7591 200.767 41.0377 204.196C49.3162 207.625 56.8383 212.651 63.1745 218.987L38.2852 243.876C35.2176 240.809 31.5757 238.375 27.5677 236.715C23.5596 235.055 19.2638 234.2 14.9256 234.2C10.5873 234.2 6.29147 235.055 2.28342 236.715C-1.72463 238.375 -5.36644 240.809 -8.43407 243.876C-11.5017 246.944 -13.9351 250.586 -15.5953 254.594C-17.2555 258.602 -18.1099 262.898 -18.11 267.236C-18.1099 271.574 -17.2555 275.87 -15.5953 279.878C-13.9351 283.886 -11.5017 287.528 -8.43408 290.595L-33.3234 315.485Z" fill="white" fill-opacity="0.6"/>
<path opacity="0.5" d="M457.772 316.266C454.073 312.567 449.682 309.633 444.849 307.631C440.016 305.63 434.836 304.599 429.605 304.599C424.374 304.599 419.194 305.63 414.361 307.631C409.528 309.633 405.137 312.567 401.438 316.266C397.739 319.965 394.805 324.357 392.803 329.189C390.801 334.022 389.771 339.202 389.771 344.433C389.771 349.664 390.801 354.844 392.803 359.677C394.805 364.51 397.739 368.901 401.438 372.6L404.397 369.641C401.086 366.331 398.46 362.401 396.669 358.076C394.877 353.751 393.955 349.115 393.955 344.433C393.955 339.752 394.877 335.116 396.669 330.791C398.46 326.465 401.086 322.535 404.397 319.225C407.707 315.915 411.637 313.289 415.962 311.497C420.288 309.706 424.923 308.783 429.605 308.783C434.287 308.783 438.922 309.706 443.248 311.497C447.573 313.289 451.503 315.915 454.813 319.225L457.772 316.266Z" fill="white" fill-opacity="0.25"/>
<path opacity="0.5" d="M42.5709 248.457C46.2698 252.156 50.6611 255.09 55.494 257.092C60.3269 259.094 65.5067 260.124 70.7378 260.124C75.9689 260.124 81.1487 259.094 85.9816 257.092C90.8145 255.09 95.2058 252.156 98.9047 248.457C102.604 244.758 105.538 240.367 107.54 235.534C109.542 230.701 110.572 225.521 110.572 220.29C110.572 215.059 109.541 209.879 107.54 205.047C105.538 200.214 102.604 195.822 98.9047 192.123L95.946 195.082C99.2564 198.393 101.882 202.323 103.674 206.648C105.465 210.973 106.388 215.609 106.388 220.29C106.388 224.972 105.465 229.608 103.674 233.933C101.882 238.258 99.2564 242.188 95.946 245.499C92.6356 248.809 88.7056 251.435 84.3804 253.226C80.0552 255.018 75.4194 255.94 70.7378 255.94C66.0562 255.94 61.4204 255.018 57.0952 253.226C52.77 251.435 48.84 248.809 45.5296 245.499L42.5709 248.457Z" fill="white" fill-opacity="0.25"/>
<path opacity="0.5" d="M445.253 332.957C441.518 329.222 436.48 327.096 431.246 327.047C426.013 326.998 421.013 329.03 417.347 332.696C413.681 336.362 411.649 341.362 411.698 346.595C411.747 351.829 413.873 356.867 417.608 360.602L427.757 350.454C426.764 349.461 426.199 348.122 426.186 346.731C426.173 345.34 426.713 344.011 427.687 343.037C428.662 342.062 429.991 341.522 431.382 341.535C432.772 341.548 434.112 342.113 435.104 343.106L445.253 332.957Z" fill="white" fill-opacity="0.5"/>
<path opacity="0.5" d="M54.8284 231.504C58.4944 235.17 63.4666 237.229 68.6511 237.229C73.8356 237.229 78.8077 235.17 82.4737 231.504C86.1397 227.838 88.1993 222.866 88.1993 217.681C88.1993 212.497 86.1397 207.524 82.4737 203.859L72.325 214.007C73.2993 214.982 73.8467 216.303 73.8467 217.681C73.8467 219.059 73.2993 220.381 72.325 221.355C71.3506 222.329 70.029 222.877 68.6511 222.877C67.2731 222.877 65.9516 222.329 64.9772 221.355L54.8284 231.504Z" fill="white" fill-opacity="0.5"/>
<path opacity="0.5" fill-rule="evenodd" clip-rule="evenodd" d="M287.454 481.617C287.454 463.422 294.682 445.973 307.548 433.107L321.105 446.664C316.909 450.711 313.458 455.474 310.917 460.737C307.971 466.837 306.312 473.477 306.043 480.245C305.773 487.012 306.899 493.763 309.35 500.076C311.801 506.39 315.525 512.131 320.29 516.943C325.055 521.755 330.759 525.535 337.048 528.048C343.337 530.561 350.076 531.753 356.846 531.55C363.616 531.347 370.273 529.754 376.401 526.868C381.835 524.31 386.751 520.785 390.912 516.471L404.567 530.126C391.702 542.992 374.252 550.22 356.058 550.22C337.863 550.22 320.413 542.992 307.548 530.126C294.682 517.261 287.454 499.811 287.454 481.617ZM365.323 490.882L356.058 481.617L346.694 472.253C345.47 473.476 344.499 474.929 343.837 476.527C343.175 478.126 342.834 479.839 342.833 481.569C342.833 483.299 343.174 485.013 343.836 486.611C344.498 488.209 345.468 489.662 346.691 490.885C347.914 492.108 349.367 493.078 350.965 493.74C352.563 494.402 354.277 494.743 356.007 494.742C357.737 494.742 359.45 494.401 361.049 493.739C362.647 493.077 364.1 492.106 365.323 490.882Z" fill="white" fill-opacity="0.4"/>
<path opacity="0.5" fill-rule="evenodd" clip-rule="evenodd" d="M212.443 82.6619C212.394 100.808 205.139 118.23 192.273 131.095L178.789 117.611C182.984 113.564 186.439 108.804 188.987 103.549C191.941 97.4574 193.614 90.8305 193.901 84.0802C194.188 77.3299 193.083 70.6006 190.656 64.3108C188.228 58.0209 184.53 52.3051 179.791 47.5187C175.051 42.7323 169.373 38.9777 163.107 36.4884C156.842 33.9992 150.124 32.8284 143.372 33.0491C136.619 33.2697 129.977 34.877 123.857 37.771C118.431 40.337 113.518 43.8659 109.357 48.1792L95.7752 34.5974C108.641 21.7318 126.063 14.4766 144.208 14.4277C162.354 14.3787 179.737 21.5402 192.534 34.3366C205.33 47.133 212.492 64.5161 212.443 82.6619ZM134.808 73.6304L144.024 82.8463L153.338 92.16C154.561 90.9364 155.533 89.4852 156.198 87.8892C156.863 86.2931 157.208 84.5835 157.212 82.858C157.217 81.1325 156.882 79.4249 156.226 77.8326C155.571 76.2403 154.607 74.7945 153.39 73.5778C152.174 72.3612 150.728 71.3974 149.135 70.7416C147.543 70.0858 145.836 69.7508 144.11 69.7556C142.385 69.7605 140.675 70.1052 139.079 70.77C137.483 71.4348 136.032 72.4068 134.808 73.6304Z" fill="white" fill-opacity="0.4"/>
<path opacity="0.5" fill-rule="evenodd" clip-rule="evenodd" d="M408.736 373.649L388.663 393.722C389.614 394.674 390.367 395.805 390.879 397.051C391.391 398.298 391.652 399.635 391.646 400.986C391.641 402.337 391.369 403.677 390.846 404.927C390.324 406.178 389.561 407.316 388.602 408.275C387.642 409.235 386.505 409.998 385.254 410.52C384.003 411.042 382.664 411.314 381.313 411.32C379.961 411.325 378.624 411.065 377.378 410.553C376.131 410.041 375 409.288 374.049 408.336L353.976 428.409C357.123 431.673 360.831 434.352 364.933 436.319C369.688 438.599 374.869 439.873 380.154 440.06C385.439 440.248 390.715 439.346 395.655 437.41C400.594 435.475 405.091 432.547 408.866 428.809C412.641 425.071 415.613 420.602 417.597 415.682C419.581 410.761 420.534 405.493 420.399 400.206C420.263 394.919 419.041 389.725 416.808 384.948C414.828 380.712 412.091 376.884 408.736 373.649Z" fill="white" fill-opacity="0.4"/>
<path opacity="0.5" fill-rule="evenodd" clip-rule="evenodd" d="M92.1286 190.553L112.011 170.671C111.059 169.72 110.304 168.59 109.788 167.347C109.273 166.104 109.007 164.772 109.007 163.428C109.006 162.083 109.27 160.751 109.784 159.509C110.298 158.267 111.051 157.138 112.002 156.188C112.952 155.237 114.081 154.483 115.323 153.97C116.565 153.456 117.897 153.191 119.242 153.192C120.587 153.193 121.919 153.459 123.162 153.974C124.404 154.49 125.534 155.245 126.485 156.196L146.367 136.314C143.22 133.052 139.516 130.367 135.424 128.39C130.682 126.098 125.519 124.806 120.258 124.594C114.997 124.382 109.75 125.255 104.844 127.158C99.9367 129.061 95.4752 131.953 91.7362 135.655C87.9973 139.358 85.061 143.791 83.1098 148.678C81.1587 153.566 80.2346 158.804 80.3948 164.067C80.5551 169.33 81.7963 174.504 84.0413 179.269C86.0319 183.494 88.7739 187.317 92.1286 190.553Z" fill="white" fill-opacity="0.4"/>
<path opacity="0.5" fill-rule="evenodd" clip-rule="evenodd" d="M343.152 439.233L332.586 449.798C338.956 456.169 346.519 461.222 354.842 464.67C363.166 468.117 372.087 469.892 381.096 469.892C390.105 469.892 399.026 468.117 407.349 464.67C415.672 461.222 423.235 456.169 429.605 449.798C435.976 443.428 441.029 435.865 444.477 427.542C447.924 419.219 449.699 410.298 449.699 401.289C449.699 392.28 447.924 383.359 444.477 375.035C441.029 366.712 435.976 359.149 429.605 352.779L419.04 363.345C423.638 367.825 427.4 373.101 430.14 378.923C433.275 385.583 435.006 392.818 435.226 400.176C435.446 407.534 434.149 414.859 431.417 421.695C428.685 428.53 424.576 434.731 419.345 439.911C414.114 445.09 407.873 449.138 401.011 451.803C394.149 454.468 386.812 455.693 379.456 455.401C372.1 455.109 364.883 453.306 358.254 450.106C352.617 447.385 347.508 443.703 343.152 439.233Z" fill="white" fill-opacity="0.25"/>
<path opacity="0.5" fill-rule="evenodd" clip-rule="evenodd" d="M157.191 125.491L167.757 114.925C161.387 108.555 153.824 103.502 145.501 100.054C137.178 96.6064 128.257 94.8319 119.248 94.8319C110.239 94.8319 101.318 96.6064 92.9944 100.054C84.6711 103.502 77.1083 108.555 70.7379 114.925C64.3675 121.296 59.3143 128.858 55.8666 137.182C52.419 145.505 50.6445 154.426 50.6445 163.435C50.6445 172.444 52.419 181.365 55.8666 189.688C59.3143 198.012 64.3675 205.574 70.7379 211.945L81.3036 201.379C76.7057 196.898 72.9437 191.623 70.2031 185.801C67.0681 179.14 65.3369 171.906 65.1172 164.548C64.8975 157.189 66.1941 149.865 68.9262 143.029C71.6583 136.193 75.7676 129.993 80.9985 124.813C86.2294 119.633 92.47 115.585 99.3322 112.92C106.194 110.256 113.532 109.031 120.887 109.323C128.243 109.615 135.46 111.417 142.089 114.618C147.726 117.339 152.835 121.021 157.191 125.491Z" fill="white" fill-opacity="0.25"/>
<path opacity="0.5" d="M435.343 239.589C441.165 233.767 448.138 229.209 455.863 226.176C463.589 223.143 471.915 221.694 480.367 221.912C488.819 222.13 497.231 224.011 505.123 227.446C513.016 230.882 520.233 235.806 526.364 241.937L513.733 254.567C509.349 250.183 504.188 246.662 498.544 244.205C492.9 241.748 486.884 240.403 480.84 240.247C474.796 240.091 468.841 241.127 463.317 243.296C457.792 245.466 452.806 248.725 448.642 252.889L435.343 239.589Z" fill="white" fill-opacity="0.3"/>
<path opacity="0.5" d="M64.9991 325.132C59.1767 330.955 52.2038 335.512 44.4785 338.546C36.7532 341.579 28.4268 343.028 19.9748 342.81C11.5227 342.592 3.11047 340.711 -4.78164 337.275C-12.6737 333.839 -19.8912 328.916 -26.0218 322.785L-13.3913 310.154C-9.00711 314.539 -3.84577 318.06 1.79806 320.517C7.44189 322.974 13.4577 324.319 19.502 324.475C25.5462 324.63 31.5006 323.594 37.0251 321.425C42.5497 319.256 47.5362 315.997 51.6999 311.833L64.9991 325.132Z" fill="white" fill-opacity="0.3"/>
<path opacity="0.5" d="M452.295 257.062C455.959 253.398 460.31 250.491 465.098 248.507C469.886 246.524 475.018 245.503 480.201 245.503C485.383 245.503 490.515 246.524 495.303 248.507C500.091 250.491 504.442 253.398 508.107 257.062L499.728 265.441C497.164 262.877 494.119 260.842 490.769 259.455C487.418 258.067 483.827 257.352 480.201 257.352C476.574 257.352 472.983 258.067 469.632 259.455C466.282 260.842 463.238 262.877 460.673 265.441L452.295 257.062Z" fill="white" fill-opacity="0.7"/>
<path opacity="0.5" d="M47.5256 307.138C43.8609 310.802 39.5171 313.716 34.742 315.713C29.967 317.709 24.8543 318.749 19.6959 318.773C14.5375 318.797 9.43431 317.805 4.67782 315.854C-0.0786807 313.902 -4.39538 311.029 -8.02581 307.398L0.352815 299.02C2.89324 301.56 5.91387 303.571 9.24226 304.936C12.5707 306.302 16.1416 306.996 19.7513 306.979C23.3609 306.962 26.9385 306.235 30.2799 304.838C33.6213 303.441 36.6609 301.402 39.2253 298.837L47.5256 307.138Z" fill="white" fill-opacity="0.7"/>
<path opacity="0.5" d="M442.384 253.412C437.898 257.898 432.571 261.458 426.709 263.886C420.847 266.314 414.564 267.564 408.219 267.564C401.874 267.564 395.591 266.314 389.729 263.886C383.866 261.458 378.54 257.899 374.053 253.412C369.567 248.925 366.008 243.599 363.579 237.737C361.151 231.874 359.902 225.592 359.902 219.246C359.902 212.901 361.151 206.618 363.579 200.756C366.008 194.894 369.567 189.568 374.053 185.081L398.81 209.838C397.575 211.073 396.595 212.54 395.926 214.155C395.257 215.769 394.913 217.499 394.913 219.246C394.913 220.994 395.257 222.724 395.926 224.338C396.595 225.953 397.575 227.419 398.81 228.655C400.046 229.89 401.513 230.871 403.127 231.539C404.741 232.208 406.471 232.552 408.219 232.552C409.966 232.552 411.696 232.208 413.311 231.539C414.925 230.871 416.392 229.89 417.627 228.655L442.384 253.412Z" fill="white" fill-opacity="0.25"/>
<path opacity="0.5" d="M57.436 310.79C61.9227 306.304 67.2559 302.751 73.1311 300.336C79.0063 297.921 85.3085 296.691 91.6778 296.715C98.0471 296.739 104.359 298.018 110.253 300.477C116.146 302.937 121.507 306.53 126.028 311.051C130.549 315.572 134.142 320.932 136.601 326.826C139.061 332.72 140.34 339.032 140.364 345.401C140.388 351.77 139.158 358.072 136.742 363.948C134.327 369.823 130.775 375.156 126.288 379.643L101.343 354.697C102.578 353.461 103.556 351.993 104.221 350.375C104.887 348.757 105.225 347.021 105.219 345.267C105.212 343.513 104.86 341.775 104.183 340.152C103.505 338.529 102.516 337.053 101.271 335.808C100.026 334.563 98.5497 333.573 96.9266 332.896C95.3036 332.219 93.5654 331.867 91.8115 331.86C90.0575 331.853 88.3219 332.192 86.704 332.857C85.0861 333.522 83.6174 334.501 82.3819 335.736L57.436 310.79Z" fill="white" fill-opacity="0.25"/>
<path opacity="0.5" d="M178.19 431.021C181.683 427.528 185.831 424.757 190.395 422.866C194.959 420.975 199.852 420.002 204.792 420.002C209.732 420.002 214.625 420.975 219.189 422.866C223.753 424.757 227.901 427.528 231.394 431.021C234.888 434.515 237.659 438.662 239.549 443.226C241.44 447.791 242.413 452.683 242.413 457.623C242.413 462.564 241.44 467.456 239.549 472.02C237.659 476.585 234.888 480.732 231.394 484.226L212.118 464.949C213.08 463.987 213.843 462.845 214.364 461.588C214.884 460.331 215.152 458.984 215.152 457.623C215.152 456.263 214.884 454.916 214.364 453.659C213.843 452.402 213.08 451.26 212.118 450.298C211.156 449.336 210.014 448.573 208.757 448.052C207.5 447.531 206.153 447.263 204.792 447.263C203.431 447.263 202.084 447.531 200.827 448.052C199.57 448.573 198.428 449.336 197.466 450.298L178.19 431.021Z" fill="white" fill-opacity="0.25"/>
<path opacity="0.5" d="M329.977 141.527C324.716 146.788 317.997 150.356 310.671 151.779C303.344 153.202 295.739 152.416 288.817 149.521C281.895 146.626 275.967 141.751 271.783 135.514C267.598 129.277 265.345 121.957 265.309 114.479C265.272 107.002 267.454 99.7036 271.578 93.5068C275.702 87.31 281.582 82.4932 288.476 79.6655C295.371 76.8377 302.968 76.1262 310.309 77.6207C317.65 79.1152 324.403 82.7487 329.716 88.0616L310.44 107.338C308.977 105.875 307.117 104.874 305.096 104.463C303.074 104.051 300.982 104.247 299.083 105.026C297.185 105.805 295.565 107.131 294.43 108.837C293.294 110.544 292.693 112.554 292.703 114.613C292.713 116.672 293.334 118.688 294.486 120.405C295.638 122.123 297.271 123.465 299.177 124.263C301.083 125.06 303.178 125.276 305.195 124.885C307.213 124.493 309.063 123.51 310.512 122.061L329.977 141.527Z" fill="white" fill-opacity="0.25"/>
<path opacity="0.5" fill-rule="evenodd" clip-rule="evenodd" d="M278.075 390.104L278.075 390.104L287.398 399.426C288.616 398.208 289.582 396.762 290.242 395.171C290.901 393.579 291.24 391.874 291.241 390.151C291.241 388.429 290.902 386.723 290.243 385.132C289.584 383.541 288.618 382.095 287.4 380.877C287.384 380.861 287.367 380.844 287.351 380.828L278.075 390.104ZM313.465 354.715C313.538 354.788 313.611 354.861 313.684 354.935C318.428 359.725 322.135 365.441 324.575 371.727C327.015 378.012 328.136 384.732 327.868 391.47C327.599 398.208 325.948 404.818 323.015 410.891C320.486 416.13 317.05 420.872 312.873 424.901L326.369 438.398C339.178 425.589 346.373 408.218 346.373 390.104C346.373 371.99 339.178 354.619 326.369 341.81C326.369 341.81 326.369 341.81 326.369 341.81L313.465 354.715Z" fill="white" fill-opacity="0.25"/>
<path opacity="0.5" fill-rule="evenodd" clip-rule="evenodd" d="M222.236 174.46L222.236 174.459L212.914 165.137C211.696 166.355 210.729 167.801 210.07 169.393C209.411 170.984 209.071 172.69 209.071 174.412C209.071 176.135 209.41 177.84 210.069 179.432C210.728 181.023 211.694 182.469 212.911 183.686C212.928 183.703 212.944 183.719 212.96 183.735L222.236 174.46ZM186.847 209.849C186.773 209.776 186.7 209.702 186.627 209.629C181.884 204.838 178.176 199.122 175.736 192.837C173.296 186.552 172.175 179.831 172.444 173.094C172.712 166.356 174.364 159.745 177.296 153.672C179.826 148.433 183.262 143.691 187.439 139.662L173.942 126.166C161.134 138.974 153.938 156.346 153.938 174.459C153.938 192.573 161.134 209.945 173.942 222.753C173.942 222.753 173.942 222.753 173.942 222.753L186.847 209.849Z" fill="white" fill-opacity="0.25"/>
<path opacity="0.5" fill-rule="evenodd" clip-rule="evenodd" d="M263.665 376.03C263.81 375.87 263.959 375.714 264.112 375.561C265.35 374.323 266.82 373.34 268.439 372.67C270.057 372 271.791 371.655 273.543 371.655C275.295 371.655 277.029 372 278.647 372.671C280.266 373.341 281.736 374.324 282.975 375.562L307.791 350.746C303.293 346.248 297.954 342.68 292.077 340.246C286.201 337.811 279.902 336.558 273.542 336.558C267.181 336.558 260.883 337.811 255.006 340.244C249.13 342.678 243.791 346.246 239.293 350.743C239.141 350.896 238.989 351.049 238.839 351.204L263.665 376.03Z" fill="white" fill-opacity="0.25"/>
<path opacity="0.5" fill-rule="evenodd" clip-rule="evenodd" d="M236.644 188.533C236.495 188.697 236.342 188.859 236.185 189.016C234.946 190.254 233.476 191.237 231.857 191.907C230.239 192.577 228.505 192.922 226.753 192.922C225.002 192.922 223.267 192.577 221.649 191.907C220.031 191.236 218.56 190.254 217.322 189.015L192.505 213.832C197.003 218.329 202.343 221.897 208.219 224.332C214.096 226.766 220.394 228.019 226.755 228.019C233.115 228.019 239.413 226.767 245.29 224.333C251.166 221.899 256.505 218.332 261.003 213.834C261.16 213.677 261.316 213.519 261.471 213.36L236.644 188.533Z" fill="white" fill-opacity="0.25"/>
<path opacity="0.5" d="M306.244 361.906C309.908 365.571 312.815 369.921 314.799 374.709C316.782 379.497 317.803 384.629 317.803 389.812C317.803 394.995 316.782 400.127 314.799 404.915C312.815 409.703 309.908 414.053 306.244 417.718C302.579 421.383 298.228 424.29 293.44 426.273C288.652 428.256 283.52 429.277 278.338 429.277C273.155 429.277 268.023 428.256 263.235 426.273C258.447 424.29 254.096 421.383 250.432 417.718L265.481 402.669C267.169 404.357 269.174 405.696 271.38 406.61C273.586 407.524 275.95 407.994 278.338 407.994C280.725 407.994 283.09 407.524 285.296 406.61C287.502 405.696 289.506 404.357 291.194 402.669C292.883 400.98 294.222 398.976 295.136 396.77C296.049 394.564 296.52 392.2 296.52 389.812C296.52 387.424 296.049 385.06 295.136 382.854C294.222 380.648 292.883 378.644 291.194 376.955L306.244 361.906Z" fill="white" fill-opacity="0.25"/>
<path opacity="0.5" d="M193.837 202.555C190.138 198.856 187.197 194.472 185.182 189.652C183.167 184.832 182.117 179.671 182.093 174.464C182.069 169.258 183.071 164.106 185.041 159.305C187.011 154.504 189.911 150.147 193.576 146.482C197.241 142.817 201.598 139.917 206.399 137.947C211.2 135.977 216.352 134.975 221.558 134.999C226.765 135.023 231.926 136.073 236.746 138.088C241.566 140.103 245.95 143.044 249.649 146.743L234.599 161.792C232.895 160.088 230.875 158.733 228.655 157.805C226.434 156.877 224.057 156.393 221.658 156.382C219.259 156.371 216.886 156.832 214.674 157.74C212.462 158.648 210.454 159.984 208.766 161.672C207.078 163.36 205.742 165.368 204.834 167.58C203.926 169.792 203.465 172.165 203.476 174.564C203.487 176.963 203.971 179.34 204.899 181.561C205.827 183.781 207.182 185.801 208.886 187.505L193.837 202.555Z" fill="white" fill-opacity="0.25"/>
<path opacity="0.5" fill-rule="evenodd" clip-rule="evenodd" d="M287.727 380.946L278.388 390.286L268.949 399.724C270.114 400.889 271.51 401.799 273.057 402.403C274.605 403.007 276.274 403.293 277.969 403.244C279.665 403.196 281.353 402.814 282.938 402.121C284.522 401.427 285.973 400.435 287.206 399.203C288.439 397.97 289.43 396.519 290.124 394.935C290.817 393.35 291.199 391.662 291.247 389.966C291.296 388.271 291.01 386.602 290.406 385.054C289.802 383.507 288.892 382.111 287.727 380.946Z" fill="white" fill-opacity="0.6"/>
<path opacity="0.5" fill-rule="evenodd" clip-rule="evenodd" d="M212.616 183.777L221.955 174.438L231.394 165C230.229 163.835 228.833 162.925 227.285 162.321C225.738 161.717 224.069 161.431 222.373 161.479C220.678 161.528 218.99 161.91 217.405 162.603C215.82 163.297 214.37 164.288 213.137 165.521C211.904 166.754 210.913 168.204 210.219 169.789C209.526 171.374 209.144 173.062 209.095 174.757C209.047 176.453 209.333 178.122 209.937 179.669C210.541 181.217 211.451 182.613 212.616 183.777Z" fill="white" fill-opacity="0.6"/>
<path opacity="0.5" d="M470.031 281.058L470.277 281.236C476.967 286.071 485.995 286.105 492.721 281.319C487.935 288.045 487.968 297.073 492.803 303.763L492.981 304.009L492.735 303.831C486.045 298.996 477.017 298.963 470.291 303.748C475.077 297.023 475.044 287.995 470.209 281.305L470.031 281.058Z" fill="white" fill-opacity="0.6"/>
<path opacity="0.5" d="M30.5734 283.405C23.714 278.485 14.4821 278.485 7.62259 283.405C12.5419 276.545 12.5419 267.313 7.6226 260.454C14.4821 265.373 23.714 265.373 30.5734 260.454C25.6541 267.313 25.6541 276.545 30.5734 283.405Z" fill="white" fill-opacity="0.6"/>
<path opacity="0.5" d="M349.538 303.486L359.512 312.332C360.815 313.487 362.776 313.487 364.079 312.332L374.053 303.486L365.207 313.46C364.052 314.763 364.052 316.724 365.207 318.027L374.053 328.001L364.079 319.155C362.776 318 360.815 318 359.512 319.155L349.538 328.001L358.384 318.027C359.539 316.724 359.539 314.763 358.384 313.46L349.538 303.486Z" fill="white"/>
<path opacity="0.5" d="M151.066 260.975L141.103 252.117C139.802 250.96 137.862 250.939 136.585 252.068L126.811 260.714L135.457 250.94C136.586 249.663 136.565 247.723 135.408 246.422L126.55 236.459L136.513 245.317C137.814 246.475 139.754 246.495 141.031 245.366L150.805 236.72L142.159 246.495C141.03 247.771 141.051 249.711 142.208 251.012L151.066 260.975Z" fill="white" fill-opacity="0.6"/>
<path opacity="0.5" d="M216.267 371.036L226.029 379.694C227.304 380.824 229.223 380.824 230.498 379.694L240.261 371.036L231.603 380.798C230.472 382.073 230.472 383.992 231.603 385.267L240.261 395.03L230.498 386.372C229.223 385.241 227.304 385.241 226.029 386.372L216.267 395.03L224.924 385.267C226.055 383.992 226.055 382.073 224.924 380.798L216.267 371.036Z" fill="white" fill-opacity="0.6"/>
<path opacity="0.5" d="M284.076 193.688L274.314 185.03C273.039 183.899 271.12 183.899 269.845 185.03L260.082 193.688L268.74 183.926C269.871 182.65 269.871 180.731 268.74 179.456L260.082 169.694L269.845 178.352C271.12 179.483 273.039 179.483 274.314 178.352L284.076 169.694L275.418 179.456C274.287 180.731 274.287 182.65 275.418 183.926L284.076 193.688Z" fill="white" fill-opacity="0.6"/>
<path opacity="0.5" d="M467.161 278.71C459.489 286.382 450.374 292.46 440.337 296.599C430.3 300.738 419.538 302.856 408.664 302.832C397.79 302.808 387.018 300.642 376.963 296.458C366.907 292.275 357.765 286.155 350.059 278.449C342.353 270.743 336.234 261.601 332.05 251.546C327.866 241.49 325.701 230.718 325.676 219.844C325.652 208.97 327.77 198.208 331.909 188.171C336.048 178.134 342.127 169.019 349.798 161.348L353.615 165.164C346.442 172.337 340.758 180.859 336.889 190.243C333.019 199.627 331.039 209.689 331.061 219.856C331.084 230.023 333.109 240.094 337.02 249.496C340.932 258.897 346.654 267.445 353.859 274.65C361.064 281.855 369.611 287.576 379.012 291.488C388.414 295.399 398.485 297.424 408.652 297.447C418.819 297.469 428.881 295.489 438.265 291.62C447.65 287.75 456.171 282.066 463.344 274.893L467.161 278.71Z" fill="white" fill-opacity="0.7"/>
<path opacity="0.5" d="M33.1813 286.012C40.8531 278.34 49.9609 272.255 59.9847 268.103C70.0085 263.951 80.7519 261.814 91.6015 261.814C102.451 261.814 113.195 263.951 123.218 268.103C133.242 272.255 142.35 278.34 150.022 286.012C157.694 293.684 163.779 302.792 167.931 312.816C172.083 322.839 174.22 333.583 174.22 344.432C174.22 355.282 172.083 366.025 167.931 376.049C163.779 386.073 157.694 395.181 150.022 402.853L146.223 399.053C153.395 391.88 159.085 383.365 162.967 373.993C166.849 364.621 168.847 354.576 168.847 344.432C168.847 334.288 166.849 324.244 162.967 314.872C159.085 305.5 153.395 296.984 146.223 289.811C139.05 282.638 130.534 276.949 121.162 273.067C111.79 269.185 101.746 267.187 91.6015 267.187C81.4575 267.187 71.4128 269.185 62.0409 273.067C52.669 276.949 44.1535 282.638 36.9806 289.811L33.1813 286.012Z" fill="white" fill-opacity="0.7"/>
<path opacity="0.5" d="M354.232 156.912C357.485 153.659 361.355 151.084 365.619 149.336C369.883 147.589 374.459 146.702 379.085 146.726C383.71 146.75 388.295 147.685 392.578 149.478C396.861 151.27 400.757 153.885 404.045 157.173C407.333 160.461 409.948 164.358 411.741 168.64C413.533 172.923 414.468 177.508 414.493 182.134C414.517 186.76 413.63 191.335 411.882 195.599C410.134 199.864 407.56 203.733 404.306 206.987L400.594 203.274C403.365 200.503 405.558 197.207 407.046 193.575C408.535 189.943 409.291 186.046 409.27 182.107C409.249 178.167 408.453 174.261 406.926 170.614C405.399 166.966 403.172 163.647 400.372 160.847C397.571 158.046 394.252 155.819 390.605 154.292C386.957 152.766 383.052 151.969 379.112 151.949C375.172 151.928 371.275 152.683 367.643 154.172C364.011 155.661 360.715 157.853 357.944 160.625L354.232 156.912Z" fill="white" fill-opacity="0.7"/>
<path opacity="0.5" d="M145.588 407.288C142.335 410.542 138.472 413.123 134.221 414.883C129.97 416.644 125.413 417.551 120.812 417.551C116.211 417.551 111.654 416.644 107.403 414.883C103.152 413.123 99.2892 410.542 96.0356 407.288C92.7819 404.034 90.2009 400.171 88.44 395.92C86.6791 391.669 85.7728 387.113 85.7728 382.511C85.7728 377.91 86.6791 373.354 88.44 369.102C90.2009 364.851 92.7819 360.989 96.0356 357.735L99.7092 361.409C96.938 364.18 94.7397 367.47 93.2399 371.091C91.7401 374.711 90.9681 378.592 90.9681 382.511C90.9681 386.431 91.7401 390.311 93.2399 393.932C94.7397 397.553 96.9379 400.843 99.7092 403.614C102.48 406.385 105.77 408.584 109.391 410.084C113.012 411.583 116.893 412.355 120.812 412.355C124.731 412.355 128.612 411.583 132.233 410.084C135.854 408.584 139.144 406.385 141.915 403.614L145.588 407.288Z" fill="white" fill-opacity="0.7"/>
<path opacity="0.5" d="M215.484 329.044C223.122 321.407 232.196 315.355 242.188 311.235C252.18 307.114 262.895 305.006 273.72 305.03C284.546 305.055 295.27 307.211 305.281 311.376C315.291 315.541 324.392 321.633 332.064 329.305C339.736 336.977 345.828 346.078 349.994 356.089C354.159 366.099 356.315 376.824 356.339 387.649C356.363 398.475 354.255 409.189 350.135 419.181C346.014 429.173 339.963 438.247 332.325 445.885L328.526 442.086C335.667 434.945 341.325 426.461 345.177 417.119C349.03 407.776 351.001 397.758 350.978 387.637C350.955 377.516 348.939 367.489 345.045 358.129C341.151 348.77 335.455 340.26 328.282 333.088C321.109 325.915 312.6 320.218 303.24 316.324C293.88 312.43 283.854 310.414 273.732 310.391C263.611 310.369 253.593 312.34 244.251 316.192C234.908 320.045 226.425 325.703 219.284 332.844L215.484 329.044Z" fill="white" fill-opacity="0.7"/>
<path opacity="0.5" d="M284.858 235.677C277.22 243.315 268.146 249.367 258.154 253.487C248.162 257.607 237.447 259.716 226.622 259.691C215.797 259.667 205.072 257.511 195.062 253.346C185.051 249.181 175.95 243.088 168.278 235.416C160.606 227.745 154.514 218.644 150.349 208.633C146.184 198.622 144.027 187.898 144.003 177.073C143.979 166.247 146.087 155.532 150.208 145.54C154.328 135.548 160.38 126.474 168.017 118.837L171.817 122.636C164.676 129.777 159.018 138.261 155.165 147.603C151.313 156.945 149.342 166.963 149.364 177.085C149.387 187.206 151.403 197.233 155.297 206.592C159.191 215.952 164.887 224.461 172.06 231.634C179.233 238.807 187.743 244.503 197.102 248.397C206.462 252.292 216.489 254.308 226.61 254.33C236.731 254.353 246.749 252.382 256.092 248.529C265.434 244.677 273.918 239.019 281.059 231.878L284.858 235.677Z" fill="white" fill-opacity="0.7"/>
<path opacity="0.5" d="M456.468 267.496C450.132 273.832 442.61 278.858 434.331 282.288C426.053 285.717 417.18 287.482 408.219 287.482C399.259 287.482 390.386 285.717 382.107 282.288C373.829 278.858 366.306 273.832 359.97 267.496C353.634 261.16 348.608 253.638 345.179 245.359C341.75 237.081 339.985 228.208 339.985 219.247C339.985 210.287 341.75 201.414 345.179 193.135C348.608 184.857 353.634 177.335 359.97 170.998L368.986 180.014C363.834 185.166 359.747 191.283 356.959 198.015C354.171 204.746 352.735 211.961 352.735 219.247C352.735 226.534 354.171 233.748 356.959 240.48C359.747 247.212 363.834 253.328 368.986 258.48C374.138 263.632 380.255 267.719 386.986 270.508C393.718 273.296 400.933 274.731 408.219 274.731C415.505 274.731 422.72 273.296 429.452 270.508C436.184 267.719 442.3 263.632 447.452 258.48L456.468 267.496Z" fill="white" fill-opacity="0.7"/>
<path opacity="0.5" d="M43.353 296.706C49.6891 290.37 57.218 285.35 65.5097 281.934C73.8013 278.518 82.6934 276.773 91.6783 276.797C100.663 276.821 109.565 278.615 117.875 282.075C126.185 285.536 133.741 290.596 140.112 296.967C146.482 303.337 151.542 310.893 155.003 319.203C158.463 327.513 160.257 336.415 160.281 345.4C160.306 354.385 158.56 363.277 155.144 371.569C151.728 379.86 146.709 387.389 140.372 393.725L131.308 384.661C136.46 379.508 140.541 373.386 143.319 366.644C146.097 359.902 147.516 352.671 147.497 345.365C147.477 338.06 146.018 330.821 143.204 324.064C140.39 317.307 136.276 311.163 131.096 305.983C125.916 300.803 119.772 296.688 113.014 293.874C106.257 291.06 99.0187 289.601 91.7128 289.582C84.4068 289.562 77.1763 290.982 70.434 293.759C63.6918 296.537 57.5698 300.618 52.4177 305.77L43.353 296.706Z" fill="white" fill-opacity="0.7"/>
<path opacity="0.5" d="M163.845 417.198C169.222 411.821 175.599 407.548 182.612 404.625C189.624 401.702 197.135 400.185 204.715 400.161C212.295 400.137 219.797 401.606 226.791 404.484C233.785 407.362 240.134 411.594 245.477 416.937C250.82 422.28 255.052 428.629 257.93 435.623C260.808 442.617 262.278 450.119 262.253 457.699C262.229 465.279 260.712 472.79 257.789 479.802C254.866 486.815 250.594 493.192 245.216 498.569L237.614 490.966C241.986 486.594 245.46 481.409 247.837 475.706C250.214 470.004 251.447 463.897 251.467 457.733C251.487 451.57 250.292 445.47 247.952 439.783C245.611 434.096 242.17 428.933 237.826 424.588C233.481 420.244 228.318 416.803 222.631 414.462C216.944 412.122 210.845 410.927 204.681 410.947C198.517 410.967 192.41 412.2 186.708 414.577C181.005 416.954 175.82 420.428 171.448 424.8L163.845 417.198Z" fill="white" fill-opacity="0.7"/>
<path opacity="0.5" d="M344.322 155.35C336.224 163.449 325.906 168.964 314.673 171.198C303.44 173.433 291.797 172.286 281.216 167.903C270.635 163.52 261.591 156.098 255.228 146.575C248.865 137.053 245.469 125.857 245.469 114.404C245.469 102.951 248.865 91.7553 255.228 82.2326C261.591 72.7098 270.635 65.2878 281.216 60.9049C291.797 56.5221 303.44 55.3754 314.673 57.6097C325.906 59.8441 336.224 65.3592 344.322 73.4576L334.086 83.6942C328.012 77.6204 320.273 73.484 311.849 71.8083C303.424 70.1325 294.692 70.9926 286.756 74.2797C278.82 77.5668 272.037 83.1334 267.265 90.2754C262.493 97.4175 259.946 105.814 259.946 114.404C259.946 122.994 262.493 131.39 267.265 138.532C272.037 145.675 278.82 151.241 286.756 154.528C294.692 157.815 303.424 158.675 311.849 157C320.273 155.324 328.012 151.188 334.086 145.114L344.322 155.35Z" fill="white" fill-opacity="0.7"/>
<path opacity="0.5" fill-rule="evenodd" clip-rule="evenodd" d="M448.731 184.375C448.682 202.521 441.427 219.943 428.562 232.808L415.077 219.324C419.273 215.277 422.728 210.517 425.276 205.262C428.23 199.17 429.902 192.543 430.189 185.793C430.476 179.043 429.372 172.313 426.944 166.024C424.517 159.734 420.819 154.018 416.079 149.232C411.34 144.445 405.661 140.691 399.396 138.201C393.13 135.712 386.413 134.541 379.66 134.762C372.908 134.983 366.265 136.59 360.145 139.484C354.719 142.05 349.807 145.579 345.645 149.892L332.064 136.31C344.929 123.445 362.351 116.189 380.497 116.141C398.643 116.092 416.026 123.253 428.822 136.05C441.619 148.846 448.78 166.229 448.731 184.375ZM371.097 175.343L380.313 184.559L389.626 193.873C390.85 192.649 391.822 191.198 392.487 189.602C393.151 188.006 393.496 186.296 393.501 184.571C393.506 182.845 393.171 181.138 392.515 179.545C391.859 177.953 390.895 176.507 389.679 175.291C388.462 174.074 387.016 173.11 385.424 172.455C383.832 171.799 382.124 171.464 380.399 171.469C378.673 171.473 376.964 171.818 375.367 172.483C373.771 173.148 372.32 174.12 371.097 175.343Z" fill="white" fill-opacity="0.25"/>
<path opacity="0.5" fill-rule="evenodd" clip-rule="evenodd" d="M51.6105 380.347C51.6594 362.201 58.9147 344.779 71.7803 331.914L85.2643 345.398C81.0691 349.445 77.6141 354.205 75.0657 359.46C72.1119 365.551 70.4395 372.178 70.1525 378.929C69.8655 385.679 70.97 392.408 73.3974 398.698C75.8248 404.988 79.5232 410.704 84.2625 415.49C89.0018 420.277 94.6807 424.031 100.946 426.52C107.211 429.01 113.929 430.18 120.682 429.96C127.434 429.739 134.077 428.132 140.196 425.238C145.623 422.672 150.535 419.143 154.696 414.83L168.278 428.411C155.412 441.277 137.99 448.532 119.845 448.581C101.699 448.63 84.3159 441.469 71.5195 428.672C58.7231 415.876 51.5616 398.493 51.6105 380.347ZM129.245 389.378L120.029 380.162L110.716 370.849C109.492 372.072 108.52 373.524 107.855 375.12C107.19 376.716 106.846 378.425 106.841 380.151C106.836 381.876 107.171 383.584 107.827 385.176C108.483 386.768 109.446 388.214 110.663 389.431C111.88 390.648 113.325 391.611 114.918 392.267C116.51 392.923 118.218 393.258 119.943 393.253C121.669 393.248 123.378 392.904 124.974 392.239C126.57 391.574 128.022 390.602 129.245 389.378Z" fill="white" fill-opacity="0.25"/>
<path opacity="0.5" d="M189.925 451.625C196.629 456.432 205.651 456.432 212.354 451.625C207.547 458.328 207.547 467.35 212.354 474.054C205.651 469.246 196.629 469.246 189.925 474.054C194.733 467.35 194.733 458.328 189.925 451.625Z" fill="white" fill-opacity="0.6"/>
<path opacity="0.5" d="M282.511 2.25645C274.839 9.92831 265.731 16.014 255.707 20.1659C245.683 24.3179 234.94 26.4549 224.09 26.4549C213.241 26.4549 202.497 24.3179 192.474 20.1659C182.45 16.014 173.342 9.92831 165.67 2.25645C157.998 -5.41542 151.913 -14.5232 147.761 -24.547C143.609 -34.5708 141.472 -45.3142 141.472 -56.1638C141.472 -67.0135 143.609 -77.7569 147.761 -87.7807C151.913 -97.8044 157.998 -106.912 165.67 -114.584L169.469 -110.785C162.296 -103.612 156.607 -95.0964 152.725 -85.7245C148.843 -76.3526 146.845 -66.3079 146.845 -56.1638C146.845 -46.0198 148.843 -35.9751 152.725 -26.6032C156.607 -17.2313 162.296 -8.71579 169.469 -1.54286C176.642 5.63007 185.158 11.3199 194.53 15.2019C203.902 19.0839 213.946 21.0819 224.09 21.0819C234.234 21.0819 244.279 19.0839 253.651 15.2019C263.023 11.32 271.538 5.63007 278.711 -1.54286L282.511 2.25645Z" fill="white" fill-opacity="0.7"/>
<path opacity="0.5" d="M272.34 -8.43545C266.004 -2.09932 258.481 2.92677 250.203 6.35587C241.924 9.78496 233.051 11.5499 224.091 11.5499C215.13 11.5499 206.257 9.78496 197.979 6.35587C189.7 2.92678 182.178 -2.09932 175.842 -8.43545C169.506 -14.7716 164.48 -22.2937 161.051 -30.5722C157.622 -38.8508 155.857 -47.7237 155.857 -56.6844C155.857 -65.645 157.622 -74.5179 161.051 -82.7965C164.48 -91.075 169.506 -98.5971 175.842 -104.933L184.858 -95.9173C179.706 -90.7652 175.619 -84.6487 172.83 -77.9171C170.042 -71.1855 168.607 -63.9706 168.607 -56.6844C168.607 -49.3981 170.042 -42.1832 172.83 -35.4516C175.619 -28.72 179.706 -22.6035 184.858 -17.4514C190.01 -12.2992 196.126 -8.2123 202.858 -5.42398C209.59 -2.63567 216.805 -1.20053 224.091 -1.20053C231.377 -1.20053 238.592 -2.63566 245.324 -5.42399C252.055 -8.21231 258.172 -12.2992 263.324 -17.4514L272.34 -8.43545Z" fill="white" fill-opacity="0.7"/>
</g>
</g>
<ellipse cx="269.167" cy="440.803" rx="218.167" ry="37.5303" fill="#570000"/>
<path d="M384.505 401C384.505 401 496.926 430.054 470 450C456.5 460 251.433 464.772 204 463.5C80.7221 460.192 75.0002 425.248 96.5 422.5C155.5 412.5 216.016 421.483 200.5 437C184.984 452.516 154.55 450.534 129.5 441C104.45 431.466 137.5 428 156.5 428C170.503 428 247.046 440.203 253.5 441C294 446 431.315 465.69 425.505 441C421.505 424 407.005 414.5 384.505 408.5" stroke="url(#paint1_radial_38_1120)" stroke-width="5.20322" stroke-linecap="round" stroke-linejoin="round"/>
<path d="M177.904 248.498L228.607 234L385.679 245.174L356.558 260.67L177.904 248.498Z" fill="url(#paint2_linear_38_1120)"/>
<path d="M385.678 245.173L384.432 412.278L353.773 437.308L356.557 260.669L385.678 245.173Z" fill="url(#paint3_linear_38_1120)"/>
<path d="M183.719 410.951L186.107 416.414L194.977 417.764L199.983 412.986L183.719 410.951Z" fill="#263238"/>
<path d="M332.938 433.798L335.306 439.261L344.176 440.611L349.182 435.834L332.938 433.798Z" fill="#263238"/>
<path d="M177.904 248.496L175.474 409.203L353.774 437.307L356.558 260.668L177.904 248.496Z" fill="url(#paint4_linear_38_1120)"/>
<path d="M192.091 263.679L190.055 398.547L339.65 422.123L341.997 273.899L192.091 263.679Z" fill="black"/>
<path d="M198.736 395.64L339.711 417.865L341.995 273.899L200.709 264.261L198.736 395.64Z" fill="url(#paint5_linear_38_1120)"/>
<path d="M200.335 289.893L341.539 302.896L341.996 273.899L200.709 264.261L200.335 289.893Z" fill="url(#paint6_linear_38_1120)"/>
<path d="M224.536 277.18C224.536 278.515 224.14 279.82 223.398 280.93C222.656 282.041 221.602 282.906 220.368 283.417C219.135 283.928 217.777 284.061 216.468 283.801C215.158 283.54 213.956 282.897 213.011 281.953C212.067 281.009 211.424 279.806 211.164 278.497C210.903 277.187 211.037 275.83 211.548 274.596C212.059 273.363 212.924 272.309 214.034 271.567C215.145 270.825 216.45 270.429 217.785 270.429C218.672 270.426 219.551 270.599 220.371 270.937C221.192 271.276 221.937 271.773 222.564 272.4C223.192 273.028 223.689 273.773 224.027 274.593C224.366 275.414 224.538 276.293 224.536 277.18Z" fill="#263238"/>
<path d="M242.875 285.864C246.603 285.864 249.625 282.842 249.625 279.113C249.625 275.385 246.603 272.363 242.875 272.363C239.146 272.363 236.124 275.385 236.124 279.113C236.124 282.842 239.146 285.864 242.875 285.864Z" fill="#263238"/>
<path d="M274.697 281.047C274.697 282.382 274.301 283.687 273.559 284.798C272.817 285.908 271.763 286.773 270.529 287.284C269.296 287.795 267.938 287.929 266.629 287.668C265.319 287.408 264.117 286.765 263.173 285.821C262.228 284.876 261.586 283.674 261.325 282.364C261.065 281.055 261.198 279.697 261.709 278.464C262.22 277.23 263.085 276.176 264.196 275.434C265.306 274.692 266.611 274.296 267.946 274.296C268.833 274.294 269.712 274.466 270.533 274.805C271.353 275.143 272.098 275.64 272.726 276.268C273.353 276.895 273.85 277.64 274.188 278.461C274.527 279.281 274.699 280.16 274.697 281.047Z" fill="#263238"/>
<path d="M299.789 282.979C299.789 284.314 299.393 285.619 298.652 286.729C297.91 287.839 296.856 288.705 295.622 289.216C294.389 289.727 293.031 289.86 291.722 289.6C290.412 289.339 289.209 288.696 288.265 287.752C287.321 286.808 286.678 285.605 286.418 284.296C286.157 282.986 286.291 281.629 286.802 280.395C287.313 279.162 288.178 278.108 289.288 277.366C290.398 276.624 291.704 276.228 293.039 276.228C293.926 276.225 294.805 276.398 295.625 276.736C296.446 277.075 297.191 277.572 297.818 278.199C298.446 278.827 298.943 279.572 299.281 280.392C299.619 281.212 299.792 282.091 299.789 282.979Z" fill="#263238"/>
<path d="M248.213 244.115V239.96L256.002 237.966L312.832 241.954L312.168 245.942L306.684 248.477L248.213 244.115Z" fill="#263238"/>
<path d="M248.213 244.115V239.96L256.002 237.966L312.832 241.954L312.168 245.942L306.684 248.477L248.213 244.115Z" fill="url(#paint7_linear_38_1120)" fill-opacity="0.5"/>
<path d="M248.213 244.115V239.96L256.002 237.966L312.832 241.954L312.168 245.942L306.684 248.477L248.213 244.115Z" fill="url(#paint8_linear_38_1120)" fill-opacity="0.5"/>
</g>
<defs>
<linearGradient id="paint0_linear_38_1120" x1="102" y1="131" x2="468.506" y2="409.927" gradientUnits="userSpaceOnUse">
<stop stop-color="#E14500"/>
<stop offset="0.572474" stop-color="#A40000"/>
<stop offset="1"/>
</linearGradient>
<radialGradient id="paint1_radial_38_1120" cx="0" cy="0" r="1" gradientUnits="userSpaceOnUse" gradientTransform="translate(191.5 346) rotate(61.3791) scale(218.157 134.234)">
<stop stop-color="#263238"/>
<stop offset="1" stop-color="#020E14"/>
</radialGradient>
<linearGradient id="paint2_linear_38_1120" x1="216.5" y1="234" x2="356" y2="261" gradientUnits="userSpaceOnUse">
<stop stop-color="#774C3F"/>
<stop offset="1" stop-color="#666666"/>
</linearGradient>
<linearGradient id="paint3_linear_38_1120" x1="369.726" y1="245.173" x2="369.726" y2="437.308" gradientUnits="userSpaceOnUse">
<stop stop-color="#2B2B2B"/>
<stop offset="1" stop-color="#312525"/>
</linearGradient>
<linearGradient id="paint4_linear_38_1120" x1="266.016" y1="248.496" x2="266.016" y2="437.307" gradientUnits="userSpaceOnUse">
<stop stop-color="#404040"/>
<stop offset="1" stop-color="#291C1C"/>
</linearGradient>
<linearGradient id="paint5_linear_38_1120" x1="199" y1="291" x2="329.5" y2="414.5" gradientUnits="userSpaceOnUse">
<stop stop-color="#263238" stop-opacity="0"/>
<stop offset="0.39865" stop-color="#263238"/>
<stop offset="0.626079" stop-color="#263238" stop-opacity="0.868263"/>
<stop offset="1" stop-color="#263238" stop-opacity="0"/>
</linearGradient>
<linearGradient id="paint6_linear_38_1120" x1="250.5" y1="292.5" x2="250" y2="259.5" gradientUnits="userSpaceOnUse">
<stop stop-color="#E14500"/>
<stop offset="1" stop-color="#E14500" stop-opacity="0.42"/>
</linearGradient>
<linearGradient id="paint7_linear_38_1120" x1="280.5" y1="255.5" x2="281.5" y2="242.5" gradientUnits="userSpaceOnUse">
<stop/>
<stop offset="0.911458" stop-opacity="0.390625"/>
<stop offset="1" stop-opacity="0"/>
</linearGradient>
<linearGradient id="paint8_linear_38_1120" x1="314.5" y1="255" x2="312.5" y2="242.5" gradientUnits="userSpaceOnUse">
<stop/>
<stop offset="0.352301" stop-opacity="0.750602"/>
<stop offset="0.911458" stop-opacity="0.390625"/>
<stop offset="1" stop-opacity="0"/>
</linearGradient>
<clipPath id="clip0_38_1120">
<rect width="500" height="500" fill="white"/>
</clipPath>
</defs>
</svg>
