<svg width="1940" height="1080" viewBox="0 0 1940 1080" fill="none" xmlns="http://www.w3.org/2000/svg">
<g clip-path="url(#clip0_38_2)">
<rect width="1940" height="1080" fill="url(#paint0_radial_38_2)"/>
<path opacity="0.3" d="M876.138 1023.58C881.804 969.845 829.113 918.815 779.142 929.646C790.124 859.152 744.63 783.803 679.648 764.861C614.667 745.922 539.23 786.025 514.676 852.562C496.049 831.649 464.192 825.579 439.861 838.309C418.157 766.664 332.271 726.059 267.491 756.816C283.187 668.206 231.324 571.582 151.45 540.633C71.5778 509.682 -34.5313 552.38 -76.434 630.836L-91.1212 1096.3C262.906 1105.38 617.143 1105.32 971.166 1096.11C978.796 1045.57 918.928 999.876 876.138 1023.58Z" fill="white"/>
<path opacity="0.2" d="M1339.38 1183.61L1332.53 1098.99C1366.52 1066.29 1412.61 1048.14 1458.49 1049.38C1437.65 1028.86 1447.37 989.097 1470.18 971.101C1492.99 953.1 1523.2 950.776 1551.59 949.126C1501.47 914.747 1487.65 833.102 1523.37 782.374C1559.09 731.645 1636.81 722.546 1682.1 763.79C1654.94 709.441 1686.11 632.405 1741.96 615.858C1688.32 587.524 1659.67 518.78 1666.85 455.67C1674.02 392.559 1712.44 336.549 1761.7 300.355C1810.96 264.164 1870.18 245.949 1929.48 236.804C1988.03 227.777 2050.86 227.845 2102.65 258.22V1222.27L1338.16 1183.61H1339.38Z" fill="white"/>
<g opacity="0.2">
<path fill-rule="evenodd" clip-rule="evenodd" d="M1398.49 148.221C1399.85 131.777 1414.12 117.684 1429.69 117.412C1427.65 97.3631 1441.42 77.5952 1459.45 71.1735C1477.49 64.7536 1498.23 70.5358 1512.86 83.4112C1527.51 96.2884 1536.44 115.42 1540.2 135.188C1551.01 126.968 1565.27 124.08 1578.17 127.504C1591.07 130.927 1602.37 140.597 1608.24 153.242C1632.36 143.476 1662.76 159.26 1670.26 185.45C1678.56 183.548 1686.99 181.637 1695.47 182.213C1703.95 182.791 1712.71 186.707 1718.03 193.729L1516.47 194.396L1535.55 194.312L1538.67 194.298L1538.87 194.297C1581.56 194.108 1624.24 193.918 1666.93 193.729C1666.84 193.716 1666.75 193.708 1666.66 193.699L1666.59 193.692C1666.57 193.69 1666.55 193.688 1666.53 193.686C1666.47 193.68 1666.41 193.673 1666.35 193.665C1657.78 192.343 1649.02 186.96 1645.1 178.766C1634.88 186.887 1622.08 191.075 1609.32 191.075C1600.34 191.077 1591.38 189.004 1583.32 184.773C1580.27 186.504 1576.86 187.313 1573.43 187.313C1565.09 187.313 1556.63 182.539 1552.83 174.591C1545.59 185.748 1532.76 191.767 1520.05 191.767C1511.48 191.769 1502.97 189.029 1496.27 183.28C1487.91 185.981 1479.18 188.415 1470.61 188.415C1459.98 188.415 1449.6 184.674 1440.44 173.057C1431.56 184.705 1418.44 192.585 1404.49 194.767L1386.52 194.827C1380.35 193.851 1374.21 191.299 1368.7 188.168C1364.62 191.557 1359.8 194.134 1354.69 194.932L1346.99 194.958C1343.13 194.334 1339.1 192.57 1335.8 190.529C1333.86 191.584 1331.75 193.18 1329.9 194.581L1329.9 194.581C1329.71 194.729 1329.51 194.874 1329.33 195.016L1293.33 195.135C1304.26 186.915 1318.19 183.276 1331.46 185.244C1327.69 180.371 1327.35 173.207 1329.53 167.346C1331.7 161.485 1336.04 156.792 1340.85 153.086C1357.1 140.545 1379.96 138.409 1398.03 147.747L1398.49 148.221ZM1491.96 109.179C1484.9 113.029 1478.05 117.559 1472.68 123.753C1472.22 124.276 1471.78 124.814 1471.35 125.363C1472.35 125.801 1473.33 126.306 1474.27 126.878C1482.14 131.668 1487.36 141.01 1487.54 150.632C1482.9 143.808 1477.66 137.295 1471.08 132.589C1465.54 128.626 1458.94 126.032 1452.31 126.032C1451.21 126.032 1450.11 126.104 1449.02 126.25C1452.74 124.239 1456.92 123.236 1461.09 123.236C1462.6 123.236 1464.12 123.368 1465.61 123.632C1466.29 122.061 1467.05 120.604 1467.82 119.564C1473.46 112.026 1482.95 107.94 1491.96 109.179ZM1449.02 126.25C1448.75 126.396 1448.48 126.546 1448.22 126.704L1448.58 126.314C1448.66 126.301 1448.74 126.29 1448.82 126.278C1448.89 126.269 1448.96 126.259 1449.02 126.25Z" fill="white" fill-opacity="0.9"/>
<path fill-rule="evenodd" clip-rule="evenodd" d="M1491.96 109.179C1484.9 113.029 1478.05 117.559 1472.68 123.753C1472.22 124.276 1471.78 124.814 1471.35 125.363C1472.35 125.801 1473.33 126.306 1474.27 126.878C1482.14 131.668 1487.36 141.01 1487.54 150.632C1482.9 143.808 1477.66 137.295 1471.08 132.589C1465.54 128.626 1458.94 126.032 1452.31 126.032C1451.21 126.032 1450.11 126.104 1449.02 126.25C1452.74 124.239 1456.91 123.236 1461.09 123.236C1462.6 123.236 1464.12 123.368 1465.61 123.632C1466.29 122.061 1467.05 120.604 1467.82 119.564C1473.46 112.026 1482.95 107.94 1491.96 109.179ZM1449.02 126.25C1448.75 126.396 1448.48 126.546 1448.22 126.704L1448.58 126.314C1448.73 126.291 1448.87 126.271 1449.02 126.25ZM1403.61 194.897C1417.89 192.915 1431.37 184.949 1440.44 173.057C1449.6 184.674 1459.98 188.415 1470.61 188.415C1479.18 188.415 1487.91 185.981 1496.27 183.28C1502.97 189.029 1511.48 191.769 1520.05 191.767C1532.76 191.767 1545.59 185.748 1552.83 174.591C1556.63 182.539 1565.09 187.313 1573.43 187.313C1576.86 187.313 1580.27 186.504 1583.32 184.773C1591.38 189.004 1600.34 191.077 1609.32 191.075C1622.08 191.075 1634.88 186.887 1645.1 178.766C1649.02 186.96 1657.78 192.343 1666.35 193.665C1666.46 193.68 1666.56 193.689 1666.66 193.699L1666.66 193.699C1666.75 193.708 1666.84 193.716 1666.93 193.729C1623.14 193.923 1579.34 194.118 1535.55 194.312L1534.35 194.317C1490.77 194.51 1447.19 194.704 1403.61 194.897ZM1368.7 188.168C1364.25 191.866 1358.92 194.597 1353.29 195.105L1387.38 194.953C1380.93 194.089 1374.47 191.446 1368.7 188.168ZM1329.9 194.582C1329.65 194.77 1329.41 194.956 1329.17 195.135C1330.71 195.128 1332.28 195.132 1333.84 195.135C1335.38 195.139 1336.93 195.142 1338.46 195.135C1339.99 195.129 1341.7 195.132 1343.4 195.136C1345.13 195.139 1346.86 195.143 1348.41 195.135C1344.14 194.766 1339.5 192.823 1335.8 190.529C1333.86 191.584 1331.75 193.18 1329.9 194.582Z" fill="#CCCDCB"/>
</g>
<g opacity="0.6">
<path fill-rule="evenodd" clip-rule="evenodd" d="M1332.05 638.189C1326.41 639.354 1322.33 645.703 1323.08 651.689C1327.94 645.003 1335.81 640.876 1343.77 640.876C1344.23 640.876 1344.7 640.891 1345.17 640.919C1342.23 629.892 1346.99 617.656 1355.08 610.05C1363.17 602.444 1374.03 598.897 1384.78 597.627C1381.31 596.349 1377.64 595.725 1373.98 595.725C1367.13 595.725 1360.27 597.901 1354.65 602.071C1346.03 608.471 1340.57 619.406 1340.42 630.563C1340.42 630.695 1340.42 630.829 1340.42 630.963C1340.4 632.55 1340.38 634.216 1339.53 635.505C1338.34 637.313 1336.14 637.602 1333.98 637.887C1333.32 637.974 1332.67 638.06 1332.05 638.189ZM1215.95 719.095C1215.94 719.12 1215.93 719.15 1215.93 719.178L1255.13 718.566L1262.8 718.447L1351.82 717.058L1354.62 717.015L1652.84 712.365C1653.06 712.222 1653.29 712.085 1653.51 711.941C1653.54 711.775 1653.56 711.608 1653.58 711.441C1653.59 711.318 1653.61 711.196 1653.63 711.075C1648.92 711.666 1644.17 711.958 1639.42 711.958C1620.88 711.958 1602.33 707.484 1585.67 698.814C1577.69 702.265 1569.23 705.772 1560.76 705.772C1558.75 705.772 1556.73 705.574 1554.72 705.127C1544.28 702.811 1535.14 690.689 1539.46 680.346C1533.91 684.099 1527.32 685.991 1520.74 685.991C1514.8 685.994 1508.88 684.457 1503.71 681.369C1492.81 674.845 1485.75 661.677 1486.05 648.408C1478.93 651.072 1471.34 652.695 1463.82 652.695C1458.79 652.695 1453.79 651.971 1448.98 650.343C1438.18 646.691 1428.61 637.955 1424.91 626.723C1424.62 625.438 1424.29 624.163 1423.9 622.901C1424.16 624.201 1424.5 625.478 1424.91 626.723C1430.42 651.113 1419.47 678.936 1398.87 691.5C1390.73 696.47 1381.39 698.859 1372.01 698.859C1356.45 698.859 1340.79 692.274 1330.33 679.99C1328.06 692.68 1317.49 702.407 1305.82 706.125C1300.78 707.73 1295.57 708.385 1290.33 708.385C1283.41 708.385 1276.43 707.247 1269.67 705.645C1260.56 703.484 1250.99 700.035 1245.5 692.035C1240.37 684.554 1241.17 672.133 1248.41 667.602L1250 666.784C1249.44 667.018 1248.91 667.292 1248.41 667.602L1244.73 669.507C1231.12 683.764 1220 702.945 1216.23 717.919C1216.23 717.924 1216.23 717.926 1216.23 717.931L1216.21 718.008C1216.21 718.013 1216.21 718.015 1216.2 718.02L1216.2 718.02L1216.2 718.033C1216.2 718.056 1216.19 718.078 1216.19 718.099L1216.18 718.107C1216.18 718.132 1216.17 718.16 1216.16 718.185C1216.16 718.19 1216.16 718.193 1216.16 718.198L1216.14 718.282C1216.14 718.282 1216.14 718.284 1216.14 718.284C1216.13 718.304 1216.13 718.323 1216.13 718.343C1216.12 718.383 1216.11 718.423 1216.1 718.462C1216.1 718.467 1216.09 718.47 1216.09 718.472C1216.09 718.498 1216.08 718.521 1216.08 718.546C1216.07 718.556 1216.07 718.566 1216.07 718.576C1216.06 718.594 1216.06 718.615 1216.06 718.632C1216.05 718.639 1216.05 718.645 1216.05 718.653C1216.05 718.657 1216.05 718.661 1216.05 718.665C1216.04 718.683 1216.04 718.698 1216.04 718.716L1216.03 718.752C1216.02 718.768 1216.02 718.784 1216.02 718.798L1216.02 718.803C1216.01 718.809 1216.01 718.815 1216.01 718.82C1216.01 718.826 1216.01 718.832 1216.01 718.838C1216 718.852 1216 718.867 1216 718.883L1216 718.889C1215.99 718.895 1215.99 718.9 1215.99 718.905C1215.99 718.91 1215.99 718.916 1215.99 718.922L1215.99 718.931C1215.98 718.945 1215.98 718.96 1215.97 718.975C1215.97 718.98 1215.97 718.986 1215.97 718.992C1215.97 718.997 1215.97 719.003 1215.97 719.008C1215.97 719.017 1215.96 719.026 1215.96 719.035C1215.96 719.044 1215.96 719.053 1215.96 719.062C1215.95 719.068 1215.95 719.075 1215.95 719.082C1215.95 719.086 1215.95 719.09 1215.95 719.095Z" fill="white" fill-opacity="0.7"/>
<path fill-rule="evenodd" clip-rule="evenodd" d="M1563.32 654.292C1581.23 639.487 1607.88 637.843 1627.3 650.351C1646.54 662.752 1657.42 688.246 1653.56 711.754C1653.57 711.579 1653.58 711.466 1653.58 711.441C1653.59 711.318 1653.61 711.196 1653.63 711.075C1648.92 711.666 1644.17 711.958 1639.42 711.958C1620.88 711.958 1602.33 707.484 1585.67 698.814C1577.69 702.265 1569.23 705.772 1560.76 705.772C1558.75 705.772 1556.73 705.574 1554.72 705.127C1544.28 702.811 1535.14 690.689 1539.46 680.346C1533.91 684.099 1527.32 685.991 1520.74 685.991C1514.81 685.994 1508.88 684.457 1503.71 681.369C1492.81 674.845 1485.75 661.677 1486.05 648.408C1478.94 651.072 1471.34 652.695 1463.82 652.695C1458.79 652.695 1453.79 651.971 1448.98 650.343C1438.18 646.691 1428.61 637.955 1424.91 626.723C1424.62 625.438 1424.29 624.163 1423.9 622.901C1424.16 624.201 1424.5 625.478 1424.91 626.723C1430.42 651.113 1419.47 678.936 1398.87 691.5C1390.73 696.47 1381.39 698.859 1372.01 698.859C1356.45 698.859 1340.79 692.274 1330.33 679.99C1328.06 692.681 1317.49 702.407 1305.82 706.125C1300.78 707.73 1295.57 708.385 1290.33 708.385C1283.41 708.385 1276.43 707.248 1269.67 705.645C1260.56 703.484 1250.99 700.035 1245.5 692.035C1240.37 684.554 1241.17 672.133 1248.41 667.602L1250 666.784C1249.44 667.018 1248.91 667.292 1248.41 667.602L1244.73 669.507C1257.45 656.102 1272.14 647.211 1285.29 649.886C1275.61 614.794 1292.76 574.842 1321.97 555.386C1351.18 535.928 1389.68 535.724 1421.32 550.281C1452.97 564.838 1478.05 592.713 1495.02 624.549C1505.65 611.673 1524.26 607.036 1539.2 613.537C1554.13 620.044 1564.29 637.209 1563.32 654.292ZM1323.08 651.689C1322.33 645.703 1326.41 639.355 1332.05 638.189C1332.67 638.06 1333.32 637.974 1333.98 637.887C1336.14 637.602 1338.34 637.313 1339.53 635.505C1340.38 634.217 1340.4 632.551 1340.42 630.963C1340.42 630.829 1340.42 630.695 1340.42 630.563C1340.57 619.406 1346.03 608.471 1354.65 602.071C1360.27 597.901 1367.13 595.725 1373.98 595.725C1377.64 595.725 1381.31 596.349 1384.78 597.627C1374.03 598.897 1363.17 602.444 1355.08 610.05C1346.99 617.656 1342.23 629.892 1345.17 640.919C1344.7 640.891 1344.24 640.876 1343.77 640.876C1335.81 640.876 1327.94 645.003 1323.08 651.689Z" fill="white" fill-opacity="0.9"/>
</g>
<g opacity="0.6">
<path fill-rule="evenodd" clip-rule="evenodd" d="M706.918 575.968C703.421 576.691 700.894 580.628 701.357 584.34C704.372 580.193 709.25 577.634 714.185 577.634C714.476 577.634 714.768 577.643 715.059 577.661C713.236 570.823 716.187 563.235 721.203 558.518C726.22 553.801 732.954 551.601 739.62 550.814C737.468 550.021 735.195 549.634 732.921 549.634C728.673 549.634 724.419 550.984 720.936 553.57C715.589 557.538 712.203 564.32 712.111 571.238C712.11 571.321 712.109 571.403 712.108 571.486C712.098 572.471 712.087 573.504 711.561 574.303C710.822 575.425 709.459 575.604 708.118 575.781C707.71 575.834 707.304 575.888 706.918 575.968ZM634.921 626.14C634.917 626.156 634.913 626.175 634.909 626.192L659.219 625.813L663.973 625.739L719.178 624.877L720.916 624.851L905.854 621.967C905.992 621.879 906.132 621.794 906.269 621.704C906.287 621.601 906.299 621.498 906.312 621.394C906.321 621.318 906.33 621.242 906.342 621.167C903.42 621.534 900.477 621.715 897.535 621.715C886.032 621.715 874.53 618.94 864.202 613.563C859.253 615.704 854.003 617.879 848.755 617.879C847.505 617.879 846.255 617.756 845.009 617.479C838.532 616.042 832.863 608.525 835.543 602.111C832.099 604.439 828.014 605.612 823.931 605.612C820.253 605.613 816.579 604.661 813.373 602.746C806.611 598.7 802.235 590.534 802.422 582.305C798.009 583.957 793.3 584.963 788.634 584.963C785.515 584.963 782.416 584.515 779.435 583.505C772.738 581.24 766.802 575.823 764.507 568.857C764.328 568.06 764.12 567.27 763.882 566.487C764.042 567.293 764.253 568.085 764.507 568.857C767.921 583.982 761.13 601.237 748.36 609.028C743.308 612.11 737.516 613.592 731.703 613.592C722.052 613.592 712.341 609.508 705.855 601.89C704.445 609.76 697.892 615.792 690.654 618.097C687.531 619.093 684.3 619.499 681.046 619.499C676.758 619.499 672.426 618.794 668.235 617.8C662.588 616.46 656.65 614.321 653.249 609.36C650.065 604.72 650.564 597.018 655.053 594.208L656.037 593.701C655.69 593.846 655.362 594.016 655.053 594.208L652.768 595.389C644.327 604.231 637.431 616.126 635.096 625.411C635.095 625.414 635.095 625.416 635.094 625.419L635.082 625.466C635.082 625.47 635.081 625.471 635.08 625.474L635.08 625.474L635.078 625.482C635.075 625.496 635.072 625.51 635.068 625.523L635.066 625.528C635.063 625.544 635.059 625.561 635.055 625.577C635.054 625.58 635.054 625.581 635.053 625.585L635.04 625.636C635.04 625.636 635.04 625.638 635.04 625.638C635.037 625.65 635.034 625.662 635.031 625.674C635.025 625.699 635.019 625.724 635.012 625.748C635.012 625.751 635.012 625.753 635.011 625.755C635.008 625.77 635.004 625.785 635 625.8C634.999 625.807 634.997 625.813 634.996 625.819C634.993 625.83 634.99 625.843 634.987 625.854C634.986 625.858 634.986 625.862 634.985 625.866C634.984 625.869 634.984 625.871 634.983 625.874C634.98 625.885 634.978 625.895 634.975 625.906L634.97 625.928C634.968 625.938 634.965 625.948 634.963 625.957L634.963 625.959C634.962 625.963 634.961 625.967 634.96 625.97C634.96 625.974 634.959 625.977 634.958 625.981C634.955 625.99 634.953 625.999 634.951 626.009L634.95 626.013C634.949 626.017 634.949 626.02 634.948 626.023C634.947 626.026 634.946 626.029 634.945 626.033L634.944 626.039C634.942 626.048 634.94 626.057 634.938 626.066C634.937 626.07 634.936 626.073 634.935 626.077C634.935 626.08 634.934 626.084 634.933 626.087C634.932 626.092 634.93 626.098 634.929 626.103C634.928 626.109 634.927 626.114 634.925 626.12C634.924 626.124 634.923 626.128 634.922 626.132C634.922 626.135 634.921 626.138 634.921 626.14Z" fill="white" fill-opacity="0.7"/>
<path fill-rule="evenodd" clip-rule="evenodd" d="M850.337 585.954C861.449 576.772 877.973 575.753 890.013 583.51C901.95 591.2 908.693 607.01 906.298 621.588C906.305 621.479 906.31 621.409 906.312 621.394C906.321 621.318 906.331 621.242 906.342 621.167C903.421 621.534 900.477 621.715 897.535 621.715C886.032 621.715 874.53 618.94 864.203 613.563C859.253 615.704 854.003 617.878 848.755 617.878C847.505 617.878 846.256 617.756 845.009 617.478C838.532 616.042 832.863 608.525 835.544 602.111C832.099 604.438 828.015 605.612 823.931 605.612C820.254 605.613 816.579 604.66 813.374 602.745C806.611 598.699 802.235 590.534 802.423 582.305C798.009 583.957 793.3 584.963 788.635 584.963C785.516 584.963 782.416 584.515 779.435 583.505C772.738 581.24 766.802 575.823 764.508 568.857C764.328 568.06 764.12 567.269 763.882 566.487C764.043 567.293 764.254 568.085 764.508 568.857C767.921 583.982 761.13 601.237 748.36 609.028C743.308 612.11 737.516 613.592 731.703 613.592C722.052 613.592 712.341 609.508 705.855 601.89C704.445 609.76 697.892 615.792 690.654 618.097C687.531 619.093 684.301 619.499 681.046 619.499C676.758 619.499 672.427 618.793 668.235 617.8C662.588 616.459 656.65 614.321 653.249 609.36C650.065 604.72 650.564 597.018 655.053 594.208L656.037 593.701C655.691 593.846 655.362 594.016 655.053 594.208L652.768 595.389C660.656 587.076 669.769 581.563 677.924 583.221C671.918 561.46 682.557 536.683 700.669 524.618C718.781 512.551 742.658 512.425 762.282 521.453C781.906 530.48 797.459 547.766 807.981 567.509C814.577 559.524 826.118 556.648 835.382 560.68C844.643 564.715 850.944 575.36 850.337 585.954ZM701.357 584.34C700.894 580.628 703.421 576.69 706.918 575.968C707.304 575.888 707.71 575.834 708.119 575.78C709.459 575.604 710.822 575.424 711.561 574.303C712.087 573.504 712.098 572.471 712.108 571.486C712.109 571.403 712.11 571.32 712.111 571.238C712.203 564.32 715.59 557.538 720.936 553.57C724.419 550.984 728.673 549.634 732.921 549.634C735.195 549.634 737.468 550.021 739.62 550.813C732.954 551.601 726.22 553.801 721.203 558.518C716.187 563.235 713.236 570.822 715.059 577.661C714.768 577.643 714.477 577.634 714.185 577.634C709.251 577.634 704.372 580.193 701.357 584.34Z" fill="white" fill-opacity="0.9"/>
</g>
<g opacity="0.3">
<path d="M475.908 255.415C459.561 244.81 445.981 241.307 435.162 241.307C414.074 241.307 403.499 254.631 403.499 254.631C384.246 217.754 361.738 206.876 341.878 206.876C313.294 206.876 290.2 229.411 290.2 229.411C271 119.474 191.74 113.067 173.52 113.067C171.117 113.067 169.774 113.178 169.774 113.178C169.825 113.159 169.878 113.142 169.93 113.123C169.995 113.101 170.062 113.077 170.13 113.054C170.165 113.041 170.202 113.028 170.238 113.015C178.01 110.31 186.093 109.04 194.205 109.039C194.206 109.039 194.208 109.039 194.21 109.039C194.215 109.039 194.22 109.039 194.226 109.039C215.416 109.044 236.807 117.715 253.326 132.107C253.359 132.137 253.393 132.165 253.426 132.195C253.504 132.263 253.58 132.329 253.656 132.398C276.652 152.62 290.688 182.669 296.593 213.713C296.65 213.669 296.706 213.626 296.763 213.583C296.825 213.536 296.885 213.491 296.947 213.444C296.949 213.443 296.95 213.443 296.954 213.441C300.498 210.779 304.278 208.48 308.223 206.559C308.968 206.196 309.723 205.845 310.481 205.507C316.412 202.872 322.676 201.072 329.054 200.149C332.358 199.669 335.691 199.427 339.025 199.427C339.031 199.427 339.034 199.427 339.039 199.427C339.041 199.427 339.045 199.427 339.045 199.427C344.665 199.427 350.283 200.115 355.748 201.522C355.808 201.537 355.87 201.554 355.93 201.569C356.027 201.595 356.123 201.619 356.218 201.646C356.535 201.728 356.852 201.816 357.167 201.904C359.821 202.651 362.431 203.568 364.981 204.641C368.317 206.042 371.55 207.713 374.654 209.624C377.264 211.231 379.78 213.011 382.185 214.945C391.104 222.113 398.498 231.419 403.444 242.067C406.543 240.814 409.709 239.827 412.913 239.096C417.67 238.014 422.517 237.492 427.371 237.492C444.688 237.492 462.105 244.115 475.908 255.415Z" fill="white"/>
<path fill-rule="evenodd" clip-rule="evenodd" d="M208.253 212.087C218.582 219.476 226.817 229.705 234.103 240.42C233.82 225.311 225.621 210.639 213.257 203.114C206.995 199.305 199.779 197.396 192.562 197.396C186.004 197.396 179.448 198.971 173.609 202.13C173.378 202.16 173.148 202.193 172.918 202.229L172.35 202.84C172.766 202.595 173.186 202.358 173.609 202.13C175.325 201.897 177.048 201.786 178.769 201.786C189.191 201.786 199.554 205.862 208.253 212.087ZM25.2256 307.284C47.5805 304.133 68.9497 292.6 83.1593 273.975C97.5405 292.218 113.849 298.096 130.536 298.096C143.995 298.096 157.704 294.271 170.843 290.029C181.363 299.058 194.728 303.36 208.191 303.358C228.141 303.358 248.296 293.906 259.659 276.385C265.638 288.868 278.927 296.363 292.017 296.363C297.405 296.363 302.762 295.091 307.557 292.375C320.206 299.02 334.283 302.272 348.386 302.272C368.432 302.27 388.522 295.695 404.579 282.94C410.74 295.807 424.215 303.296 437.691 305.371C437.856 305.397 438.021 305.413 438.187 305.429C438.261 305.436 438.335 305.443 438.409 305.451L435.958 305.463C434.981 305.466 434.024 305.47 433.047 305.476L426.734 305.504C390.834 305.661 354.909 305.821 319.01 305.98L317.759 305.986C268.906 306.203 220.051 306.419 171.195 306.636L170.89 306.637C122.335 306.853 73.7787 307.068 25.2256 307.284ZM-29.5069 297.707C-36.5037 303.512 -45.1409 306.837 -53.9869 307.634C-45.0595 307.595 -36.137 307.555 -27.2145 307.515H-27.2127L-27.208 307.515C-18.2876 307.475 -9.36716 307.435 -0.441841 307.396C-10.5708 306.04 -20.452 302.852 -29.5069 297.707ZM-91.0433 307.741C-91.0698 307.76 -91.0946 307.778 -91.1211 307.799L-83.8429 307.765L-82.2928 307.76L-62.0755 307.67C-68.7875 307.088 -75.3614 305.014 -81.1868 301.415C-84.5525 303.247 -87.8014 305.32 -90.8964 307.63C-90.8982 307.632 -90.9035 307.636 -90.9052 307.636C-90.9159 307.644 -90.9265 307.652 -90.9371 307.66C-90.9477 307.668 -90.9583 307.676 -90.9689 307.685C-90.9778 307.692 -90.9884 307.7 -90.9973 307.705C-91.0051 307.711 -91.0125 307.717 -91.0199 307.723L-91.0201 307.723L-91.0203 307.723C-91.0278 307.729 -91.0353 307.735 -91.0433 307.741Z" fill="white" fill-opacity="0.7"/>
<path fill-rule="evenodd" clip-rule="evenodd" d="M435.162 241.307C445.981 241.307 459.56 244.81 475.908 255.415C462.105 244.115 444.687 237.492 427.37 237.492C422.517 237.492 417.67 238.014 412.913 239.096C409.709 239.827 406.543 240.814 403.444 242.067C441.329 226.728 489.064 251.521 500.843 292.649C513.884 289.665 527.128 286.662 540.44 287.568C553.754 288.474 567.383 293.815 575.732 304.842L438.404 305.451C438.332 305.443 438.259 305.436 438.187 305.429C438.115 305.422 438.043 305.415 437.971 305.407C437.878 305.397 437.784 305.385 437.691 305.371C424.215 303.296 410.74 295.807 404.579 282.94C388.521 295.695 368.432 302.27 348.386 302.272C334.283 302.272 320.206 299.02 307.557 292.375C302.762 295.091 297.405 296.363 292.017 296.363C278.927 296.363 265.638 288.868 259.659 276.385C248.296 293.906 228.141 303.358 208.191 303.358C194.728 303.36 181.363 299.058 170.843 290.029C157.704 294.271 143.995 298.096 130.536 298.096C113.849 298.096 97.5404 292.218 83.1591 273.975C68.9507 292.599 47.5836 304.131 25.2306 307.283L-0.441952 307.396C-10.5709 306.04 -20.4521 302.852 -29.507 297.707C-36.5038 303.512 -45.141 306.837 -53.987 307.634L-62.0756 307.67C-68.7876 307.088 -75.3615 305.014 -81.1869 301.415C-65.9768 293.188 -48.1678 289.816 -31.2446 292.324C-37.1567 284.674 -37.6911 273.421 -34.2777 264.218C-30.8642 255.013 -24.0443 247.642 -16.5007 241.821C9.02524 222.124 44.9314 218.773 73.3134 233.437L74.0353 234.18C76.1659 208.356 98.581 186.223 123.036 185.795C119.832 154.309 141.45 123.262 169.774 113.178C169.774 113.178 171.117 113.067 173.52 113.067C191.739 113.067 271 119.474 290.199 229.411C290.199 229.411 313.294 206.876 341.878 206.876C361.737 206.876 384.246 217.754 403.499 254.631C403.499 254.631 414.074 241.307 435.162 241.307ZM169.774 113.178C176.259 110.869 182.967 109.565 189.731 109.169C183.128 109.556 176.579 110.808 170.237 113.015L170.184 113.034L170.13 113.054C170.09 113.067 170.05 113.081 170.01 113.095L169.93 113.123C169.904 113.133 169.878 113.142 169.852 113.151L169.838 113.155C169.817 113.163 169.795 113.17 169.774 113.178ZM296.951 213.442L296.954 213.441C297.795 212.809 298.649 212.198 299.515 211.608C298.648 212.199 297.793 212.81 296.951 213.442ZM305.296 208.071C306.261 207.543 307.236 207.04 308.222 206.559C308.935 206.212 309.656 205.876 310.38 205.552C308.655 206.321 306.959 207.161 305.296 208.071ZM330.958 199.899C328.823 200.149 326.698 200.497 324.591 200.942C326.071 200.63 327.559 200.365 329.054 200.149C329.687 200.057 330.322 199.974 330.958 199.899ZM379.898 213.178C381.584 214.429 383.222 215.755 384.805 217.15C383.947 216.394 383.073 215.659 382.185 214.945C381.433 214.341 380.671 213.751 379.898 213.178ZM234.103 240.42C226.817 229.705 218.582 219.476 208.253 212.087C199.554 205.862 189.191 201.786 178.768 201.786C177.048 201.786 175.325 201.897 173.609 202.13C179.448 198.971 186.004 197.396 192.562 197.396C199.779 197.396 206.995 199.305 213.257 203.114C225.621 210.639 233.82 225.311 234.103 240.42ZM173.609 202.13C173.186 202.358 172.766 202.595 172.35 202.84L172.918 202.229C173.148 202.193 173.378 202.16 173.609 202.13ZM338.386 199.43C338.599 199.428 338.812 199.427 339.025 199.427H339.034C338.818 199.427 338.602 199.428 338.386 199.43ZM362.475 203.644C363.316 203.959 364.152 204.292 364.981 204.641C365.272 204.763 365.561 204.887 365.85 205.013C364.736 204.526 363.611 204.07 362.475 203.644Z" fill="white" fill-opacity="0.9"/>
</g>
<g opacity="0.2">
<path d="M1248.78 949.388C1242.61 945.384 1237.48 944.061 1233.39 944.061C1225.43 944.061 1221.44 949.092 1221.44 949.092C1214.17 935.167 1205.67 931.059 1198.17 931.059C1187.38 931.059 1178.66 939.568 1178.66 939.568C1171.41 898.056 1141.48 895.636 1134.6 895.636C1133.69 895.636 1133.18 895.678 1133.18 895.678C1133.2 895.671 1133.22 895.665 1133.24 895.658C1133.27 895.649 1133.29 895.64 1133.32 895.631C1133.33 895.626 1133.34 895.622 1133.36 895.617C1136.29 894.595 1139.34 894.116 1142.41 894.115C1142.41 894.115 1142.41 894.115 1142.41 894.115C1142.41 894.115 1142.41 894.115 1142.42 894.115C1150.42 894.117 1158.49 897.391 1164.73 902.826C1164.74 902.837 1164.76 902.848 1164.77 902.859C1164.8 902.885 1164.83 902.91 1164.86 902.936C1173.54 910.572 1178.84 921.919 1181.07 933.641C1181.09 933.624 1181.11 933.608 1181.13 933.592C1181.16 933.574 1181.18 933.557 1181.2 933.54C1181.2 933.539 1181.21 933.539 1181.21 933.538C1182.54 932.533 1183.97 931.665 1185.46 930.94C1185.74 930.802 1186.03 930.67 1186.31 930.542C1188.55 929.547 1190.92 928.867 1193.33 928.519C1194.58 928.338 1195.83 928.246 1197.09 928.246C1197.09 928.246 1197.1 928.246 1197.1 928.246C1197.1 928.246 1197.1 928.246 1197.1 928.246C1199.22 928.246 1201.34 928.506 1203.41 929.037C1203.43 929.043 1203.45 929.049 1203.48 929.055C1203.51 929.065 1203.55 929.074 1203.58 929.084C1203.7 929.115 1203.82 929.149 1203.94 929.182C1204.95 929.464 1205.93 929.81 1206.89 930.215C1208.15 930.744 1209.37 931.375 1210.55 932.097C1211.53 932.704 1212.48 933.376 1213.39 934.106C1216.76 936.813 1219.55 940.327 1221.42 944.347C1222.59 943.874 1223.78 943.502 1224.99 943.226C1226.79 942.817 1228.62 942.62 1230.45 942.62C1236.99 942.62 1243.57 945.121 1248.78 949.388Z" fill="white"/>
<path fill-rule="evenodd" clip-rule="evenodd" d="M1147.71 933.027C1151.61 935.817 1154.72 939.68 1157.47 943.726C1157.37 938.021 1154.27 932.48 1149.6 929.639C1147.24 928.201 1144.51 927.48 1141.79 927.48C1139.31 927.48 1136.84 928.075 1134.63 929.267C1134.54 929.278 1134.46 929.291 1134.37 929.305L1134.16 929.536C1134.31 929.443 1134.47 929.354 1134.63 929.267C1135.28 929.179 1135.93 929.138 1136.58 929.138C1140.51 929.138 1144.43 930.676 1147.71 933.027ZM1078.6 968.974C1087.04 967.784 1095.11 963.43 1100.48 956.396C1105.91 963.285 1112.06 965.505 1118.37 965.505C1123.45 965.505 1128.62 964.061 1133.59 962.459C1137.56 965.868 1142.61 967.492 1147.69 967.492C1155.22 967.492 1162.83 963.922 1167.12 957.306C1169.38 962.02 1174.4 964.85 1179.34 964.85C1181.38 964.85 1183.4 964.37 1185.21 963.345C1189.99 965.854 1195.3 967.082 1200.63 967.082C1208.2 967.081 1215.78 964.598 1221.85 959.782C1224.17 964.641 1229.26 967.468 1234.35 968.252C1234.41 968.261 1234.47 968.268 1234.54 968.274L1234.54 968.274C1234.57 968.276 1234.59 968.279 1234.62 968.282L1233.7 968.286C1233.33 968.288 1232.96 968.289 1232.6 968.291L1230.21 968.302C1216.66 968.361 1203.09 968.422 1189.53 968.482L1189.06 968.484C1170.62 968.566 1152.17 968.648 1133.72 968.73L1133.61 968.73C1115.27 968.811 1096.93 968.893 1078.6 968.974ZM1057.93 965.358C1055.29 967.55 1052.03 968.805 1048.69 969.106C1052.06 969.091 1055.43 969.076 1058.8 969.061H1058.8H1058.8C1062.17 969.046 1065.54 969.031 1068.91 969.016C1065.08 968.504 1061.35 967.3 1057.93 965.358ZM1034.7 969.147C1034.69 969.154 1034.68 969.161 1034.67 969.169L1037.41 969.156L1038 969.154L1045.63 969.12C1043.1 968.9 1040.62 968.117 1038.42 966.758C1037.15 967.45 1035.92 968.232 1034.75 969.105C1034.75 969.105 1034.75 969.107 1034.75 969.107L1034.74 969.116L1034.72 969.125C1034.72 969.128 1034.72 969.131 1034.71 969.133C1034.71 969.135 1034.71 969.138 1034.7 969.14C1034.7 969.142 1034.7 969.144 1034.7 969.147Z" fill="white" fill-opacity="0.7"/>
<path fill-rule="evenodd" clip-rule="evenodd" d="M1233.39 944.061C1237.48 944.061 1242.61 945.384 1248.78 949.388C1243.57 945.121 1236.99 942.62 1230.45 942.62C1228.62 942.62 1226.79 942.817 1224.99 943.226C1223.78 943.502 1222.59 943.875 1221.42 944.348C1235.72 938.556 1253.75 947.918 1258.2 963.448C1263.12 962.321 1268.12 961.187 1273.15 961.529C1278.18 961.871 1283.32 963.888 1286.47 968.052L1234.62 968.282C1234.59 968.279 1234.56 968.276 1234.54 968.274C1234.51 968.271 1234.48 968.268 1234.46 968.265C1234.42 968.262 1234.38 968.257 1234.35 968.252C1229.26 967.468 1224.17 964.64 1221.85 959.782C1215.78 964.598 1208.2 967.081 1200.63 967.082C1195.3 967.082 1189.99 965.854 1185.21 963.344C1183.4 964.37 1181.38 964.85 1179.34 964.85C1174.4 964.85 1169.38 962.02 1167.12 957.306C1162.83 963.922 1155.22 967.492 1147.69 967.492C1142.61 967.492 1137.56 965.868 1133.59 962.459C1128.62 964.06 1123.45 965.505 1118.37 965.505C1112.06 965.505 1105.91 963.285 1100.48 956.396C1095.11 963.429 1087.04 967.784 1078.6 968.974L1068.91 969.016C1065.08 968.504 1061.35 967.3 1057.93 965.358C1055.29 967.55 1052.03 968.805 1048.69 969.106L1045.63 969.12C1043.1 968.9 1040.62 968.117 1038.42 966.758C1044.16 963.651 1050.89 962.378 1057.28 963.325C1055.04 960.436 1054.84 956.187 1056.13 952.712C1057.42 949.236 1060 946.453 1062.84 944.255C1072.48 936.817 1086.04 935.552 1096.76 941.089L1097.03 941.37C1097.84 931.618 1106.3 923.261 1115.53 923.099C1114.32 911.21 1122.49 899.486 1133.18 895.678C1133.18 895.678 1133.69 895.637 1134.6 895.637C1141.48 895.637 1171.41 898.056 1178.66 939.569C1178.66 939.569 1187.38 931.06 1198.17 931.06C1205.67 931.06 1214.17 935.167 1221.44 949.092C1221.44 949.092 1225.43 944.061 1233.39 944.061ZM1133.18 895.678C1135.63 894.807 1138.16 894.314 1140.72 894.165C1138.22 894.311 1135.75 894.783 1133.36 895.617L1133.34 895.624L1133.32 895.632C1133.3 895.637 1133.29 895.642 1133.27 895.647L1133.24 895.658C1133.23 895.661 1133.22 895.665 1133.21 895.668L1133.21 895.67C1133.2 895.673 1133.19 895.675 1133.18 895.678ZM1181.2 933.539L1181.21 933.538C1181.52 933.3 1181.85 933.069 1182.17 932.846C1181.85 933.069 1181.52 933.3 1181.2 933.539ZM1184.36 931.51C1184.72 931.311 1185.09 931.121 1185.46 930.94C1185.73 930.809 1186 930.682 1186.28 930.559C1185.62 930.85 1184.98 931.167 1184.36 931.51ZM1194.05 928.425C1193.24 928.519 1192.44 928.651 1191.64 928.819C1192.2 928.701 1192.76 928.601 1193.33 928.519C1193.57 928.484 1193.81 928.453 1194.05 928.425ZM1212.53 933.439C1213.16 933.911 1213.78 934.412 1214.38 934.939C1214.06 934.654 1213.73 934.376 1213.39 934.106C1213.11 933.878 1212.82 933.656 1212.53 933.439ZM1157.47 943.726C1154.72 939.68 1151.61 935.817 1147.71 933.027C1144.43 930.676 1140.51 929.138 1136.58 929.138C1135.93 929.138 1135.28 929.179 1134.63 929.267C1136.84 928.075 1139.31 927.48 1141.79 927.48C1144.51 927.48 1147.24 928.201 1149.6 929.639C1154.27 932.48 1157.37 938.021 1157.47 943.726ZM1134.63 929.267C1134.47 929.354 1134.31 929.443 1134.16 929.536L1134.37 929.305C1134.46 929.291 1134.54 929.278 1134.63 929.267ZM1196.85 928.248C1196.93 928.247 1197.01 928.247 1197.09 928.247H1197.1C1197.01 928.247 1196.93 928.247 1196.85 928.248ZM1205.95 929.839C1206.27 929.958 1206.58 930.084 1206.89 930.215C1207 930.261 1207.11 930.308 1207.22 930.356C1206.8 930.172 1206.38 930 1205.95 929.839Z" fill="white" fill-opacity="0.9"/>
</g>
<path fill-rule="evenodd" clip-rule="evenodd" d="M1850.09 514.082C1860.32 524.212 1873.33 530.643 1887.27 532.513C1887.92 532.6 1888.57 532.679 1889.22 532.744C1919.35 535.844 1948.76 538.833 1977.08 541.285C2035.99 546.373 2090.14 549.107 2135.88 545.511C2144.74 544.815 2153.28 543.883 2161.48 542.682L2251 524.818L2240.75 522.597C2233.6 521.05 2231.82 510.027 2238.28 506.153L2256.8 495.306L2171.22 416.934L2171.29 416.914L2170 415.586L2102.53 433.098L2095.36 434.959L1994.28 425.879L1964.93 401.754L1819.19 281.967L1782.7 293.015L1860.09 468.645L1829.02 461.109L1804.31 464.414L1850.48 499.702C1846.59 503.3 1845.94 509.961 1850.09 514.082ZM2403.62 494.364L2512.69 472.594L2539.26 467.294L2583.38 458.489L2588.43 457.482C2608.96 454.282 2628.52 449.845 2647.04 444.074C2674.09 435.651 2699.71 422.772 2723.44 406.587L2723.45 406.582L2723.45 406.581L2723.45 406.579C2724.29 406.007 2725.14 405.434 2725.97 404.853C2730.71 401.56 2735.39 398.182 2739.97 394.627C2742.71 392.492 2744.48 389.755 2745.38 386.825C2746.29 383.899 2746.32 380.785 2745.59 377.899C2744.85 375.012 2743.36 372.351 2741.2 370.335C2739.19 368.448 2736.59 367.122 2733.5 366.708C2733.3 366.68 2733.09 366.656 2732.87 366.639L2702.04 363.79C2701.45 363.448 2700.85 363.114 2700.26 362.779C2696.09 360.448 2691.84 358.285 2687.54 356.3L2687.64 356.349C2687.69 356.372 2687.73 356.395 2687.78 356.42L2642.95 365.689L2633.64 352.721L2659.6 346.088C2659.6 346.088 2670.78 349.382 2680.38 353.18C2665.99 347.271 2650.97 343.257 2635.67 341.206C2626.03 339.913 2616.28 339.4 2606.5 339.679C2598.68 339.901 2590.85 340.634 2583.04 341.88L2572.94 343.486L2521.78 351.65L2498.29 355.393L2254.95 394.202L2378.94 451.538C2380.67 448.202 2383.15 446.338 2386.29 446.123C2393.85 445.606 2399.03 463.302 2402.55 485.39C2403.05 488.496 2403.4 491.497 2403.62 494.364ZM2544.67 390.843C2544.04 386.764 2546.65 382.816 2550.55 382.085C2554.43 381.311 2558.08 384.007 2558.75 388.128C2559.39 392.208 2556.78 396.118 2552.91 396.892C2552.14 397.017 2551.42 397.035 2550.71 396.94C2547.72 396.539 2545.24 394.152 2544.67 390.843ZM2523.64 394.907C2522.97 390.824 2525.61 386.917 2529.48 386.144C2533.35 385.407 2537.04 388.108 2537.68 392.188C2538.35 396.272 2535.71 400.215 2531.84 400.952C2531.1 401.119 2530.38 401.136 2529.67 401.042C2526.68 400.64 2524.17 398.211 2523.64 394.907ZM2502.6 399.008C2501.93 394.887 2504.54 390.977 2508.44 390.207C2512.31 389.471 2515.97 392.167 2516.64 396.289C2517.27 400.368 2514.67 404.279 2510.8 405.053C2510.06 405.182 2509.31 405.195 2508.6 405.101C2505.6 404.699 2503.09 402.308 2502.6 399.008ZM2481.53 403.068C2480.89 398.989 2483.5 395.041 2487.36 394.303C2491.27 393.535 2494.93 396.268 2495.57 400.348C2496.24 404.432 2493.59 408.375 2489.72 409.111C2488.98 409.279 2488.26 409.296 2487.56 409.202C2484.56 408.8 2482.05 406.372 2481.53 403.068ZM2439.41 411.228C2438.78 407.149 2441.39 403.201 2445.25 402.464C2449.13 401.69 2452.81 404.428 2453.45 408.508C2454.12 412.592 2451.51 416.54 2447.61 417.272C2446.88 417.402 2446.15 417.419 2445.45 417.325C2442.45 416.923 2439.94 414.532 2439.41 411.228ZM2418.38 415.292C2417.7 411.208 2420.35 407.265 2424.22 406.528C2428.08 405.791 2431.78 408.493 2432.41 412.572C2433.05 416.688 2430.44 420.599 2426.57 421.336C2425.83 421.503 2425.08 421.516 2424.37 421.421C2421.41 421.024 2418.9 418.595 2418.38 415.292ZM2397.3 419.388C2396.66 415.309 2399.27 411.361 2403.14 410.624C2407.05 409.855 2410.71 412.552 2411.34 416.668C2412.01 420.752 2409.4 424.663 2405.5 425.432C2404.76 425.562 2404.04 425.579 2403.33 425.484C2400.34 425.083 2397.83 422.692 2397.3 419.388ZM2376.26 423.452C2375.59 419.368 2378.23 415.424 2382.1 414.688C2385.97 413.951 2389.66 416.653 2390.3 420.732C2390.97 424.816 2388.33 428.759 2384.46 429.496C2383.72 429.663 2382.96 429.676 2382.26 429.581C2379.26 429.18 2376.79 426.756 2376.26 423.452ZM2355.19 427.549C2354.55 423.432 2357.16 419.521 2361.03 418.747C2364.93 418.015 2368.59 420.712 2369.26 424.833C2369.9 428.913 2367.29 432.823 2363.38 433.592C2362.65 433.722 2361.93 433.74 2361.22 433.645C2358.23 433.243 2355.71 430.852 2355.19 427.549ZM2165.7 464.216C2165.06 460.137 2167.67 456.226 2171.54 455.452C2175.44 454.72 2179.1 457.417 2179.77 461.501C2180.4 465.617 2177.8 469.528 2173.9 470.26C2173.16 470.427 2172.44 470.444 2171.73 470.35C2168.73 469.948 2166.22 467.519 2165.7 464.216ZM2144.66 468.317C2143.99 464.196 2146.63 460.29 2150.5 459.553C2154.37 458.779 2158.06 461.48 2158.69 465.597C2159.37 469.681 2156.72 473.624 2152.85 474.361C2152.12 474.491 2151.4 474.508 2150.69 474.414C2147.7 474.012 2145.18 471.621 2144.66 468.317ZM2123.58 472.376C2122.95 468.297 2125.55 464.386 2129.42 463.612C2133.33 462.88 2136.98 465.577 2137.66 469.661C2138.29 473.74 2135.68 477.688 2131.82 478.425C2131.04 478.587 2130.32 478.605 2129.62 478.51C2126.62 478.108 2124.11 475.68 2123.58 472.376ZM2108.58 482.573C2108.12 482.512 2107.63 482.408 2107.22 482.239C2106.78 482.103 2106.34 481.892 2105.94 481.649C2105.54 481.405 2105.15 481.124 2104.84 480.778C2104.48 480.464 2104.14 480.114 2103.86 479.735C2103.6 479.319 2103.37 478.907 2103.14 478.458C2102.95 478.014 2102.79 477.575 2102.67 477.103C2102.56 476.631 2102.48 476.126 2102.48 475.631C2102.44 475.131 2102.47 474.64 2102.53 474.155C2102.6 473.669 2102.7 473.188 2102.87 472.716C2103 472.24 2103.2 471.811 2103.44 471.386C2103.68 470.961 2103.95 470.541 2104.25 470.163C2104.59 469.79 2104.92 469.454 2105.28 469.16C2105.65 468.829 2106.08 468.582 2106.5 468.373C2106.89 468.159 2107.35 467.954 2107.79 467.824C2108.24 467.694 2108.72 467.606 2109.19 467.592C2110.1 467.524 2111.05 467.651 2111.94 467.961C2112.35 468.092 2112.79 468.303 2113.19 468.547C2113.59 468.791 2113.97 469.109 2114.33 469.422C2114.68 469.736 2114.99 470.082 2115.26 470.498C2115.53 470.877 2115.8 471.293 2115.99 471.737C2116.18 472.181 2116.33 472.658 2116.45 473.13C2116.57 473.602 2116.65 474.07 2116.69 474.569C2116.69 475.064 2116.7 475.56 2116.63 476.046C2116.57 476.531 2116.43 477.007 2116.3 477.483C2116.13 477.954 2115.92 478.422 2115.68 478.847C2115.45 479.272 2115.18 479.654 2114.88 480.032C2114.58 480.41 2114.21 480.741 2113.84 481.072C2113.48 481.366 2113.09 481.618 2112.66 481.827C2112.24 482.074 2111.78 482.242 2111.33 482.372C2110.89 482.502 2110.41 482.59 2109.97 482.608C2109.5 482.659 2109.04 482.635 2108.58 482.573Z" fill="url(#paint1_linear_38_2)"/>
<path d="M250 322C250 322 469.943 310 611 310C752.057 310 830.943 322 972 322C1113.06 322 1191.94 310 1333 310C1474.06 310 1694 322 1694 322L1644 435L1694 548C1694 548 1474.06 536 1333 536C1191.94 536 1113.06 548 972 548C830.943 548 752.057 536 611 536C469.943 536 250 548 250 548L300 435L250 322Z" fill="white"/>
<path d="M768.782 407.99H748.352V461H736.022V407.99H715.592V397.1H768.782V407.99ZM819.375 461H807.315V434.54C807.315 430.88 806.595 428.15 805.155 426.35C803.775 424.55 801.855 423.65 799.395 423.65C797.955 423.65 796.425 424.07 794.805 424.91C793.185 425.75 791.715 426.92 790.395 428.42C789.135 429.86 788.205 431.54 787.605 433.46V461H775.545V395.3H787.605V422.57C789.345 419.57 791.715 417.23 794.715 415.55C797.715 413.87 800.985 413.03 804.525 413.03C807.585 413.03 810.075 413.57 811.995 414.65C813.915 415.67 815.415 417.08 816.495 418.88C817.575 420.62 818.325 422.6 818.745 424.82C819.165 426.98 819.375 429.23 819.375 431.57V461ZM826.621 447.05C826.621 443.99 827.461 441.32 829.141 439.04C830.881 436.7 833.281 434.9 836.341 433.64C839.401 432.38 842.911 431.75 846.871 431.75C848.851 431.75 850.861 431.9 852.901 432.2C854.941 432.5 856.711 432.98 858.211 433.64V431.12C858.211 428.12 857.311 425.81 855.511 424.19C853.771 422.57 851.161 421.76 847.681 421.76C845.101 421.76 842.641 422.21 840.301 423.11C837.961 424.01 835.501 425.33 832.921 427.07L829.051 419.15C832.171 417.11 835.351 415.58 838.591 414.56C841.891 413.54 845.341 413.03 848.941 413.03C855.661 413.03 860.881 414.71 864.601 418.07C868.381 421.43 870.271 426.23 870.271 432.47V447.5C870.271 448.76 870.481 449.66 870.901 450.2C871.381 450.74 872.131 451.07 873.151 451.19V461C872.071 461.18 871.081 461.33 870.181 461.45C869.341 461.57 868.621 461.63 868.021 461.63C865.621 461.63 863.791 461.09 862.531 460.01C861.331 458.93 860.581 457.61 860.281 456.05L860.011 453.62C857.971 456.26 855.421 458.3 852.361 459.74C849.301 461.18 846.181 461.9 843.001 461.9C839.881 461.9 837.061 461.27 834.541 460.01C832.081 458.69 830.131 456.92 828.691 454.7C827.311 452.42 826.621 449.87 826.621 447.05ZM855.961 449.48C856.621 448.76 857.161 448.04 857.581 447.32C858.001 446.6 858.211 445.94 858.211 445.34V440.57C856.771 439.97 855.211 439.52 853.531 439.22C851.851 438.86 850.261 438.68 848.761 438.68C845.641 438.68 843.061 439.37 841.021 440.75C839.041 442.07 838.051 443.84 838.051 446.06C838.051 447.26 838.381 448.4 839.041 449.48C839.701 450.56 840.661 451.43 841.921 452.09C843.181 452.75 844.681 453.08 846.421 453.08C848.221 453.08 849.991 452.75 851.731 452.09C853.471 451.37 854.881 450.5 855.961 449.48ZM925.371 461H913.311V434.54C913.311 430.76 912.651 428 911.331 426.26C910.011 424.52 908.181 423.65 905.841 423.65C904.221 423.65 902.571 424.07 900.891 424.91C899.271 425.75 897.801 426.92 896.481 428.42C895.161 429.86 894.201 431.54 893.601 433.46V461H881.541V413.84H892.431V422.57C893.631 420.53 895.161 418.82 897.021 417.44C898.881 416 901.011 414.92 903.411 414.2C905.871 413.42 908.451 413.03 911.151 413.03C914.091 413.03 916.491 413.57 918.351 414.65C920.271 415.67 921.711 417.08 922.671 418.88C923.691 420.62 924.381 422.6 924.741 424.82C925.161 427.04 925.371 429.29 925.371 431.57V461ZM968.077 461L954.307 440.66L947.917 446.96V461H935.857V395.3H947.917V435.08L966.907 413.93H979.687L962.137 433.91L980.947 461H968.077ZM1006.19 470.18C1007.27 470.42 1008.26 470.63 1009.16 470.81C1010.12 470.99 1010.93 471.08 1011.59 471.08C1012.73 471.08 1013.66 470.78 1014.38 470.18C1015.16 469.64 1015.91 468.62 1016.63 467.12C1017.35 465.68 1018.1 463.64 1018.88 461L1000.25 413.84H1012.76L1025.45 448.67L1036.61 413.84H1048.13L1028.33 470.36C1027.61 472.46 1026.5 474.35 1025 476.03C1023.56 477.77 1021.73 479.12 1019.51 480.08C1017.35 481.1 1014.92 481.61 1012.22 481.61C1011.26 481.61 1010.3 481.52 1009.34 481.34C1008.38 481.22 1007.33 480.98 1006.19 480.62V470.18ZM1074.88 461.9C1071.04 461.9 1067.59 461.27 1064.53 460.01C1061.47 458.69 1058.86 456.89 1056.7 454.61C1054.6 452.33 1052.98 449.72 1051.84 446.78C1050.7 443.84 1050.13 440.75 1050.13 437.51C1050.13 434.21 1050.7 431.09 1051.84 428.15C1052.98 425.21 1054.6 422.6 1056.7 420.32C1058.86 418.04 1061.47 416.27 1064.53 415.01C1067.59 413.69 1071.04 413.03 1074.88 413.03C1078.72 413.03 1082.14 413.69 1085.14 415.01C1088.2 416.27 1090.81 418.04 1092.97 420.32C1095.13 422.6 1096.75 425.21 1097.83 428.15C1098.97 431.09 1099.54 434.21 1099.54 437.51C1099.54 440.75 1098.97 443.84 1097.83 446.78C1096.75 449.72 1095.13 452.33 1092.97 454.61C1090.87 456.89 1088.29 458.69 1085.23 460.01C1082.17 461.27 1078.72 461.9 1074.88 461.9ZM1062.55 437.51C1062.55 440.27 1063.09 442.73 1064.17 444.89C1065.25 446.99 1066.72 448.64 1068.58 449.84C1070.44 451.04 1072.54 451.64 1074.88 451.64C1077.16 451.64 1079.23 451.04 1081.09 449.84C1082.95 448.58 1084.42 446.9 1085.5 444.8C1086.64 442.64 1087.21 440.18 1087.21 437.42C1087.21 434.72 1086.64 432.29 1085.5 430.13C1084.42 427.97 1082.95 426.29 1081.09 425.09C1079.23 423.89 1077.16 423.29 1074.88 423.29C1072.54 423.29 1070.44 423.92 1068.58 425.18C1066.72 426.38 1065.25 428.06 1064.17 430.22C1063.09 432.32 1062.55 434.75 1062.55 437.51ZM1107.23 443.36V413.84H1119.29V440.75C1119.29 444.35 1119.95 447.08 1121.27 448.94C1122.59 450.74 1124.54 451.64 1127.12 451.64C1128.68 451.64 1130.21 451.34 1131.71 450.74C1133.27 450.08 1134.68 449.12 1135.94 447.86C1137.26 446.6 1138.37 445.01 1139.27 443.09V413.84H1151.33V447.5C1151.33 448.76 1151.54 449.66 1151.96 450.2C1152.44 450.74 1153.19 451.07 1154.21 451.19V461C1153.01 461.18 1151.99 461.3 1151.15 461.36C1150.37 461.48 1149.65 461.54 1148.99 461.54C1146.83 461.54 1145.06 461.06 1143.68 460.1C1142.36 459.08 1141.58 457.7 1141.34 455.96L1141.07 452.18C1138.97 455.36 1136.27 457.79 1132.97 459.47C1129.67 461.09 1126.04 461.9 1122.08 461.9C1117.22 461.9 1113.53 460.34 1111.01 457.22C1108.49 454.04 1107.23 449.42 1107.23 443.36ZM1208.9 436.97V396.47H1220.96V436.97H1208.9ZM1208.9 461V447.41H1220.96V461H1208.9Z" fill="#B73909"/>
<line x1="1664.17" y1="534.641" x2="1858.17" y2="466.641" stroke="white" stroke-width="5"/>
<line x1="1666.39" y1="336.923" x2="1860.39" y2="466.923" stroke="white" stroke-width="5"/>
<circle cx="1666" cy="336" r="7" fill="#D9D9D9"/>
<circle cx="1666" cy="533" r="7" fill="#D9D9D9"/>
</g>
<defs>
<radialGradient id="paint0_radial_38_2" cx="0" cy="0" r="1" gradientUnits="userSpaceOnUse" gradientTransform="translate(241.024 199.965) scale(1783.63 1022.81)">
<stop stop-color="#DE7119"/>
<stop offset="1" stop-color="#B73909"/>
</radialGradient>
<linearGradient id="paint1_linear_38_2" x1="1838.86" y1="493.961" x2="2752.23" y2="393.925" gradientUnits="userSpaceOnUse">
<stop stop-color="white" stop-opacity="0.6"/>
<stop offset="0.630721" stop-color="white"/>
</linearGradient>
<clipPath id="clip0_38_2">
<rect width="1940" height="1080" fill="white"/>
</clipPath>
</defs>
</svg>
